<svg width="74" height="66" viewBox="0 0 74 66" fill="none" xmlns="http://www.w3.org/2000/svg">
<path d="M52.0316 54.5875C53.6333 53.8868 55.1794 53.0655 56.6566 52.1305V63.375C56.6566 63.9883 56.413 64.5765 55.9793 65.0102C55.5456 65.4439 54.9574 65.6875 54.3441 65.6875C53.7308 65.6875 53.1426 65.4439 52.7089 65.0102C52.2753 64.5765 52.0316 63.9883 52.0316 63.375V54.5875ZM34.948 20.6516C34.6679 21.198 34.6108 21.8319 34.7888 22.4196C34.9667 23.0073 35.3658 23.503 35.9019 23.8024L49.4301 31L54.3441 28.3696L38.0988 19.6977C37.5523 19.4176 36.9185 19.3605 36.3308 19.5384C35.7431 19.7164 35.2474 20.1154 34.948 20.6516ZM72.7863 19.6977L38.0988 1.19768C37.7577 1.02722 37.3817 0.938477 37.0004 0.938477C36.6191 0.938477 36.243 1.02722 35.9019 1.19768L1.21443 19.6977C0.84671 19.8996 0.539992 20.1966 0.326352 20.5577C0.112713 20.9187 0 21.3305 0 21.75C0 22.1695 0.112713 22.5814 0.326352 22.9424C0.539992 23.3034 0.84671 23.6004 1.21443 23.8024L8.09412 27.4446V41.8399C8.08977 42.8324 8.41513 43.7983 9.01912 44.586C11.3027 47.65 20.0902 57.5938 37.0004 57.5938C42.1672 57.6369 47.2863 56.6032 52.0316 54.5586V32.3875L49.4301 31L37.0004 37.6196L11.5051 24.0336L7.22693 21.75L37.0004 5.88049L66.7738 21.75L62.4957 24.0336L54.3441 28.3696L55.4426 28.9477C55.8336 29.1735 56.1539 29.5038 56.3676 29.9016C56.5598 30.2355 56.6596 30.6147 56.6566 31V52.1305C59.8508 50.121 62.6684 47.5676 64.9816 44.586C65.5856 43.7983 65.911 42.8324 65.9066 41.8399V27.4446L72.7863 23.8024C73.154 23.6004 73.4608 23.3034 73.6744 22.9424C73.888 22.5814 74.0007 22.1695 74.0007 21.75C74.0007 21.3305 73.888 20.9187 73.6744 20.5577C73.4608 20.1966 73.154 19.8996 72.7863 19.6977Z" fill="white"/>
</svg>
