<svg width="14" height="10" viewBox="0 0 14 10" fill="none" xmlns="http://www.w3.org/2000/svg">
<path fill-rule="evenodd" clip-rule="evenodd" d="M13.0362 0.763752C13.2049 0.932527 13.2997 1.1614 13.2997 1.40005C13.2997 1.6387 13.2049 1.86758 13.0362 2.03635L5.83618 9.23635C5.6674 9.40508 5.43853 9.49986 5.19988 9.49986C4.96123 9.49986 4.73235 9.40508 4.56358 9.23635L0.963578 5.63635C0.799636 5.46661 0.708921 5.23927 0.710972 5.00329C0.713022 4.76731 0.807674 4.54158 0.974541 4.37472C1.14141 4.20785 1.36714 4.1132 1.60312 4.11115C1.83909 4.1091 2.06644 4.19981 2.23618 4.36375L5.19988 7.32745L11.7636 0.763752C11.9324 0.595028 12.1612 0.500244 12.3999 0.500244C12.6385 0.500244 12.8674 0.595028 13.0362 0.763752Z" fill="#20976C"/>
</svg>
