<svg width="16" height="16" viewBox="0 0 16 16" fill="none" xmlns="http://www.w3.org/2000/svg">
<path fill-rule="evenodd" clip-rule="evenodd" d="M4.64047 2.10942C5.2194 2.0632 5.76899 1.83549 6.21097 1.45872C6.71016 1.03355 7.34445 0.800049 8.00017 0.800049C8.65588 0.800049 9.29017 1.03355 9.78937 1.45872C10.2313 1.83549 10.7809 2.0632 11.3599 2.10942C12.0137 2.16167 12.6275 2.44509 13.0912 2.90886C13.555 3.37263 13.8384 3.98643 13.8907 4.64022C13.9366 5.21892 14.1643 5.76882 14.5414 6.21072C14.9665 6.70992 15.2 7.34421 15.2 7.99992C15.2 8.65564 14.9665 9.28993 14.5414 9.78912C14.1646 10.2311 13.9369 10.7807 13.8907 11.3596C13.8384 12.0134 13.555 12.6272 13.0912 13.091C12.6275 13.5548 12.0137 13.8382 11.3599 13.8904C10.7809 13.9366 10.2313 14.1644 9.78937 14.5411C9.29017 14.9663 8.65588 15.1998 8.00017 15.1998C7.34445 15.1998 6.71016 14.9663 6.21097 14.5411C5.76899 14.1644 5.2194 13.9366 4.64047 13.8904C3.98668 13.8382 3.37288 13.5548 2.90911 13.091C2.44533 12.6272 2.16192 12.0134 2.10967 11.3596C2.06344 10.7807 1.83573 10.2311 1.45897 9.78912C1.0338 9.28993 0.800293 8.65564 0.800293 7.99992C0.800293 7.34421 1.0338 6.70992 1.45897 6.21072C1.83573 5.76874 2.06344 5.21916 2.10967 4.64022C2.16192 3.98643 2.44533 3.37263 2.90911 2.90886C3.37288 2.44509 3.98668 2.16167 4.64047 2.10942ZM11.3365 6.83622C11.5004 6.66648 11.5911 6.43914 11.5891 6.20316C11.587 5.96719 11.4924 5.74145 11.3255 5.57459C11.1586 5.40772 10.9329 5.31307 10.6969 5.31102C10.461 5.30897 10.2336 5.39968 10.0639 5.56362L7.10017 8.52732L5.93647 7.36362C5.76673 7.19968 5.53938 7.10897 5.30341 7.11102C5.06743 7.11307 4.8417 7.20772 4.67483 7.37459C4.50796 7.54145 4.41331 7.76719 4.41126 8.00316C4.40921 8.23914 4.49992 8.46648 4.66387 8.63622L6.46387 10.4362C6.63264 10.6049 6.86152 10.6997 7.10017 10.6997C7.33881 10.6997 7.56769 10.6049 7.73647 10.4362L11.3365 6.83622Z" fill="#0A61B4"/>
</svg>
