<svg width="16" height="16" viewBox="0 0 16 16" fill="none" xmlns="http://www.w3.org/2000/svg">
<path fill-rule="evenodd" clip-rule="evenodd" d="M4.63998 2.10918C5.21891 2.06296 5.7685 1.83525 6.21048 1.45848C6.70967 1.03331 7.34396 0.799805 7.99968 0.799805C8.6554 0.799805 9.28968 1.03331 9.78888 1.45848C10.2309 1.83525 10.7804 2.06296 11.3594 2.10918C12.0132 2.16143 12.627 2.44485 13.0907 2.90862C13.5545 3.37239 13.8379 3.98619 13.8902 4.63998C13.9361 5.21868 14.1638 5.76858 14.5409 6.21048C14.966 6.70967 15.1996 7.34396 15.1996 7.99968C15.1996 8.6554 14.966 9.28968 14.5409 9.78888C14.1641 10.2309 13.9364 10.7804 13.8902 11.3594C13.8379 12.0132 13.5545 12.627 13.0907 13.0907C12.627 13.5545 12.0132 13.8379 11.3594 13.8902C10.7804 13.9364 10.2309 14.1641 9.78888 14.5409C9.28968 14.966 8.6554 15.1996 7.99968 15.1996C7.34396 15.1996 6.70967 14.966 6.21048 14.5409C5.7685 14.1641 5.21891 13.9364 4.63998 13.8902C3.98619 13.8379 3.37239 13.5545 2.90862 13.0907C2.44485 12.627 2.16143 12.0132 2.10918 11.3594C2.06296 10.7804 1.83525 10.2309 1.45848 9.78888C1.03331 9.28968 0.799805 8.6554 0.799805 7.99968C0.799805 7.34396 1.03331 6.70967 1.45848 6.21048C1.83525 5.7685 2.06296 5.21891 2.10918 4.63998C2.16143 3.98619 2.44485 3.37239 2.90862 2.90862C3.37239 2.44485 3.98619 2.16143 4.63998 2.10918ZM11.336 6.83598C11.4999 6.66624 11.5906 6.4389 11.5886 6.20292C11.5865 5.96694 11.4919 5.74121 11.325 5.57434C11.1581 5.40747 10.9324 5.31282 10.6964 5.31077C10.4605 5.30872 10.2331 5.39944 10.0634 5.56338L7.09968 8.52708L5.93598 7.36338C5.76624 7.19944 5.53889 7.10872 5.30292 7.11077C5.06694 7.11282 4.84121 7.20747 4.67434 7.37434C4.50747 7.54121 4.41282 7.76694 4.41077 8.00292C4.40872 8.23889 4.49944 8.46624 4.66338 8.63598L6.46338 10.436C6.63215 10.6047 6.86103 10.6995 7.09968 10.6995C7.33833 10.6995 7.5672 10.6047 7.73598 10.436L11.336 6.83598Z" fill="#20976C"/>
</svg>
