<svg width="17" height="19" viewBox="0 0 17 19" fill="none" xmlns="http://www.w3.org/2000/svg">
<path d="M13.5 17.667C14.8807 17.667 16 16.5477 16 15.167C16 13.7862 14.8807 12.667 13.5 12.667C12.1192 12.667 11 13.7862 11 15.167C11 16.5477 12.1192 17.667 13.5 17.667Z" stroke="#2F4356" stroke-width="1.5" stroke-linecap="round" stroke-linejoin="round"/>
<path d="M13.5 6C14.8807 6 16 4.88071 16 3.5C16 2.11929 14.8807 1 13.5 1C12.1192 1 11 2.11929 11 3.5C11 4.88071 12.1192 6 13.5 6Z" stroke="#2F4356" stroke-width="1.5" stroke-linecap="round" stroke-linejoin="round"/>
<path d="M3.5 11.833C4.88071 11.833 6 10.7138 6 9.33301C6 7.95226 4.88071 6.83301 3.5 6.83301C2.11929 6.83301 1 7.95226 1 9.33301C1 10.7138 2.11929 11.833 3.5 11.833Z" stroke="#2F4356" stroke-width="1.5" stroke-linecap="round" stroke-linejoin="round"/>
<path d="M11.4163 4.75L5.58301 8.08333" stroke="#2F4356" stroke-width="1.5"/>
<path d="M5.58301 10.583L11.4163 13.9163" stroke="#2F4356" stroke-width="1.5"/>
</svg>
