<svg width="63" height="61" viewBox="0 0 63 61" fill="none" xmlns="http://www.w3.org/2000/svg">
<path d="M62.7211 14.9047L59.1945 34.243C58.9036 35.8405 58.0615 37.2853 56.815 38.3258C55.5685 39.3664 53.9964 39.9367 52.3727 39.9375H18.8414L20.1133 46.875H51.1875C52.5596 46.875 53.9009 47.2819 55.0418 48.0442C56.1826 48.8065 57.0718 49.89 57.5969 51.1576C58.122 52.4253 58.2594 53.8202 57.9917 55.1659C57.724 56.5117 57.0633 57.7478 56.0931 58.7181C55.1228 59.6883 53.8867 60.349 52.5409 60.6167C51.1952 60.8844 49.8003 60.747 48.5326 60.2219C47.265 59.6968 46.1815 58.8076 45.4192 57.6668C44.6569 56.5259 44.25 55.1846 44.25 53.8125C44.2503 53.0241 44.3872 52.2417 44.6547 51.5H27.6578C27.9253 52.2417 28.0623 53.0241 28.0625 53.8125C28.0646 54.9318 27.7958 56.035 27.2791 57.0279C26.7624 58.0209 26.0131 58.874 25.0952 59.5146C24.1773 60.1551 23.118 60.5641 22.0078 60.7065C20.8976 60.849 19.7694 60.7207 18.7195 60.3326C17.6697 59.9445 16.7293 59.3081 15.9787 58.4777C15.228 57.6474 14.6895 56.6478 14.4089 55.5642C14.1284 54.4806 14.1142 53.3452 14.3676 52.255C14.621 51.1647 15.1344 50.1519 15.8641 49.3031L7.85703 5.25H2.625C2.01169 5.25 1.42349 5.00636 0.989815 4.57268C0.556138 4.13901 0.3125 3.55081 0.3125 2.9375C0.3125 2.32419 0.556138 1.73599 0.989815 1.30232C1.42349 0.868638 2.01169 0.625 2.625 0.625H7.85703C8.9365 0.627361 9.98115 1.00724 10.81 1.69882C11.6388 2.3904 12.1997 3.35012 12.3953 4.41172L13.8117 12.1875H60.4375C60.7751 12.1882 61.1083 12.2637 61.4132 12.4087C61.7181 12.5536 61.9871 12.7644 62.2008 13.0258C62.4244 13.279 62.5875 13.5797 62.6776 13.9052C62.7677 14.2308 62.7826 14.5726 62.7211 14.9047Z" fill="white"/>
</svg>
