<svg width="504" height="466" viewBox="0 0 504 466" fill="none" xmlns="http://www.w3.org/2000/svg">
<path d="M0 0L120 12V238L0 226V0Z" fill="url(#paint0_linear_1_48)"/>
<path d="M353 123L504 138.091V466L353 450.909L353 123Z" fill="url(#paint1_linear_1_48)"/>
<g clip-path="url(#clip0_1_48)">
<rect x="84" y="59" width="345" height="308" rx="20" fill="#F0F8FF"/>
<rect x="83" y="55" width="345" height="308" rx="20" fill="#F0F8FF"/>
<path fill-rule="evenodd" clip-rule="evenodd" d="M282.113 134.744C283.208 131.605 285.504 129.03 288.498 127.585L356.22 94.8881C359.213 93.4428 362.658 93.2459 365.797 94.3407C368.936 95.4354 371.511 97.7322 372.956 100.726L373.865 102.607C374.868 104.685 373.997 107.182 371.919 108.186L289.147 148.148C287.07 149.151 284.572 148.28 283.569 146.202L282.66 144.321C281.215 141.328 281.018 137.883 282.113 134.744ZM292.649 165.014C291.645 162.936 292.516 160.438 294.594 159.435L377.366 119.473C379.444 118.469 381.941 119.341 382.945 121.419L394.752 145.874C396.197 148.867 396.394 152.312 395.299 155.451C394.204 158.59 391.908 161.165 388.914 162.61L321.192 195.307C318.199 196.752 314.754 196.949 311.615 195.854C308.476 194.759 305.901 192.463 304.456 189.469L292.649 165.014ZM312.744 173.588C312.197 175.157 312.295 176.88 313.018 178.376C313.741 179.873 315.028 181.021 316.598 181.569C318.167 182.116 319.889 182.018 321.386 181.295L327.03 178.57C328.526 177.848 329.675 176.56 330.222 174.991C330.77 173.421 330.671 171.699 329.948 170.202C329.226 168.705 327.938 167.557 326.369 167.01C324.799 166.462 323.077 166.561 321.58 167.283L315.937 170.008C314.44 170.731 313.292 172.018 312.744 173.588ZM335.318 162.689C335.866 161.119 337.014 159.832 338.511 159.109L344.154 156.384C345.651 155.662 347.373 155.563 348.943 156.111C350.512 156.658 351.8 157.806 352.522 159.303C353.245 160.8 353.344 162.523 352.796 164.092C352.249 165.661 351.1 166.949 349.604 167.671L343.96 170.396C342.463 171.119 340.741 171.217 339.172 170.67C337.602 170.123 336.315 168.974 335.592 167.477C334.869 165.981 334.771 164.258 335.318 162.689Z" fill="url(#paint2_linear_1_48)"/>
<path d="M288.498 127.585C285.504 129.03 283.208 131.606 282.113 134.744C281.018 137.883 281.215 141.328 282.66 144.321L285.385 149.965L375.681 106.369L372.956 100.726C371.511 97.7324 368.936 95.4357 365.797 94.3409C362.658 93.2462 359.213 93.4431 356.22 94.8884L288.498 127.585Z" fill="#359BFB"/>
<path fill-rule="evenodd" clip-rule="evenodd" d="M121.542 251.581C119.965 254.229 119.505 257.394 120.263 260.382L130.975 302.618C131.544 304.859 132.979 306.781 134.965 307.964C136.951 309.146 139.325 309.491 141.565 308.923C143.806 308.355 145.729 306.92 146.911 304.934C148.093 302.948 148.438 300.574 147.87 298.333L145.728 289.886C144.591 285.405 145.281 280.656 147.646 276.684C150.011 272.713 153.857 269.843 158.337 268.706L203.39 257.279L201.961 251.648C201.204 248.661 199.291 246.097 196.643 244.52C193.995 242.944 190.829 242.484 187.842 243.241L165.315 248.955L151.196 240.548L128.669 246.262C125.682 247.019 123.118 248.933 121.542 251.581ZM152.642 279.657C151.066 282.305 150.606 285.471 151.363 288.458L154.22 299.721C154.978 302.708 154.518 305.874 152.941 308.522C151.366 311.168 148.805 313.08 145.821 313.839L213.392 296.701C216.38 295.943 218.943 294.03 220.52 291.382C222.096 288.734 222.556 285.568 221.799 282.581L218.942 271.318C218.185 268.331 216.271 265.767 213.623 264.19C210.975 262.614 207.81 262.154 204.822 262.911L159.77 274.338C156.783 275.096 154.219 277.009 152.642 279.657Z" fill="url(#paint3_linear_1_48)"/>
<path fill-rule="evenodd" clip-rule="evenodd" d="M120.263 260.381C119.505 257.394 119.965 254.228 121.542 251.58C123.118 248.932 125.682 247.019 128.669 246.262L151.196 240.548L165.315 248.955L187.842 243.241C190.829 242.484 193.995 242.944 196.643 244.52C199.291 246.097 201.204 248.661 201.962 251.648L203.39 257.279L158.337 268.706C153.857 269.842 150.011 272.712 147.646 276.684C145.281 280.656 144.591 285.405 145.728 289.886L147.87 298.333C148.438 300.573 148.093 302.948 146.911 304.934C145.729 306.92 143.806 308.355 141.565 308.923C139.325 309.491 136.951 309.146 134.965 307.964C132.979 306.781 131.544 304.858 130.975 302.618L120.263 260.381Z" fill="#359BFB"/>
<path fill-rule="evenodd" clip-rule="evenodd" d="M191.283 150.062L161.612 124.591C162.28 122.461 163.737 120.666 165.685 119.576C167.633 118.485 169.924 118.18 172.089 118.724L222.996 131.495C225.162 132.038 227.038 133.388 228.24 135.269C229.442 137.15 229.88 139.419 229.463 141.613L191.283 150.062ZM188.9 159.548L227.095 151.093L220.835 176.046C220.271 178.296 218.835 180.23 216.845 181.422C214.855 182.614 212.472 182.966 210.222 182.402L159.315 169.631C157.065 169.066 155.131 167.631 153.939 165.64C152.747 163.65 152.394 161.268 152.959 159.017L159.219 134.064L188.9 159.548Z" fill="url(#paint4_linear_1_48)"/>
<path d="M161.604 124.591L191.275 150.063L229.455 141.613C229.872 139.42 229.434 137.15 228.232 135.269C227.03 133.388 225.154 132.038 222.988 131.495L172.081 118.724C169.916 118.18 167.625 118.485 165.677 119.576C163.729 120.667 162.272 122.461 161.604 124.591V124.591Z" fill="#359BFB"/>
<g filter="url(#filter0_f_1_48)">
<circle cx="256.32" cy="232.532" r="91.9136" fill="white"/>
</g>
<path fill-rule="evenodd" clip-rule="evenodd" d="M263.851 137.006H249.811C236.629 137.006 225.941 147.782 225.941 161.061V186.51C225.941 199.789 236.629 210.565 249.811 210.565H263.851C277.036 210.565 287.723 199.789 287.723 186.51V161.061C287.723 147.782 277.036 137.006 263.851 137.006ZM249.811 122.862C228.874 122.862 211.898 139.965 211.898 161.061V186.51C211.898 207.606 228.874 224.709 249.811 224.709H263.851C284.791 224.709 301.764 207.606 301.764 186.51V161.061C301.764 139.965 284.791 122.862 263.851 122.862H249.811Z" fill="#095093"/>
<path d="M199.918 196.902C199.918 189.084 206.288 182.782 214.146 182.782H299.518C307.374 182.782 313.746 189.084 313.746 196.902V267.502C313.746 275.295 307.374 281.622 299.518 281.622H214.146C206.288 281.622 199.918 275.295 199.918 267.502V196.902Z" fill="#359BFB"/>
<path d="M268.815 221.702C268.815 228.341 263.451 233.705 256.833 233.705C250.216 233.705 244.852 228.341 244.852 221.702C244.852 215.087 250.216 209.723 256.833 209.723C263.451 209.723 268.815 215.087 268.815 221.702Z" fill="#095093"/>
<path d="M251.987 226.369C252.331 223.699 254.397 221.703 256.832 221.703C259.268 221.703 261.332 223.699 261.676 226.369L264.252 246.383C264.818 250.761 261.758 254.657 257.777 254.657H255.889C251.905 254.657 248.848 250.761 249.411 246.383L251.987 226.369Z" fill="#095093"/>
<path fill-rule="evenodd" clip-rule="evenodd" d="M283.521 250.385C302.42 250.15 320.592 243.064 334.661 230.442C348.729 243.066 366.901 250.155 385.801 250.392C386.519 254.635 386.885 259.009 386.885 263.454C386.885 297.563 365.081 326.58 334.661 337.331C304.241 326.573 282.438 297.556 282.438 263.448C282.438 258.996 282.81 254.635 283.521 250.385V250.385ZM358.86 274.591C360.049 273.36 360.707 271.711 360.692 269.999C360.678 268.288 359.991 266.65 358.781 265.44C357.57 264.23 355.933 263.543 354.221 263.528C352.51 263.513 350.861 264.171 349.63 265.36L328.133 286.857L319.693 278.416C318.461 277.227 316.812 276.569 315.101 276.584C313.389 276.599 311.752 277.285 310.542 278.496C309.331 279.706 308.645 281.343 308.63 283.055C308.615 284.767 309.273 286.416 310.462 287.647L323.518 300.703C324.742 301.927 326.402 302.614 328.133 302.614C329.864 302.614 331.524 301.927 332.748 300.703L358.86 274.591V274.591Z" fill="url(#paint5_linear_1_48)"/>
<path fill-rule="evenodd" clip-rule="evenodd" d="M281.707 134.305C282.801 131.166 285.098 128.591 288.092 127.146L355.814 94.4492C358.807 93.0039 362.252 92.807 365.391 93.9017C368.53 94.9965 371.105 97.2933 372.55 100.287L373.458 102.168C374.462 104.246 373.59 106.744 371.513 107.747L288.741 147.709C286.663 148.712 284.166 147.841 283.162 145.763L282.254 143.882C280.809 140.889 280.612 137.444 281.707 134.305ZM292.242 164.575C291.239 162.497 292.11 160 294.188 158.996L376.959 119.034C379.037 118.031 381.535 118.902 382.538 120.98L394.345 145.435C395.791 148.428 395.988 151.873 394.893 155.012C393.798 158.151 391.501 160.726 388.508 162.171L320.786 194.868C317.792 196.313 314.347 196.51 311.209 195.415C308.07 194.321 305.495 192.024 304.049 189.03L292.242 164.575ZM312.338 173.149C311.791 174.718 311.889 176.441 312.612 177.937C313.334 179.434 314.622 180.582 316.191 181.13C317.761 181.677 319.483 181.579 320.98 180.856L326.623 178.131C328.12 177.409 329.268 176.121 329.816 174.552C330.363 172.982 330.265 171.26 329.542 169.763C328.82 168.266 327.532 167.118 325.963 166.571C324.393 166.023 322.671 166.122 321.174 166.844L315.53 169.569C314.034 170.292 312.885 171.579 312.338 173.149ZM334.912 162.25C335.459 160.681 336.608 159.393 338.104 158.67L343.748 155.946C345.245 155.223 346.967 155.124 348.537 155.672C350.106 156.219 351.394 157.368 352.116 158.864C352.839 160.361 352.937 162.084 352.39 163.653C351.843 165.222 350.694 166.51 349.197 167.233L343.554 169.957C342.057 170.68 340.335 170.778 338.765 170.231C337.196 169.684 335.908 168.535 335.186 167.038C334.463 165.542 334.365 163.819 334.912 162.25Z" fill="url(#paint6_linear_1_48)"/>
<path d="M288.092 127.146C285.098 128.591 282.801 131.167 281.707 134.305C280.612 137.444 280.809 140.889 282.254 143.882L284.979 149.526L375.275 105.931L372.55 100.287C371.105 97.2935 368.53 94.9967 365.391 93.902C362.252 92.8072 358.807 93.0042 355.814 94.4494L288.092 127.146Z" fill="#359BFB"/>
<path fill-rule="evenodd" clip-rule="evenodd" d="M121.136 251.142C119.559 253.79 119.099 256.955 119.857 259.943L130.569 302.179C131.137 304.42 132.572 306.343 134.558 307.525C136.544 308.707 138.919 309.052 141.159 308.484C143.399 307.916 145.322 306.481 146.505 304.495C147.687 302.509 148.032 300.135 147.464 297.894L145.321 289.447C144.185 284.966 144.875 280.217 147.24 276.246C149.605 272.274 153.45 269.404 157.931 268.267L202.984 256.841L201.555 251.209C200.798 248.222 198.884 245.658 196.236 244.081C193.588 242.505 190.423 242.045 187.435 242.803L164.909 248.516L150.789 240.109L128.263 245.823C125.276 246.58 122.712 248.494 121.136 251.142ZM152.236 279.218C150.66 281.866 150.199 285.032 150.957 288.019L153.814 299.282C154.571 302.269 154.111 305.435 152.535 308.083C150.96 310.729 148.399 312.641 145.415 313.4L212.986 296.262C215.973 295.504 218.537 293.591 220.114 290.943C221.69 288.295 222.15 285.129 221.393 282.142L218.536 270.879C217.778 267.892 215.865 265.328 213.217 263.751C210.569 262.175 207.403 261.715 204.416 262.472L159.364 273.899C156.376 274.657 153.813 276.57 152.236 279.218Z" fill="url(#paint7_linear_1_48)"/>
<path fill-rule="evenodd" clip-rule="evenodd" d="M119.857 259.942C119.099 256.955 119.559 253.789 121.136 251.141C122.712 248.493 125.276 246.58 128.263 245.823L150.789 240.109L164.909 248.516L187.435 242.802C190.423 242.045 193.588 242.505 196.236 244.081C198.884 245.658 200.798 248.222 201.555 251.209L202.984 256.84L157.931 268.267C153.45 269.403 149.605 272.273 147.24 276.245C144.875 280.217 144.185 284.966 145.321 289.447L147.464 297.894C148.032 300.134 147.687 302.509 146.505 304.495C145.322 306.481 143.399 307.916 141.159 308.484C138.919 309.052 136.544 308.707 134.558 307.525C132.572 306.342 131.137 304.419 130.569 302.179L119.857 259.942Z" fill="#359BFB"/>
<path fill-rule="evenodd" clip-rule="evenodd" d="M190.876 149.623L161.206 124.152C161.874 122.022 163.331 120.228 165.279 119.137C167.226 118.046 169.518 117.741 171.683 118.285L222.59 131.056C224.755 131.599 226.631 132.949 227.834 134.83C229.036 136.711 229.473 138.98 229.057 141.174L190.876 149.623ZM188.494 159.109L226.689 150.654L220.429 175.607C219.864 177.857 218.429 179.791 216.439 180.983C214.448 182.175 212.066 182.527 209.816 181.963L158.909 169.192C156.658 168.627 154.725 167.192 153.533 165.201C152.341 163.211 151.988 160.829 152.553 158.579L158.813 133.626L188.494 159.109Z" fill="url(#paint8_linear_1_48)"/>
<path d="M161.198 124.152L190.869 149.624L229.049 141.174C229.466 138.981 229.028 136.711 227.826 134.83C226.624 132.949 224.748 131.599 222.582 131.056L171.675 118.285C169.51 117.741 167.219 118.046 165.271 119.137C163.323 120.228 161.866 122.022 161.198 124.152V124.152Z" fill="#359BFB"/>
<g filter="url(#filter1_f_1_48)">
<circle cx="255.914" cy="232.093" r="91.9136" fill="white"/>
</g>
<path fill-rule="evenodd" clip-rule="evenodd" d="M263.445 136.567H249.404C236.223 136.567 225.535 147.344 225.535 160.622V186.072C225.535 199.35 236.223 210.126 249.404 210.126H263.445C276.629 210.126 287.317 199.35 287.317 186.072V160.622C287.317 147.344 276.629 136.567 263.445 136.567ZM249.404 122.423C228.467 122.423 211.492 139.526 211.492 160.622V186.072C211.492 207.167 228.467 224.27 249.404 224.27H263.445C284.385 224.27 301.357 207.167 301.357 186.072V160.622C301.357 139.526 284.385 122.423 263.445 122.423H249.404Z" fill="#095093"/>
<path d="M199.512 196.463C199.512 188.645 205.881 182.343 213.74 182.343H299.112C306.968 182.343 313.34 188.645 313.34 196.463V267.063C313.34 274.856 306.968 281.183 299.112 281.183H213.74C205.881 281.183 199.512 274.856 199.512 267.063V196.463Z" fill="#359BFB"/>
<path d="M268.408 221.263C268.408 227.902 263.044 233.266 256.427 233.266C249.81 233.266 244.445 227.902 244.445 221.263C244.445 214.648 249.81 209.284 256.427 209.284C263.044 209.284 268.408 214.648 268.408 221.263Z" fill="#095093"/>
<path d="M251.581 225.93C251.925 223.26 253.991 221.264 256.425 221.264C258.862 221.264 260.926 223.26 261.27 225.93L263.846 245.944C264.411 250.322 261.352 254.219 257.371 254.219H255.482C251.499 254.219 248.442 250.322 249.004 245.944L251.581 225.93Z" fill="#095093"/>
<path fill-rule="evenodd" clip-rule="evenodd" d="M283.115 249.946C302.014 249.711 320.186 242.625 334.255 230.003C348.323 242.627 366.495 249.716 385.395 249.953C386.113 254.196 386.478 258.57 386.478 263.015C386.478 297.124 364.675 326.141 334.255 336.892C303.835 326.134 282.031 297.117 282.031 263.009C282.031 258.557 282.403 254.196 283.115 249.946V249.946ZM358.454 274.152C359.643 272.921 360.301 271.272 360.286 269.56C360.271 267.849 359.585 266.211 358.374 265.001C357.164 263.791 355.527 263.104 353.815 263.089C352.104 263.074 350.455 263.732 349.223 264.921L327.727 286.418L319.286 277.977C318.055 276.788 316.406 276.13 314.694 276.145C312.983 276.16 311.346 276.847 310.135 278.057C308.925 279.267 308.238 280.905 308.224 282.616C308.209 284.328 308.867 285.977 310.056 287.208L323.112 300.264C324.336 301.488 325.996 302.175 327.727 302.175C329.458 302.175 331.118 301.488 332.342 300.264L358.454 274.152V274.152Z" fill="url(#paint9_linear_1_48)"/>
</g>
<defs>
<filter id="filter0_f_1_48" x="49.6459" y="25.8581" width="413.348" height="413.348" filterUnits="userSpaceOnUse" color-interpolation-filters="sRGB">
<feFlood flood-opacity="0" result="BackgroundImageFix"/>
<feBlend mode="normal" in="SourceGraphic" in2="BackgroundImageFix" result="shape"/>
<feGaussianBlur stdDeviation="57.3802" result="effect1_foregroundBlur_1_48"/>
</filter>
<filter id="filter1_f_1_48" x="49.2397" y="25.4192" width="413.348" height="413.348" filterUnits="userSpaceOnUse" color-interpolation-filters="sRGB">
<feFlood flood-opacity="0" result="BackgroundImageFix"/>
<feBlend mode="normal" in="SourceGraphic" in2="BackgroundImageFix" result="shape"/>
<feGaussianBlur stdDeviation="57.3802" result="effect1_foregroundBlur_1_48"/>
</filter>
<linearGradient id="paint0_linear_1_48" x1="60" y1="-322" x2="60" y2="448" gradientUnits="userSpaceOnUse">
<stop stop-color="#1C85E8" stop-opacity="0.53"/>
<stop offset="1" stop-color="#1C85E8" stop-opacity="0"/>
</linearGradient>
<linearGradient id="paint1_linear_1_48" x1="428.5" y1="-1125.31" x2="428.5" y2="734.775" gradientUnits="userSpaceOnUse">
<stop stop-color="#059459" stop-opacity="0.53"/>
<stop offset="1" stop-color="#059459" stop-opacity="0"/>
</linearGradient>
<linearGradient id="paint2_linear_1_48" x1="320.941" y1="124.355" x2="431.779" y2="325.265" gradientUnits="userSpaceOnUse">
<stop stop-color="#059459"/>
<stop offset="1" stop-color="#059459" stop-opacity="0"/>
</linearGradient>
<linearGradient id="paint3_linear_1_48" x1="155.178" y1="262.422" x2="224.006" y2="418.747" gradientUnits="userSpaceOnUse">
<stop stop-color="#059459"/>
<stop offset="1" stop-color="#059459" stop-opacity="0"/>
</linearGradient>
<linearGradient id="paint4_linear_1_48" x1="179.231" y1="137.622" x2="245.606" y2="267.082" gradientUnits="userSpaceOnUse">
<stop stop-color="#059459"/>
<stop offset="1" stop-color="#059459" stop-opacity="0"/>
</linearGradient>
<linearGradient id="paint5_linear_1_48" x1="259.981" y1="219.998" x2="441.953" y2="456.212" gradientUnits="userSpaceOnUse">
<stop stop-color="#059459"/>
<stop offset="1" stop-color="#059459" stop-opacity="0"/>
</linearGradient>
<linearGradient id="paint6_linear_1_48" x1="320.535" y1="123.917" x2="431.373" y2="324.826" gradientUnits="userSpaceOnUse">
<stop stop-color="#059459"/>
<stop offset="1" stop-color="#059459" stop-opacity="0"/>
</linearGradient>
<linearGradient id="paint7_linear_1_48" x1="154.772" y1="261.983" x2="223.6" y2="418.308" gradientUnits="userSpaceOnUse">
<stop stop-color="#059459"/>
<stop offset="1" stop-color="#059459" stop-opacity="0"/>
</linearGradient>
<linearGradient id="paint8_linear_1_48" x1="178.824" y1="137.183" x2="245.199" y2="266.643" gradientUnits="userSpaceOnUse">
<stop stop-color="#059459"/>
<stop offset="1" stop-color="#059459" stop-opacity="0"/>
</linearGradient>
<linearGradient id="paint9_linear_1_48" x1="259.575" y1="219.559" x2="441.547" y2="455.773" gradientUnits="userSpaceOnUse">
<stop stop-color="#059459"/>
<stop offset="1" stop-color="#059459" stop-opacity="0"/>
</linearGradient>
<clipPath id="clip0_1_48">
<rect x="84" y="59" width="345" height="308" rx="20" fill="white"/>
</clipPath>
</defs>
</svg>
