<svg width="345" height="308" viewBox="0 0 345 308" fill="none" xmlns="http://www.w3.org/2000/svg">
<g clip-path="url(#clip0_1_5)">
<rect width="345" height="308" rx="20" fill="#F0F8FF"/>
<path fill-rule="evenodd" clip-rule="evenodd" d="M198.113 75.744C199.208 72.6053 201.504 70.03 204.498 68.5847L272.22 35.8881C275.213 34.4428 278.658 34.2459 281.797 35.3407C284.936 36.4354 287.511 38.7322 288.956 41.7257L289.865 43.6069C290.868 45.6847 289.997 48.1825 287.919 49.1857L205.147 89.1482C203.07 90.1514 200.572 89.2802 199.569 87.2023L198.66 85.3212C197.215 82.3277 197.018 78.8827 198.113 75.744ZM208.649 106.014C207.645 103.936 208.516 101.438 210.594 100.435L293.366 60.4727C295.444 59.4695 297.941 60.3407 298.945 62.4185L310.752 86.8737C312.197 89.8672 312.394 93.3122 311.299 96.4509C310.204 99.5896 307.908 102.165 304.914 103.61L237.192 136.307C234.199 137.752 230.754 137.949 227.615 136.854C224.476 135.759 221.901 133.463 220.456 130.469L208.649 106.014ZM228.744 114.588C228.197 116.157 228.295 117.88 229.018 119.376C229.741 120.873 231.028 122.021 232.598 122.569C234.167 123.116 235.889 123.018 237.386 122.295L243.03 119.57C244.526 118.848 245.675 117.56 246.222 115.991C246.77 114.421 246.671 112.699 245.948 111.202C245.226 109.705 243.938 108.557 242.369 108.01C240.799 107.462 239.077 107.561 237.58 108.283L231.937 111.008C230.44 111.731 229.292 113.018 228.744 114.588ZM251.318 103.689C251.866 102.119 253.014 100.832 254.511 100.109L260.154 97.3845C261.651 96.6618 263.373 96.5634 264.943 97.1107C266.512 97.6581 267.8 98.8065 268.522 100.303C269.245 101.8 269.344 103.523 268.796 105.092C268.249 106.661 267.1 107.949 265.604 108.671L259.96 111.396C258.463 112.119 256.741 112.217 255.172 111.67C253.602 111.123 252.315 109.974 251.592 108.477C250.869 106.981 250.771 105.258 251.318 103.689Z" fill="url(#paint0_linear_1_5)"/>
<path d="M204.498 68.585C201.504 70.0303 199.208 72.6055 198.113 75.7442C197.018 78.8829 197.215 82.3279 198.66 85.3214L201.385 90.9649L291.681 47.3694L288.956 41.7259C287.511 38.7324 284.936 36.4357 281.797 35.3409C278.658 34.2462 275.213 34.4431 272.22 35.8884L204.498 68.585Z" fill="#359BFB"/>
<path fill-rule="evenodd" clip-rule="evenodd" d="M37.5418 192.581C35.9653 195.229 35.5053 198.394 36.2629 201.382L46.9755 243.618C47.5437 245.859 48.9786 247.781 50.9646 248.964C52.9506 250.146 55.3249 250.491 57.5653 249.923C59.8057 249.355 61.7286 247.92 62.911 245.934C64.0933 243.948 64.4384 241.574 63.8701 239.333L61.7276 230.886C60.5912 226.405 61.2812 221.656 63.646 217.684C66.0108 213.713 69.8566 210.843 74.3373 209.706L119.39 198.279L117.961 192.648C117.204 189.661 115.291 187.097 112.643 185.52C109.995 183.944 106.829 183.484 103.842 184.241L81.3154 189.955L67.1956 181.548L44.6694 187.262C41.6822 188.019 39.1183 189.933 37.5418 192.581ZM68.6423 220.657C67.0658 223.305 66.6057 226.471 67.3634 229.458L70.2201 240.721C70.9777 243.708 70.5177 246.874 68.9411 249.522C67.3659 252.168 64.8051 254.08 61.8211 254.839L129.392 237.701C132.38 236.943 134.943 235.03 136.52 232.382C138.096 229.734 138.556 226.568 137.799 223.581L134.942 212.318C134.185 209.331 132.271 206.767 129.623 205.19C126.975 203.614 123.81 203.154 120.822 203.911L75.7698 215.338C72.7827 216.096 70.2188 218.009 68.6423 220.657Z" fill="url(#paint1_linear_1_5)"/>
<path fill-rule="evenodd" clip-rule="evenodd" d="M36.2629 201.381C35.5053 198.394 35.9653 195.228 37.5418 192.58C39.1184 189.932 41.6822 188.019 44.6694 187.262L67.1956 181.548L81.3154 189.955L103.842 184.241C106.829 183.484 109.995 183.944 112.643 185.52C115.291 187.097 117.204 189.661 117.962 192.648L119.39 198.279L74.3373 209.706C69.8566 210.842 66.0108 213.712 63.646 217.684C61.2813 221.656 60.5912 226.405 61.7277 230.886L63.8702 239.333C64.4384 241.573 64.0934 243.948 62.911 245.934C61.7286 247.92 59.8057 249.355 57.5653 249.923C55.3249 250.491 52.9506 250.146 50.9646 248.964C48.9786 247.781 47.5437 245.858 46.9755 243.618L36.2629 201.381Z" fill="#359BFB"/>
<path fill-rule="evenodd" clip-rule="evenodd" d="M107.283 91.0623L77.6121 65.5908C78.28 63.4607 79.7371 61.6665 81.6849 60.5757C83.6327 59.4849 85.9238 59.1801 88.089 59.7237L138.996 72.4948C141.162 73.0376 143.038 74.3878 144.24 76.2688C145.442 78.1499 145.88 80.4194 145.463 82.6126L107.283 91.0623ZM104.9 100.548L143.095 92.0926L136.835 117.046C136.271 119.296 134.835 121.23 132.845 122.422C130.855 123.614 128.472 123.966 126.222 123.402L75.3148 110.631C73.0646 110.066 71.1308 108.631 69.9388 106.64C68.7468 104.65 68.3943 102.268 68.9588 100.017L75.2188 75.0645L104.9 100.548Z" fill="url(#paint2_linear_1_5)"/>
<path d="M77.6043 65.5911L107.275 91.0625L145.455 82.6128C145.872 80.4196 145.434 78.1501 144.232 76.2691C143.03 74.3881 141.154 73.0379 138.988 72.4951L88.0812 59.724C85.916 59.1803 83.6248 59.4851 81.677 60.5759C79.7292 61.6667 78.2722 63.4609 77.6043 65.5911V65.5911Z" fill="#359BFB"/>
<g filter="url(#filter0_f_1_5)">
<circle cx="172.32" cy="173.532" r="91.9136" fill="white"/>
</g>
<path fill-rule="evenodd" clip-rule="evenodd" d="M179.851 78.0061H165.811C152.629 78.0061 141.941 88.7825 141.941 102.061V127.51C141.941 140.789 152.629 151.565 165.811 151.565H179.851C193.036 151.565 203.723 140.789 203.723 127.51V102.061C203.723 88.7825 193.036 78.0061 179.851 78.0061ZM165.811 63.8623C144.874 63.8623 127.898 80.9648 127.898 102.061V127.51C127.898 148.606 144.874 165.709 165.811 165.709H179.851C200.791 165.709 217.764 148.606 217.764 127.51V102.061C217.764 80.9648 200.791 63.8623 179.851 63.8623H165.811Z" fill="#095093"/>
<path d="M115.918 137.902C115.918 130.084 122.288 123.782 130.146 123.782H215.518C223.374 123.782 229.746 130.084 229.746 137.902V208.502C229.746 216.295 223.374 222.622 215.518 222.622H130.146C122.288 222.622 115.918 216.295 115.918 208.502V137.902Z" fill="#359BFB"/>
<path d="M184.815 162.702C184.815 169.341 179.451 174.705 172.833 174.705C166.216 174.705 160.852 169.341 160.852 162.702C160.852 156.087 166.216 150.723 172.833 150.723C179.451 150.723 184.815 156.087 184.815 162.702Z" fill="#095093"/>
<path d="M167.987 167.369C168.331 164.699 170.397 162.703 172.832 162.703C175.268 162.703 177.332 164.699 177.676 167.369L180.252 187.383C180.818 191.761 177.758 195.657 173.777 195.657H171.889C167.905 195.657 164.848 191.761 165.411 187.383L167.987 167.369Z" fill="#095093"/>
<path fill-rule="evenodd" clip-rule="evenodd" d="M199.521 191.385C218.42 191.15 236.592 184.064 250.661 171.442C264.729 184.066 282.901 191.155 301.801 191.392C302.519 195.635 302.885 200.009 302.885 204.454C302.885 238.563 281.081 267.58 250.661 278.331C220.241 267.573 198.438 238.556 198.438 204.448C198.438 199.996 198.81 195.635 199.521 191.385V191.385ZM274.86 215.591C276.049 214.36 276.707 212.711 276.692 210.999C276.678 209.288 275.991 207.65 274.781 206.44C273.57 205.23 271.933 204.543 270.221 204.528C268.51 204.513 266.861 205.171 265.63 206.36L244.133 227.857L235.693 219.416C234.461 218.227 232.812 217.569 231.101 217.584C229.389 217.599 227.752 218.285 226.542 219.496C225.331 220.706 224.645 222.343 224.63 224.055C224.615 225.767 225.273 227.416 226.462 228.647L239.518 241.703C240.742 242.927 242.402 243.614 244.133 243.614C245.864 243.614 247.524 242.927 248.748 241.703L274.86 215.591V215.591Z" fill="url(#paint3_linear_1_5)"/>
</g>
<defs>
<filter id="filter0_f_1_5" x="-34.3541" y="-33.1419" width="413.348" height="413.348" filterUnits="userSpaceOnUse" color-interpolation-filters="sRGB">
<feFlood flood-opacity="0" result="BackgroundImageFix"/>
<feBlend mode="normal" in="SourceGraphic" in2="BackgroundImageFix" result="shape"/>
<feGaussianBlur stdDeviation="57.3802" result="effect1_foregroundBlur_1_5"/>
</filter>
<linearGradient id="paint0_linear_1_5" x1="236.941" y1="65.3555" x2="347.779" y2="266.265" gradientUnits="userSpaceOnUse">
<stop stop-color="#059459"/>
<stop offset="1" stop-color="#059459" stop-opacity="0"/>
</linearGradient>
<linearGradient id="paint1_linear_1_5" x1="71.1783" y1="203.422" x2="140.006" y2="359.747" gradientUnits="userSpaceOnUse">
<stop stop-color="#059459"/>
<stop offset="1" stop-color="#059459" stop-opacity="0"/>
</linearGradient>
<linearGradient id="paint2_linear_1_5" x1="95.2306" y1="78.6221" x2="161.606" y2="208.082" gradientUnits="userSpaceOnUse">
<stop stop-color="#059459"/>
<stop offset="1" stop-color="#059459" stop-opacity="0"/>
</linearGradient>
<linearGradient id="paint3_linear_1_5" x1="175.981" y1="160.998" x2="357.953" y2="397.212" gradientUnits="userSpaceOnUse">
<stop stop-color="#059459"/>
<stop offset="1" stop-color="#059459" stop-opacity="0"/>
</linearGradient>
<clipPath id="clip0_1_5">
<rect width="345" height="308" rx="20" fill="white"/>
</clipPath>
</defs>
</svg>
