<svg width="34" height="34" viewBox="0 0 34 34" fill="none" xmlns="http://www.w3.org/2000/svg">
<path d="M4.39844 17.6003V25.2003C4.39844 27.5243 9.99844 29.4003 16.9984 29.4003C23.9984 29.4003 29.5984 27.5243 29.5984 25.2003V17.6003" fill="#20976C"/>
<path d="M4.39844 17.6003V25.2003C4.39844 27.5243 9.99844 29.4003 16.9984 29.4003C23.9984 29.4003 29.5984 27.5243 29.5984 25.2003V17.6003H4.39844Z" stroke="#20976C" stroke-width="2" stroke-linecap="round" stroke-linejoin="round"/>
<path d="M16.9984 21.8004C23.9572 21.8004 29.5984 19.92 29.5984 17.6004C29.5984 15.2808 23.9572 13.4004 16.9984 13.4004C10.0396 13.4004 4.39844 15.2808 4.39844 17.6004C4.39844 19.92 10.0396 21.8004 16.9984 21.8004Z" fill="#BEFDE2" stroke="#BEFDE2" stroke-width="2" stroke-linecap="round" stroke-linejoin="round"/>
<path d="M4.39844 7.19995V14.7999C4.39844 17.1239 9.99844 18.9999 16.9984 18.9999C23.9984 18.9999 29.5984 17.1239 29.5984 14.7999V7.19995" fill="#0A61B4"/>
<path d="M4.39844 7.19995V14.7999C4.39844 17.1239 9.99844 18.9999 16.9984 18.9999C23.9984 18.9999 29.5984 17.1239 29.5984 14.7999V7.19995H4.39844Z" stroke="#0A61B4" stroke-width="2" stroke-linecap="round" stroke-linejoin="round"/>
<path d="M16.9984 11.4C23.9572 11.4 29.5984 9.51959 29.5984 7.2C29.5984 4.8804 23.9572 3 16.9984 3C10.0396 3 4.39844 4.8804 4.39844 7.2C4.39844 9.51959 10.0396 11.4 16.9984 11.4Z" fill="#0B549A" stroke="#0B549A" stroke-width="2" stroke-linecap="round" stroke-linejoin="round"/>
</svg>
