<svg width="22" height="19" viewBox="0 0 22 19" fill="none" xmlns="http://www.w3.org/2000/svg">
<path fill-rule="evenodd" clip-rule="evenodd" d="M8.00592 0.773616C3.90643 0.713351 0.5 3.65246 0.5 7.1188C0.5 9.11969 1.46457 10.8555 3.3317 12.1299C3.3317 12.1299 2.64739 14.3333 2.65712 14.3774C2.66686 14.4217 2.81579 14.5085 2.86762 14.4802C2.91945 14.4518 5.34131 13.0427 5.34131 13.0427C7.07695 13.624 8.13571 13.4809 8.31642 13.4565C8.32896 13.4548 8.33728 13.4537 8.34129 13.4534C8.15606 12.9243 8.03468 12.1003 8.17289 11.3237C8.89646 7.25927 13.1616 5.995 15.4992 6.21099C14.8537 3.27572 12.0499 0.833027 8.00592 0.773616ZM5.15651 4.10962C4.61874 4.10962 4.18287 4.53499 4.18287 5.05977C4.18287 5.58456 4.61874 6.00993 5.15651 6.00993C5.69429 6.00993 6.13027 5.58456 6.13027 5.05977C6.13027 4.53499 5.69429 4.10962 5.15651 4.10962ZM11.0512 4.10962C10.5135 4.10962 10.0775 4.53499 10.0775 5.05977C10.0775 5.58456 10.5135 6.00993 11.0512 6.00993C11.589 6.00993 12.0249 5.58456 12.0249 5.05977C12.0249 4.53499 11.5891 4.10962 11.0512 4.10962Z" fill="#2F4356"/>
<path fill-rule="evenodd" clip-rule="evenodd" d="M21.5 11.9421C21.5 8.9725 18.5565 6.69791 15.1418 6.69791C11.5262 6.69791 8.64244 9.02391 8.64244 11.9933C8.64244 14.9681 11.3853 17.4309 15.146 17.4511C15.9029 17.4552 17.0303 17.2654 17.7905 16.9555C17.7905 16.9555 19.6077 18.0306 19.7095 18.0227C19.8112 18.0147 19.8634 17.9361 19.8674 17.8686C19.8715 17.8012 19.2884 16.1232 19.2884 16.1232C20.8488 14.9309 21.5 13.6171 21.5 11.9421ZM12.762 9.16183C12.2863 9.16183 11.9006 9.53878 11.9006 10.0039C11.9006 10.4689 12.2863 10.8459 12.762 10.8459C13.2378 10.8459 13.6235 10.469 13.6235 10.0039C13.6235 9.53878 13.2378 9.16183 12.762 9.16183ZM17.3685 9.16183C16.8927 9.16183 16.507 9.53878 16.507 10.0039C16.507 10.4689 16.8927 10.8459 17.3685 10.8459C17.8444 10.8459 18.23 10.469 18.23 10.0039C18.23 9.53878 17.8444 9.16183 17.3685 9.16183Z" fill="#2F4356"/>
</svg>
