<svg width="24" height="27" viewBox="0 0 24 27" fill="none" xmlns="http://www.w3.org/2000/svg">
<path d="M2 9.4L16.2392 1.24484C16.4763 1.10903 16.7785 1.18874 16.9178 1.42381L22 10" stroke="#20976C" stroke-width="1.7" stroke-linecap="round"/>
<line x1="8.17203" y1="9.94964" x2="18.0544" y2="4.45944" stroke="#20976C" stroke-width="1.7" stroke-linecap="round"/>
<path d="M2 9.85H22C22.6351 9.85 23.15 10.3649 23.15 11V18V25C23.15 25.6351 22.6351 26.15 22 26.15H2C1.36487 26.15 0.85 25.6351 0.85 25V11C0.85 10.3649 1.36487 9.85 2 9.85Z" stroke="#0A61B4" stroke-width="1.7"/>
<rect x="1" y="10" width="22" height="16" fill="#0A61B4"/>
<path d="M15.5 15.85H21C21.0828 15.85 21.15 15.9172 21.15 16V19C21.15 19.0828 21.0828 19.15 21 19.15H15.5C14.5887 19.15 13.85 18.4113 13.85 17.5C13.85 16.5887 14.5887 15.85 15.5 15.85Z" fill="#B5D9FE" stroke="#B5D9FE" stroke-width="1.7"/>
</svg>
