<svg width="32" height="32" viewBox="0 0 32 32" fill="none" xmlns="http://www.w3.org/2000/svg">
<path d="M26.6666 14.6667H5.33326M26.6666 16.6667V9.33341C26.6666 7.86066 26.9726 6.66675 25.4999 6.66675H6.49998C5.02722 6.66675 5.33326 7.86066 5.33326 9.33341V25.3334C5.33326 26.8062 5.02722 28.0001 6.49998 28.0001H15.3333" stroke="#0A61B4" stroke-width="2" stroke-linecap="round" stroke-linejoin="round"/>
<rect x="6" y="7" width="20" height="7" fill="#0A61B4"/>
<rect x="9.5" y="2.5" width="3" height="7" rx="1.5" fill="#0A61B4" stroke="white"/>
<rect x="19.5" y="2.5" width="3" height="7" rx="1.5" fill="#0A61B4" stroke="white"/>
<path fill-rule="evenodd" clip-rule="evenodd" d="M17.4342 19.6048C17.2766 19.7927 17.1342 20.1188 17.1186 20.3278C17.1125 20.4094 17.1218 20.5716 17.1392 20.6881L17.1708 20.8999L19.0475 23.5054L20.9243 26.1108L20.2418 26.0453C19.3776 25.9622 19.1767 25.996 18.7671 26.293C18.5351 26.4612 18.4822 26.5152 18.3703 26.6984C18.0326 27.2509 18.122 27.9316 18.5797 28.2923C18.8093 28.4733 18.892 28.4976 20.0452 28.7234C21.3829 28.9854 21.4031 28.9875 21.5443 28.8851C21.7708 28.7209 21.7498 28.4107 21.5072 28.3359C21.4512 28.3186 20.9078 28.2096 20.2996 28.0936C19.6914 27.9777 19.1541 27.8619 19.1055 27.8365C18.8286 27.6911 18.7406 27.2475 18.9341 26.973C19.0263 26.8422 19.2453 26.694 19.3903 26.6644C19.4599 26.6502 19.9026 26.6778 20.3741 26.7258C20.9159 26.781 21.2672 26.7977 21.3286 26.7713C21.4785 26.7067 21.6603 26.5284 21.7125 26.3949C21.8166 26.1283 21.9235 26.2974 19.7827 23.3396C18.327 21.3284 17.8351 20.6301 17.8136 20.5442C17.6874 20.0404 18.2614 19.5674 18.7339 19.7859L18.8875 19.8568L20.2365 21.7174C21.7157 23.7575 21.6645 23.6983 21.8957 23.6344C22.0376 23.5952 22.1321 23.4912 22.1645 23.3385C22.188 23.2282 22.1762 23.2033 21.9524 22.8901C21.644 22.4585 21.6076 22.3049 21.7464 22.0205C21.8878 21.7311 22.2538 21.567 22.548 21.6613C22.7039 21.7112 22.7093 21.717 23.1563 22.3024L23.6073 22.8931L23.7377 22.8973C23.9241 22.9033 24.0689 22.7901 24.1075 22.6082C24.1375 22.4671 24.137 22.4658 23.897 22.1349C23.6862 21.8441 23.654 21.7823 23.6367 21.6351C23.5785 21.14 24.121 20.7466 24.5735 20.9558C24.7181 21.0227 24.7507 21.0594 25.1324 21.5858C25.535 22.141 25.5386 22.1449 25.6565 22.1576C25.7218 22.1646 25.8172 22.1524 25.8684 22.1304C25.9934 22.0769 26.1073 21.8808 26.0805 21.7656C26.069 21.7161 25.96 21.5383 25.8384 21.3705C25.5967 21.0372 25.5583 20.9367 25.5955 20.7343C25.6316 20.5383 25.7068 20.4219 25.8776 20.2981C26.1125 20.1277 26.3448 20.1102 26.5854 20.2447C26.6872 20.3017 26.8545 20.519 27.8019 21.8256L28.9003 23.3405L29.0371 23.3672C29.1511 23.3895 29.1955 23.3783 29.3025 23.3007C29.4096 23.2231 29.4339 23.1844 29.4482 23.0691L29.4653 22.9308L28.9822 22.2709C28.7166 21.908 28.1793 21.189 27.7883 20.6731L27.0775 19.7351L26.8829 19.6412C26.2594 19.3404 25.4688 19.5965 25.0691 20.2288C25.0163 20.3124 24.9683 20.3842 24.9626 20.3884C24.9568 20.3925 24.8891 20.3671 24.8122 20.332C24.6074 20.2384 24.2967 20.2208 24.01 20.2867C23.6667 20.3656 23.3507 20.5902 23.1433 20.9026C23.0668 21.0179 22.9992 21.1113 22.9932 21.11C22.9872 21.1088 22.9334 21.0853 22.8737 21.0579C22.814 21.0305 22.6646 20.9973 22.5418 20.9842C21.9985 20.926 21.5042 21.1789 21.1609 21.6908C21.1263 21.7423 21.0633 21.6639 20.2426 20.5494C19.373 19.3685 19.3589 19.3513 19.1805 19.2485C18.6398 18.937 17.8614 19.0958 17.4342 19.6048Z" fill="#20976C"/>
</svg>
