<svg width="219" height="167" viewBox="0 0 219 167" fill="none" xmlns="http://www.w3.org/2000/svg">
<path d="M0 19.2303C0 8.65111 8.57613 0.0749512 19.1553 0.0749512H199.763C210.342 0.0749512 218.918 8.65108 218.918 19.2303V147.845C218.918 158.424 210.342 167 199.763 167H19.1553C8.57614 167 0 158.424 0 147.845V19.2303Z" fill="url(#paint0_linear_1_1342)"/>
<path d="M29.5101 136.489C28.1528 136.489 26.9999 136.256 26.0512 135.789C25.1172 135.307 24.402 134.629 23.9058 133.753C23.4096 132.863 23.1323 131.797 23.0739 130.557C23.0593 129.958 23.0521 129.316 23.0521 128.63C23.0521 127.944 23.0593 127.288 23.0739 126.66C23.1323 125.434 23.4096 124.376 23.9058 123.486C24.4166 122.595 25.1391 121.917 26.0731 121.45C27.0218 120.968 28.1674 120.727 29.5101 120.727C30.5026 120.727 31.3928 120.859 32.1809 121.121C32.969 121.384 33.6404 121.749 34.195 122.216C34.7496 122.668 35.1801 123.201 35.4866 123.814C35.7931 124.427 35.9536 125.091 35.9682 125.806C35.9828 125.938 35.939 126.047 35.8369 126.135C35.7493 126.222 35.6398 126.266 35.5085 126.266H33.4288C33.2682 126.266 33.1369 126.229 33.0347 126.156C32.9326 126.069 32.8596 125.93 32.8158 125.741C32.5823 124.777 32.1809 124.121 31.6117 123.77C31.0426 123.42 30.3347 123.245 29.4882 123.245C28.5104 123.245 27.7296 123.522 27.1458 124.077C26.562 124.617 26.2483 125.514 26.2045 126.769C26.1607 127.966 26.1607 129.192 26.2045 130.447C26.2483 131.702 26.562 132.607 27.1458 133.162C27.7296 133.702 28.5104 133.972 29.4882 133.972C30.3347 133.972 31.0426 133.797 31.6117 133.446C32.1809 133.082 32.5823 132.425 32.8158 131.476C32.8596 131.272 32.9326 131.133 33.0347 131.06C33.1369 130.987 33.2682 130.951 33.4288 130.951H35.5085C35.6398 130.951 35.7493 130.995 35.8369 131.082C35.939 131.17 35.9828 131.279 35.9682 131.411C35.9536 132.126 35.7931 132.79 35.4866 133.403C35.1801 134.016 34.7496 134.556 34.195 135.023C33.6404 135.475 32.969 135.833 32.1809 136.095C31.3928 136.358 30.5026 136.489 29.5101 136.489ZM43.8896 136.489C42.2696 136.489 40.9853 136.022 40.0367 135.088C39.088 134.154 38.5772 132.826 38.5042 131.104C38.4896 130.958 38.4824 130.776 38.4824 130.557C38.4824 130.323 38.4896 130.141 38.5042 130.009C38.5626 128.915 38.8107 127.966 39.2486 127.164C39.701 126.361 40.3213 125.748 41.1094 125.325C41.8975 124.887 42.8242 124.668 43.8896 124.668C45.0718 124.668 46.0642 124.916 46.8669 125.412C47.6696 125.894 48.2753 126.572 48.6839 127.448C49.0926 128.309 49.2969 129.309 49.2969 130.447V130.907C49.2969 131.053 49.2458 131.177 49.1437 131.279C49.0415 131.381 48.9101 131.432 48.7496 131.432H41.4815C41.4815 131.432 41.4815 131.454 41.4815 131.498C41.4815 131.542 41.4815 131.578 41.4815 131.608C41.4961 132.118 41.591 132.593 41.7661 133.031C41.9559 133.454 42.2259 133.797 42.5761 134.059C42.941 134.322 43.3715 134.453 43.8677 134.453C44.2764 134.453 44.6194 134.395 44.8967 134.278C45.1739 134.147 45.4002 134.001 45.5753 133.841C45.7504 133.68 45.8745 133.549 45.9475 133.446C46.0788 133.271 46.181 133.169 46.2539 133.14C46.3415 133.096 46.4656 133.074 46.6261 133.074H48.5088C48.6547 133.074 48.7715 133.118 48.8591 133.206C48.9612 133.293 49.005 133.403 48.9904 133.534C48.9758 133.768 48.8518 134.052 48.6183 134.388C48.3993 134.723 48.0783 135.052 47.655 135.373C47.2318 135.694 46.6991 135.964 46.0569 136.183C45.4294 136.387 44.7069 136.489 43.8896 136.489ZM41.4815 129.594H46.3196V129.528C46.3196 128.959 46.2248 128.462 46.035 128.039C45.8453 127.616 45.568 127.28 45.2031 127.032C44.8383 126.784 44.4004 126.66 43.8896 126.66C43.3788 126.66 42.941 126.784 42.5761 127.032C42.2113 127.28 41.934 127.616 41.7442 128.039C41.5691 128.462 41.4815 128.959 41.4815 129.528V129.594ZM52.8302 136.271C52.6843 136.271 52.5602 136.219 52.458 136.117C52.3559 136.015 52.3048 135.891 52.3048 135.745V125.434C52.3048 125.274 52.3559 125.142 52.458 125.04C52.5602 124.938 52.6843 124.887 52.8302 124.887H54.6034C54.7494 124.887 54.8734 124.938 54.9756 125.04C55.0924 125.142 55.1507 125.274 55.1507 125.434V126.332C55.4864 125.865 55.917 125.507 56.4424 125.259C56.9824 125.011 57.6026 124.887 58.3032 124.887H59.2007C59.3613 124.887 59.4853 124.938 59.5729 125.04C59.675 125.142 59.7261 125.266 59.7261 125.412V126.988C59.7261 127.134 59.675 127.258 59.5729 127.361C59.4853 127.463 59.3613 127.514 59.2007 127.514H57.4932C56.7926 127.514 56.2453 127.711 55.8513 128.105C55.4718 128.499 55.2821 129.039 55.2821 129.725V135.745C55.2821 135.891 55.231 136.015 55.1288 136.117C55.0267 136.219 54.8953 136.271 54.7348 136.271H52.8302ZM67.2622 136.271C66.3865 136.271 65.6495 136.117 65.0511 135.811C64.4528 135.504 64.0076 135.052 63.7157 134.453C63.4238 133.841 63.2779 133.082 63.2779 132.177V127.207H61.5484C61.4025 127.207 61.2784 127.156 61.1763 127.054C61.0741 126.952 61.023 126.828 61.023 126.682V125.412C61.023 125.266 61.0741 125.142 61.1763 125.04C61.2784 124.938 61.4025 124.887 61.5484 124.887H63.2779V121.253C63.2779 121.107 63.3217 120.983 63.4092 120.881C63.5114 120.778 63.6428 120.727 63.8033 120.727H65.5765C65.7225 120.727 65.8465 120.778 65.9487 120.881C66.0509 120.983 66.1019 121.107 66.1019 121.253V124.887H68.8384C68.9844 124.887 69.1084 124.938 69.2106 125.04C69.3127 125.142 69.3638 125.266 69.3638 125.412V126.682C69.3638 126.828 69.3127 126.952 69.2106 127.054C69.1084 127.156 68.9844 127.207 68.8384 127.207H66.1019V131.958C66.1019 132.556 66.2041 133.023 66.4084 133.359C66.6273 133.695 66.9995 133.862 67.5249 133.862H69.0354C69.1814 133.862 69.3054 133.913 69.4076 134.016C69.5098 134.118 69.5608 134.242 69.5608 134.388V135.745C69.5608 135.891 69.5098 136.015 69.4076 136.117C69.3054 136.219 69.1814 136.271 69.0354 136.271H67.2622ZM72.7124 136.271C72.5665 136.271 72.4424 136.219 72.3402 136.117C72.2381 136.015 72.187 135.891 72.187 135.745V125.412C72.187 125.266 72.2381 125.142 72.3402 125.04C72.4424 124.938 72.5665 124.887 72.7124 124.887H74.5294C74.69 124.887 74.814 124.938 74.9016 125.04C75.0038 125.142 75.0548 125.266 75.0548 125.412V135.745C75.0548 135.891 75.0038 136.015 74.9016 136.117C74.814 136.219 74.69 136.271 74.5294 136.271H72.7124ZM72.6248 123.004C72.4643 123.004 72.333 122.96 72.2308 122.873C72.1432 122.771 72.0994 122.639 72.0994 122.479V120.902C72.0994 120.757 72.1432 120.632 72.2308 120.53C72.333 120.428 72.4643 120.377 72.6248 120.377H74.617C74.7775 120.377 74.9089 120.428 75.011 120.53C75.1132 120.632 75.1643 120.757 75.1643 120.902V122.479C75.1643 122.639 75.1132 122.771 75.011 122.873C74.9089 122.96 74.7775 123.004 74.617 123.004H72.6248ZM80.3947 136.271C80.2488 136.271 80.1247 136.219 80.0226 136.117C79.9204 136.015 79.8693 135.891 79.8693 135.745V127.207H78.0961C77.9501 127.207 77.8261 127.156 77.7239 127.054C77.6218 126.952 77.5707 126.828 77.5707 126.682V125.412C77.5707 125.266 77.6218 125.142 77.7239 125.04C77.8261 124.938 77.9501 124.887 78.0961 124.887H79.8693V123.989C79.8693 123.114 80.0299 122.391 80.3509 121.822C80.672 121.238 81.1463 120.8 81.7739 120.508C82.4015 120.217 83.1969 120.071 84.1601 120.071H85.6488C85.8093 120.071 85.9334 120.122 86.0209 120.224C86.1231 120.326 86.1742 120.45 86.1742 120.596V121.866C86.1742 122.012 86.1231 122.136 86.0209 122.238C85.9334 122.34 85.8093 122.391 85.6488 122.391H84.2477C83.6639 122.391 83.2626 122.537 83.0436 122.829C82.8247 123.121 82.7153 123.544 82.7153 124.099V124.887H85.4298C85.5904 124.887 85.7144 124.938 85.802 125.04C85.9042 125.142 85.9552 125.266 85.9552 125.412V126.682C85.9552 126.828 85.9042 126.952 85.802 127.054C85.7144 127.156 85.5904 127.207 85.4298 127.207H82.7153V135.745C82.7153 135.891 82.6642 136.015 82.562 136.117C82.4599 136.219 82.3358 136.271 82.1899 136.271H80.3947ZM90.0933 136.271C89.9474 136.271 89.8233 136.219 89.7211 136.117C89.619 136.015 89.5679 135.891 89.5679 135.745V125.412C89.5679 125.266 89.619 125.142 89.7211 125.04C89.8233 124.938 89.9474 124.887 90.0933 124.887H91.9103C92.0709 124.887 92.1949 124.938 92.2825 125.04C92.3846 125.142 92.4357 125.266 92.4357 125.412V135.745C92.4357 135.891 92.3846 136.015 92.2825 136.117C92.1949 136.219 92.0709 136.271 91.9103 136.271H90.0933ZM90.0057 123.004C89.8452 123.004 89.7138 122.96 89.6117 122.873C89.5241 122.771 89.4803 122.639 89.4803 122.479V120.902C89.4803 120.757 89.5241 120.632 89.6117 120.53C89.7138 120.428 89.8452 120.377 90.0057 120.377H91.9979C92.1584 120.377 92.2898 120.428 92.3919 120.53C92.4941 120.632 92.5452 120.757 92.5452 120.902V122.479C92.5452 122.639 92.4941 122.771 92.3919 122.873C92.2898 122.96 92.1584 123.004 91.9979 123.004H90.0057ZM101.014 136.489C99.9633 136.489 99.0365 136.292 98.2338 135.898C97.4457 135.504 96.8254 134.935 96.373 134.191C95.9352 133.432 95.6944 132.52 95.6506 131.454C95.636 131.235 95.6287 130.951 95.6287 130.601C95.6287 130.236 95.636 129.936 95.6506 129.703C95.6944 128.638 95.9352 127.733 96.373 126.988C96.8254 126.229 97.4457 125.653 98.2338 125.259C99.0365 124.865 99.9633 124.668 101.014 124.668C101.948 124.668 102.744 124.799 103.4 125.062C104.057 125.325 104.597 125.653 105.02 126.047C105.444 126.441 105.757 126.857 105.962 127.295C106.181 127.718 106.297 128.105 106.312 128.455C106.326 128.616 106.275 128.747 106.159 128.849C106.056 128.937 105.932 128.981 105.786 128.981H103.86C103.714 128.981 103.597 128.944 103.51 128.871C103.437 128.798 103.364 128.689 103.291 128.543C103.072 127.959 102.78 127.55 102.415 127.317C102.065 127.069 101.612 126.945 101.058 126.945C100.328 126.945 99.7443 127.178 99.3065 127.645C98.8833 128.098 98.657 128.82 98.6279 129.812C98.5987 130.367 98.5987 130.878 98.6279 131.345C98.657 132.352 98.8833 133.082 99.3065 133.534C99.7443 133.986 100.328 134.213 101.058 134.213C101.627 134.213 102.087 134.096 102.437 133.862C102.787 133.614 103.072 133.198 103.291 132.615C103.364 132.469 103.437 132.359 103.51 132.286C103.597 132.213 103.714 132.177 103.86 132.177H105.786C105.932 132.177 106.056 132.228 106.159 132.33C106.275 132.418 106.326 132.542 106.312 132.702C106.297 132.965 106.224 133.264 106.093 133.6C105.976 133.921 105.779 134.256 105.502 134.607C105.239 134.942 104.904 135.256 104.495 135.548C104.086 135.825 103.59 136.052 103.006 136.227C102.437 136.402 101.773 136.489 101.014 136.489ZM112.585 136.489C111.826 136.489 111.14 136.343 110.527 136.052C109.914 135.745 109.425 135.344 109.06 134.848C108.71 134.337 108.535 133.768 108.535 133.14C108.535 132.118 108.943 131.308 109.761 130.71C110.593 130.097 111.687 129.688 113.044 129.484L116.044 129.046V128.586C116.044 127.974 115.89 127.499 115.584 127.164C115.277 126.828 114.752 126.66 114.008 126.66C113.482 126.66 113.052 126.769 112.716 126.988C112.395 127.193 112.154 127.47 111.994 127.82C111.877 128.01 111.709 128.105 111.49 128.105H109.761C109.6 128.105 109.476 128.061 109.389 127.974C109.316 127.886 109.279 127.769 109.279 127.623C109.294 127.39 109.389 127.105 109.564 126.769C109.739 126.434 110.016 126.113 110.396 125.806C110.775 125.485 111.264 125.215 111.862 124.996C112.461 124.777 113.183 124.668 114.03 124.668C114.949 124.668 115.723 124.785 116.35 125.018C116.992 125.237 117.503 125.536 117.883 125.916C118.262 126.295 118.539 126.74 118.714 127.251C118.89 127.762 118.977 128.302 118.977 128.871V135.745C118.977 135.891 118.926 136.015 118.824 136.117C118.722 136.219 118.598 136.271 118.452 136.271H116.679C116.518 136.271 116.387 136.219 116.284 136.117C116.197 136.015 116.153 135.891 116.153 135.745V134.891C115.963 135.169 115.708 135.431 115.387 135.679C115.066 135.913 114.672 136.11 114.205 136.271C113.752 136.416 113.212 136.489 112.585 136.489ZM113.329 134.41C113.84 134.41 114.3 134.3 114.708 134.081C115.131 133.862 115.46 133.527 115.693 133.074C115.941 132.607 116.066 132.023 116.066 131.323V130.863L113.876 131.214C113.015 131.345 112.373 131.556 111.95 131.848C111.527 132.14 111.315 132.498 111.315 132.921C111.315 133.242 111.41 133.519 111.6 133.753C111.804 133.972 112.059 134.14 112.366 134.256C112.672 134.359 112.993 134.41 113.329 134.41ZM127.507 136.271C126.632 136.271 125.895 136.117 125.296 135.811C124.698 135.504 124.253 135.052 123.961 134.453C123.669 133.841 123.523 133.082 123.523 132.177V127.207H121.794C121.648 127.207 121.524 127.156 121.422 127.054C121.319 126.952 121.268 126.828 121.268 126.682V125.412C121.268 125.266 121.319 125.142 121.422 125.04C121.524 124.938 121.648 124.887 121.794 124.887H123.523V121.253C123.523 121.107 123.567 120.983 123.654 120.881C123.757 120.778 123.888 120.727 124.049 120.727H125.822C125.968 120.727 126.092 120.778 126.194 120.881C126.296 120.983 126.347 121.107 126.347 121.253V124.887H129.084C129.23 124.887 129.354 124.938 129.456 125.04C129.558 125.142 129.609 125.266 129.609 125.412V126.682C129.609 126.828 129.558 126.952 129.456 127.054C129.354 127.156 129.23 127.207 129.084 127.207H126.347V131.958C126.347 132.556 126.449 133.023 126.654 133.359C126.873 133.695 127.245 133.862 127.77 133.862H129.281C129.427 133.862 129.551 133.913 129.653 134.016C129.755 134.118 129.806 134.242 129.806 134.388V135.745C129.806 135.891 129.755 136.015 129.653 136.117C129.551 136.219 129.427 136.271 129.281 136.271H127.507ZM137.336 136.489C135.716 136.489 134.432 136.022 133.483 135.088C132.534 134.154 132.024 132.826 131.951 131.104C131.936 130.958 131.929 130.776 131.929 130.557C131.929 130.323 131.936 130.141 131.951 130.009C132.009 128.915 132.257 127.966 132.695 127.164C133.147 126.361 133.768 125.748 134.556 125.325C135.344 124.887 136.271 124.668 137.336 124.668C138.518 124.668 139.511 124.916 140.313 125.412C141.116 125.894 141.722 126.572 142.13 127.448C142.539 128.309 142.743 129.309 142.743 130.447V130.907C142.743 131.053 142.692 131.177 142.59 131.279C142.488 131.381 142.357 131.432 142.196 131.432H134.928C134.928 131.432 134.928 131.454 134.928 131.498C134.928 131.542 134.928 131.578 134.928 131.608C134.942 132.118 135.037 132.593 135.212 133.031C135.402 133.454 135.672 133.797 136.022 134.059C136.387 134.322 136.818 134.453 137.314 134.453C137.723 134.453 138.066 134.395 138.343 134.278C138.62 134.147 138.847 134.001 139.022 133.841C139.197 133.68 139.321 133.549 139.394 133.446C139.525 133.271 139.627 133.169 139.7 133.14C139.788 133.096 139.912 133.074 140.072 133.074H141.955C142.101 133.074 142.218 133.118 142.305 133.206C142.408 133.293 142.451 133.403 142.437 133.534C142.422 133.768 142.298 134.052 142.065 134.388C141.846 134.723 141.525 135.052 141.101 135.373C140.678 135.694 140.145 135.964 139.503 136.183C138.876 136.387 138.153 136.489 137.336 136.489ZM134.928 129.594H139.766V129.528C139.766 128.959 139.671 128.462 139.481 128.039C139.292 127.616 139.014 127.28 138.649 127.032C138.285 126.784 137.847 126.66 137.336 126.66C136.825 126.66 136.387 126.784 136.022 127.032C135.658 127.28 135.38 127.616 135.191 128.039C135.015 128.462 134.928 128.959 134.928 129.528V129.594ZM150.064 136.489C149.188 136.489 148.437 136.387 147.809 136.183C147.196 135.979 146.693 135.723 146.298 135.417C145.904 135.11 145.613 134.804 145.423 134.497C145.233 134.191 145.131 133.935 145.116 133.731C145.102 133.571 145.145 133.446 145.248 133.359C145.364 133.257 145.488 133.206 145.62 133.206H147.349C147.408 133.206 147.459 133.213 147.503 133.228C147.546 133.242 147.605 133.286 147.678 133.359C147.867 133.519 148.064 133.687 148.269 133.862C148.488 134.038 148.743 134.191 149.035 134.322C149.327 134.439 149.692 134.497 150.13 134.497C150.699 134.497 151.173 134.388 151.552 134.169C151.947 133.935 152.144 133.607 152.144 133.184C152.144 132.877 152.056 132.629 151.881 132.439C151.72 132.25 151.414 132.082 150.961 131.936C150.509 131.775 149.867 131.608 149.035 131.432C148.218 131.243 147.539 131.002 146.999 130.71C146.459 130.418 146.058 130.053 145.795 129.615C145.532 129.178 145.401 128.667 145.401 128.083C145.401 127.514 145.569 126.974 145.904 126.463C146.255 125.938 146.765 125.507 147.437 125.171C148.123 124.836 148.969 124.668 149.976 124.668C150.764 124.668 151.45 124.77 152.034 124.974C152.618 125.164 153.1 125.405 153.479 125.697C153.873 125.989 154.172 126.288 154.377 126.594C154.581 126.886 154.69 127.142 154.705 127.361C154.72 127.521 154.676 127.652 154.574 127.755C154.471 127.842 154.355 127.886 154.223 127.886H152.603C152.53 127.886 152.465 127.871 152.406 127.842C152.348 127.813 152.29 127.776 152.231 127.733C152.071 127.587 151.895 127.434 151.706 127.273C151.516 127.112 151.282 126.974 151.005 126.857C150.742 126.726 150.392 126.66 149.954 126.66C149.4 126.66 148.977 126.784 148.685 127.032C148.393 127.266 148.247 127.565 148.247 127.93C148.247 128.178 148.313 128.397 148.444 128.586C148.59 128.762 148.874 128.929 149.298 129.09C149.721 129.251 150.363 129.418 151.224 129.594C152.202 129.769 152.975 130.031 153.545 130.382C154.128 130.717 154.537 131.111 154.771 131.564C155.019 132.002 155.143 132.491 155.143 133.031C155.143 133.687 154.946 134.278 154.552 134.804C154.172 135.329 153.603 135.745 152.844 136.052C152.1 136.343 151.173 136.489 150.064 136.489Z" fill="white"/>
<rect x="21.8918" y="21.9666" width="41.0471" height="41.0471" rx="13.6824" fill="white"/>
<path d="M45.836 51.6121H49.2566C49.8614 51.6121 50.4414 51.3718 50.8691 50.9442C51.2967 50.5165 51.537 49.9365 51.537 49.3317V36.7895L43.5556 28.8081H35.5742C34.9694 28.8081 34.3894 29.0484 33.9617 29.476C33.5341 29.9037 33.2938 30.4837 33.2938 31.0885V49.3317C33.2938 49.9365 33.5341 50.5165 33.9617 50.9442C34.3894 51.3718 34.9694 51.6121 35.5742 51.6121H38.4247" stroke="#059459" stroke-width="2.05236" stroke-linecap="round" stroke-linejoin="round"/>
<path d="M43.5556 28.8081V36.7895H51.537" stroke="#059459" stroke-width="2.05236" stroke-linecap="round" stroke-linejoin="round"/>
<circle cx="42.4153" cy="44.7706" r="4.67481" stroke="#059459" stroke-width="2.05236"/>
<path d="M38.995 48.1914V56.1728L42.4156 53.6851L45.8362 56.1728V48.1914" stroke="#059459" stroke-width="2.05236" stroke-linejoin="round"/>
<path d="M178.855 45.9666C178.695 45.9666 178.563 45.9155 178.461 45.8133C178.374 45.7111 178.33 45.5871 178.33 45.4411V34.1012L175.002 36.6625C174.871 36.7501 174.74 36.7866 174.608 36.772C174.477 36.7428 174.36 36.6625 174.258 36.5312L173.338 35.349C173.251 35.2177 173.214 35.079 173.229 34.9331C173.258 34.7871 173.338 34.6704 173.47 34.5828L178.374 30.7955C178.461 30.7226 178.549 30.6788 178.636 30.6642C178.724 30.6496 178.819 30.6423 178.921 30.6423H180.847C180.993 30.6423 181.117 30.6934 181.22 30.7955C181.322 30.8977 181.373 31.0217 181.373 31.1677V45.4411C181.373 45.5871 181.322 45.7111 181.22 45.8133C181.117 45.9155 180.993 45.9666 180.847 45.9666H178.855ZM190.417 46.1855C189.396 46.1855 188.513 46.0614 187.768 45.8133C187.024 45.5652 186.404 45.2441 185.907 44.8501C185.426 44.4414 185.061 44.0036 184.813 43.5366C184.565 43.0549 184.433 42.5806 184.419 42.1136C184.419 41.9822 184.463 41.8801 184.55 41.8071C184.652 41.7195 184.769 41.6758 184.9 41.6758H186.871C187.017 41.6758 187.141 41.7049 187.243 41.7633C187.345 41.8217 187.433 41.9385 187.506 42.1136C187.637 42.5076 187.849 42.8214 188.14 43.0549C188.447 43.2885 188.797 43.4563 189.191 43.5585C189.585 43.646 190.001 43.6898 190.439 43.6898C191.315 43.6898 192.008 43.4855 192.519 43.0768C193.044 42.6536 193.307 42.0552 193.307 41.2817C193.307 40.5082 193.066 39.9536 192.584 39.6179C192.103 39.2677 191.431 39.0925 190.57 39.0925H188.316C188.155 39.0925 188.024 39.0487 187.921 38.9612C187.819 38.859 187.768 38.7277 187.768 38.5671V37.6477C187.768 37.5017 187.797 37.3777 187.856 37.2755C187.929 37.1587 188.002 37.0639 188.075 36.9909L191.993 33.1598H185.732C185.572 33.1598 185.44 33.1088 185.338 33.0066C185.251 32.9044 185.207 32.7804 185.207 32.6344V31.1896C185.207 31.029 185.251 30.8977 185.338 30.7955C185.44 30.6934 185.572 30.6423 185.732 30.6423H195.124C195.284 30.6423 195.416 30.6934 195.518 30.7955C195.62 30.8977 195.671 31.029 195.671 31.1896V32.5031C195.671 32.6344 195.642 32.7512 195.584 32.8534C195.525 32.9555 195.46 33.0431 195.387 33.1161L191.599 37.0128L191.862 37.0347C192.752 37.1077 193.54 37.312 194.226 37.6477C194.927 37.9687 195.467 38.4431 195.846 39.0706C196.24 39.6982 196.437 40.4863 196.437 41.4349C196.437 42.4274 196.175 43.2812 195.649 43.9963C195.138 44.6968 194.431 45.2368 193.526 45.6163C192.621 45.9957 191.585 46.1855 190.417 46.1855Z" fill="white"/>
<path opacity="0.8" d="M154.538 72.541C154.428 72.541 154.335 72.5082 154.259 72.4425C154.193 72.3659 154.16 72.2728 154.16 72.1634V65.3167H152.765C152.655 65.3167 152.562 65.2839 152.485 65.2182C152.42 65.1416 152.387 65.0485 152.387 64.9391V64.3808C152.387 64.2714 152.42 64.1838 152.485 64.1181C152.562 64.0415 152.655 64.0032 152.765 64.0032H154.16V63.1823C154.16 62.624 154.253 62.1369 154.439 61.721C154.625 61.2941 154.921 60.9657 155.326 60.7359C155.742 60.506 156.295 60.3911 156.984 60.3911H157.969C158.079 60.3911 158.166 60.4294 158.232 60.506C158.298 60.5717 158.331 60.6592 158.331 60.7687V61.3269C158.331 61.4364 158.298 61.5294 158.232 61.6061C158.166 61.6717 158.079 61.7046 157.969 61.7046H157.017C156.503 61.7046 156.152 61.8414 155.966 62.115C155.78 62.3777 155.687 62.7609 155.687 63.2644V64.0032H157.805C157.915 64.0032 158.002 64.0415 158.068 64.1181C158.134 64.1838 158.166 64.2714 158.166 64.3808V64.9391C158.166 65.0485 158.134 65.1416 158.068 65.2182C158.002 65.2839 157.915 65.3167 157.805 65.3167H155.687V72.1634C155.687 72.2728 155.649 72.3659 155.572 72.4425C155.507 72.5082 155.419 72.541 155.309 72.541H154.538ZM162.961 72.7052C162.129 72.7052 161.434 72.5465 160.875 72.2291C160.317 71.9116 159.89 71.4738 159.595 70.9155C159.299 70.3464 159.135 69.7006 159.102 68.9781C159.091 68.792 159.086 68.5567 159.086 68.2721C159.086 67.9766 159.091 67.7412 159.102 67.5661C159.135 66.8327 159.299 66.1869 159.595 65.6287C159.901 65.0704 160.334 64.6326 160.892 64.3152C161.45 63.9977 162.14 63.839 162.961 63.839C163.782 63.839 164.471 63.9977 165.029 64.3152C165.588 64.6326 166.015 65.0704 166.31 65.6287C166.617 66.1869 166.786 66.8327 166.819 67.5661C166.83 67.7412 166.836 67.9766 166.836 68.2721C166.836 68.5567 166.83 68.792 166.819 68.9781C166.786 69.7006 166.622 70.3464 166.327 70.9155C166.031 71.4738 165.604 71.9116 165.046 72.2291C164.488 72.5465 163.793 72.7052 162.961 72.7052ZM162.961 71.441C163.639 71.441 164.181 71.2275 164.586 70.8006C164.991 70.3628 165.21 69.7279 165.243 68.896C165.254 68.7318 165.259 68.5239 165.259 68.2721C165.259 68.0204 165.254 67.8124 165.243 67.6482C165.21 66.8163 164.991 66.1869 164.586 65.76C164.181 65.3222 163.639 65.1033 162.961 65.1033C162.282 65.1033 161.735 65.3222 161.319 65.76C160.914 66.1869 160.7 66.8163 160.678 67.6482C160.667 67.8124 160.662 68.0204 160.662 68.2721C160.662 68.5239 160.667 68.7318 160.678 68.896C160.7 69.7279 160.914 70.3628 161.319 70.8006C161.735 71.2275 162.282 71.441 162.961 71.441ZM169.269 72.541C169.16 72.541 169.067 72.5082 168.99 72.4425C168.924 72.3659 168.891 72.2728 168.891 72.1634V64.3973C168.891 64.2878 168.924 64.1948 168.99 64.1181C169.067 64.0415 169.16 64.0032 169.269 64.0032H170.024C170.134 64.0032 170.227 64.0415 170.303 64.1181C170.38 64.1948 170.418 64.2878 170.418 64.3973V65.1197C170.637 64.7475 170.938 64.4684 171.321 64.2823C171.705 64.0963 172.164 64.0032 172.701 64.0032H173.357C173.467 64.0032 173.554 64.0415 173.62 64.1181C173.686 64.1838 173.719 64.2714 173.719 64.3808V65.054C173.719 65.1635 173.686 65.251 173.62 65.3167C173.554 65.3824 173.467 65.4152 173.357 65.4152H172.372C171.781 65.4152 171.316 65.5904 170.977 65.9406C170.637 66.28 170.468 66.7452 170.468 67.3362V72.1634C170.468 72.2728 170.429 72.3659 170.353 72.4425C170.276 72.5082 170.183 72.541 170.074 72.541H169.269ZM175.506 72.541C175.397 72.541 175.304 72.5082 175.227 72.4425C175.162 72.3659 175.129 72.2728 175.129 72.1634V64.3808C175.129 64.2714 175.162 64.1838 175.227 64.1181C175.304 64.0415 175.397 64.0032 175.506 64.0032H176.245C176.355 64.0032 176.442 64.0415 176.508 64.1181C176.585 64.1838 176.623 64.2714 176.623 64.3808V64.9555C176.875 64.6162 177.192 64.348 177.575 64.151C177.958 63.943 178.418 63.839 178.954 63.839C180.191 63.8281 181.067 64.3316 181.581 65.3496C181.833 64.8898 182.2 64.5231 182.681 64.2495C183.163 63.9758 183.71 63.839 184.323 63.839C184.892 63.839 185.407 63.9704 185.867 64.2331C186.337 64.4958 186.704 64.8953 186.967 65.4317C187.24 65.9571 187.377 66.6193 187.377 67.4183V72.1634C187.377 72.2728 187.339 72.3659 187.262 72.4425C187.197 72.5082 187.109 72.541 187 72.541H186.228C186.118 72.541 186.025 72.5082 185.949 72.4425C185.883 72.3659 185.85 72.2728 185.85 72.1634V67.5661C185.85 66.9531 185.763 66.4715 185.588 66.1212C185.412 65.771 185.177 65.5247 184.882 65.3824C184.586 65.2401 184.263 65.1689 183.913 65.1689C183.628 65.1689 183.338 65.2401 183.043 65.3824C182.747 65.5247 182.501 65.771 182.304 66.1212C182.118 66.4715 182.025 66.9531 182.025 67.5661V72.1634C182.025 72.2728 181.986 72.3659 181.91 72.4425C181.844 72.5082 181.756 72.541 181.647 72.541H180.875C180.766 72.541 180.673 72.5082 180.596 72.4425C180.531 72.3659 180.498 72.2728 180.498 72.1634V67.5661C180.498 66.9531 180.405 66.4715 180.219 66.1212C180.032 65.771 179.792 65.5247 179.496 65.3824C179.201 65.2401 178.889 65.1689 178.56 65.1689C178.276 65.1689 177.986 65.2401 177.69 65.3824C177.395 65.5247 177.148 65.771 176.951 66.1212C176.765 66.4715 176.672 66.9477 176.672 67.5497V72.1634C176.672 72.2728 176.634 72.3659 176.557 72.4425C176.491 72.5082 176.404 72.541 176.294 72.541H175.506ZM192.675 72.7052C192.062 72.7052 191.537 72.6286 191.099 72.4753C190.661 72.3221 190.305 72.136 190.032 71.9171C189.758 71.6982 189.55 71.4793 189.408 71.2603C189.276 71.0414 189.205 70.8663 189.194 70.7349C189.183 70.6145 189.222 70.5215 189.309 70.4558C189.397 70.3901 189.484 70.3573 189.572 70.3573H190.294C190.36 70.3573 190.409 70.3683 190.442 70.3901C190.486 70.4011 190.541 70.4449 190.606 70.5215C190.749 70.6747 190.907 70.828 191.082 70.9812C191.258 71.1345 191.471 71.2603 191.723 71.3589C191.985 71.4574 192.308 71.5066 192.691 71.5066C193.25 71.5066 193.709 71.4026 194.071 71.1947C194.432 70.9758 194.612 70.6583 194.612 70.2424C194.612 69.9687 194.536 69.7498 194.383 69.5856C194.24 69.4214 193.978 69.2737 193.595 69.1423C193.222 69.011 192.708 68.8741 192.051 68.7318C191.394 68.5786 190.874 68.3925 190.491 68.1736C190.108 67.9437 189.835 67.6756 189.67 67.3691C189.506 67.0516 189.424 66.6959 189.424 66.3019C189.424 65.8969 189.545 65.5083 189.785 65.1361C190.026 64.753 190.376 64.441 190.836 64.2002C191.307 63.9594 191.892 63.839 192.593 63.839C193.162 63.839 193.649 63.9102 194.054 64.0525C194.459 64.1948 194.793 64.3754 195.056 64.5943C195.319 64.8023 195.516 65.0102 195.647 65.2182C195.778 65.4262 195.849 65.6013 195.86 65.7436C195.871 65.8531 195.838 65.9461 195.762 66.0227C195.685 66.0884 195.598 66.1212 195.499 66.1212H194.81C194.733 66.1212 194.667 66.1048 194.612 66.072C194.569 66.0391 194.525 66.0008 194.481 65.9571C194.372 65.8148 194.24 65.6725 194.087 65.5302C193.945 65.3879 193.753 65.2729 193.512 65.1854C193.283 65.0869 192.976 65.0376 192.593 65.0376C192.046 65.0376 191.635 65.1525 191.362 65.3824C191.088 65.6123 190.951 65.9023 190.951 66.2526C190.951 66.4606 191.011 66.6466 191.132 66.8108C191.252 66.975 191.482 67.1228 191.821 67.2541C192.161 67.3855 192.664 67.5278 193.332 67.681C194.054 67.8233 194.623 68.0149 195.039 68.2557C195.455 68.4965 195.751 68.7756 195.926 69.0931C196.101 69.4105 196.189 69.7772 196.189 70.1931C196.189 70.6528 196.052 71.0743 195.778 71.4574C195.516 71.8405 195.121 72.147 194.596 72.3768C194.082 72.5957 193.441 72.7052 192.675 72.7052Z" fill="white"/>
<defs>
<linearGradient id="paint0_linear_1_1342" x1="75.5183" y1="49.8937" x2="238.788" y2="398.485" gradientUnits="userSpaceOnUse">
<stop stop-color="#059459"/>
<stop offset="1" stop-color="#059459" stop-opacity="0"/>
</linearGradient>
</defs>
</svg>
