<svg width="34" height="34" viewBox="0 0 34 34" fill="none" xmlns="http://www.w3.org/2000/svg">
<g clip-path="url(#clip0_1_3669)">
<path d="M25.4008 5.80078H8.60078C7.05438 5.80078 5.80078 7.05438 5.80078 8.60078V25.4008C5.80078 26.9472 7.05438 28.2008 8.60078 28.2008H25.4008C26.9472 28.2008 28.2008 26.9472 28.2008 25.4008V8.60078C28.2008 7.05438 26.9472 5.80078 25.4008 5.80078Z" fill="#0A61B4" stroke="#0A61B4" stroke-width="2" stroke-linecap="round" stroke-linejoin="round"/>
<path d="M20.5984 13.4004H13.3984V20.6004H20.5984V13.4004Z" fill="white" stroke="#20976C" stroke-width="2" stroke-linecap="round" stroke-linejoin="round"/>
<path d="M12.8008 1.59961V5.79961" stroke="#20976C" stroke-width="3" stroke-linecap="round" stroke-linejoin="round"/>
<path d="M21.1992 1.60059V5.80058" stroke="#20976C" stroke-width="3" stroke-linecap="round" stroke-linejoin="round"/>
<path d="M12.8008 28.2002V32.4002" stroke="#20976C" stroke-width="3" stroke-linecap="round" stroke-linejoin="round"/>
<path d="M21.1992 28.2002V32.4002" stroke="#20976C" stroke-width="3" stroke-linecap="round" stroke-linejoin="round"/>
<path d="M28.1992 12.7998H32.3992" stroke="#20976C" stroke-width="3" stroke-linecap="round" stroke-linejoin="round"/>
<path d="M28.1992 19.7998H32.3992" stroke="#20976C" stroke-width="3" stroke-linecap="round" stroke-linejoin="round"/>
<path d="M1.59766 12.8008H5.79765" stroke="#20976C" stroke-width="3" stroke-linecap="round" stroke-linejoin="round"/>
<path d="M1.59766 19.8008H5.79765" stroke="#20976C" stroke-width="3" stroke-linecap="round" stroke-linejoin="round"/>
</g>
<defs>
<clipPath id="clip0_1_3669">
<rect width="33.6" height="33.6" fill="white" transform="translate(0.199219 0.200195)"/>
</clipPath>
</defs>
</svg>
