<svg width="18" height="22" viewBox="0 0 18 22" fill="none" xmlns="http://www.w3.org/2000/svg">
<path d="M7.076 9.0227C7.676 9.0227 8.162 9.4727 8.151 10.0227C8.151 10.5727 7.677 11.0227 7.076 11.0227C6.486 11.0227 6 10.5727 6 10.0227C6 9.4727 6.475 9.0227 7.076 9.0227ZM10.924 9.0227C11.525 9.0227 12 9.4727 12 10.0227C12 10.5727 11.525 11.0227 10.924 11.0227C10.334 11.0227 9.849 10.5727 9.849 10.0227C9.849 9.4727 10.323 9.0227 10.924 9.0227ZM15.891 0.0227051C17.054 0.0227051 18 0.988705 18 2.1857V21.0227L15.789 19.0277L14.544 17.8517L13.227 16.6017L13.773 18.5447H2.109C0.946 18.5447 0 17.5787 0 16.3817V2.1857C0 0.988705 0.946 0.0227051 2.109 0.0227051H15.89H15.891ZM11.921 13.7357C14.194 13.6627 15.069 12.1397 15.069 12.1397C15.069 8.7587 13.587 6.0177 13.587 6.0177C12.107 4.8847 10.697 4.9157 10.697 4.9157L10.553 5.0837C12.302 5.6297 13.114 6.4177 13.114 6.4177C12.1591 5.87969 11.1066 5.53704 10.018 5.4097C9.32744 5.33171 8.62993 5.33842 7.941 5.4297C7.879 5.4297 7.827 5.4407 7.766 5.4507C7.406 5.4827 6.531 5.6187 5.431 6.1127C5.051 6.2907 4.824 6.4177 4.824 6.4177C4.824 6.4177 5.678 5.5877 7.529 5.0417L7.426 4.9157C7.426 4.9157 6.017 4.8847 4.536 6.0187C4.536 6.0187 3.055 8.7587 3.055 12.1397C3.055 12.1397 3.919 13.6617 6.192 13.7357C6.192 13.7357 6.572 13.2637 6.882 12.8647C5.575 12.4647 5.082 11.6247 5.082 11.6247C5.082 11.6247 5.184 11.6987 5.369 11.8037C5.379 11.8137 5.389 11.8247 5.41 11.8347C5.441 11.8567 5.472 11.8667 5.503 11.8877C5.76 12.0347 6.017 12.1497 6.253 12.2447C6.675 12.4127 7.179 12.5807 7.766 12.6967C8.64532 12.8691 9.54941 12.8725 10.43 12.7067C10.9429 12.6152 11.4433 12.4638 11.921 12.2557C12.281 12.1187 12.682 11.9187 13.104 11.6357C13.104 11.6357 12.59 12.4967 11.242 12.8857C11.551 13.2847 11.922 13.7357 11.922 13.7357H11.921Z" fill="#2F4356"/>
</svg>
