<svg width="30" height="32" viewBox="0 0 30 32" fill="none" xmlns="http://www.w3.org/2000/svg">
<path d="M17 0H3C1.34315 0 0 1.34315 0 3V29C0 30.6569 1.34315 32 3 32H17C18.6569 32 20 30.6569 20 29V3C20 1.34315 18.6569 0 17 0Z" fill="#0A61B4"/>
<path d="M16 2H4C2.89543 2 2 2.89543 2 4V25C2 26.1046 2.89543 27 4 27H16C17.1046 27 18 26.1046 18 25V4C18 2.89543 17.1046 2 16 2Z" fill="#F7FBFF"/>
<path d="M5 23.2711L6.026 20.191C6.178 19.741 6.822 19.741 6.974 20.191L7.61798 22.1212C7.75898 22.5512 8.34098 22.591 8.53998 22.191L9.05298 21.161C9.23698 20.801 9.76302 20.801 9.94702 21.161L10.862 22.9911C10.946 23.1611 11.12 23.2711 11.309 23.2711H12" stroke="#20976C" stroke-width="1.5" stroke-linecap="round"/>
<path d="M26.5722 9.36465C25.2071 8.61278 23.4611 9.06238 22.6733 10.3568L16.2128 20.9914C16.0326 21.2937 15.9641 21.6348 16.0179 21.9759L16.2389 23.3478C16.4354 24.5803 17.7794 25.3166 18.9962 24.867L20.3605 24.3555C20.6957 24.2315 20.9762 24.0067 21.1564 23.7044L27.6169 13.0697C28.4055 11.7753 27.9374 10.1165 26.5722 9.36465Z" fill="#0A61B4" stroke="#BEFDE3" stroke-width="2"/>
<path d="M10 31C10.8284 31 11.5 30.3284 11.5 29.5C11.5 28.6716 10.8284 28 10 28C9.17157 28 8.5 28.6716 8.5 29.5C8.5 30.3284 9.17157 31 10 31Z" fill="#BEFDE3"/>
<path d="M5 8H15" stroke="#20976C" stroke-width="2" stroke-linecap="round"/>
<path d="M5 12H15" stroke="#20976C" stroke-width="2" stroke-linecap="round"/>
<path d="M5 16H15" stroke="#20976C" stroke-width="2" stroke-linecap="round"/>
</svg>
