<svg width="16" height="16" viewBox="0 0 16 16" fill="none" xmlns="http://www.w3.org/2000/svg">
<path fill-rule="evenodd" clip-rule="evenodd" d="M4.64047 2.10918C5.2194 2.06296 5.76899 1.83525 6.21097 1.45848C6.71016 1.03331 7.34445 0.799805 8.00017 0.799805C8.65588 0.799805 9.29017 1.03331 9.78937 1.45848C10.2313 1.83525 10.7809 2.06296 11.3599 2.10918C12.0137 2.16143 12.6275 2.44485 13.0912 2.90862C13.555 3.37239 13.8384 3.98619 13.8907 4.63998C13.9366 5.21868 14.1643 5.76858 14.5414 6.21048C14.9665 6.70967 15.2 7.34396 15.2 7.99968C15.2 8.6554 14.9665 9.28968 14.5414 9.78888C14.1646 10.2309 13.9369 10.7804 13.8907 11.3594C13.8384 12.0132 13.555 12.627 13.0912 13.0907C12.6275 13.5545 12.0137 13.8379 11.3599 13.8902C10.7809 13.9364 10.2313 14.1641 9.78937 14.5409C9.29017 14.966 8.65588 15.1996 8.00017 15.1996C7.34445 15.1996 6.71016 14.966 6.21097 14.5409C5.76899 14.1641 5.2194 13.9364 4.64047 13.8902C3.98668 13.8379 3.37288 13.5545 2.90911 13.0907C2.44533 12.627 2.16192 12.0132 2.10967 11.3594C2.06344 10.7804 1.83573 10.2309 1.45897 9.78888C1.0338 9.28968 0.800293 8.6554 0.800293 7.99968C0.800293 7.34396 1.0338 6.70967 1.45897 6.21048C1.83573 5.7685 2.06344 5.21891 2.10967 4.63998C2.16192 3.98619 2.44533 3.37239 2.90911 2.90862C3.37288 2.44485 3.98668 2.16143 4.64047 2.10918V2.10918ZM11.3365 6.83598C11.5004 6.66624 11.5911 6.4389 11.5891 6.20292C11.587 5.96694 11.4924 5.74121 11.3255 5.57434C11.1586 5.40747 10.9329 5.31282 10.6969 5.31077C10.461 5.30872 10.2336 5.39944 10.0639 5.56338L7.10017 8.52708L5.93647 7.36338C5.76672 7.19944 5.53938 7.10872 5.30341 7.11077C5.06743 7.11282 4.8417 7.20747 4.67483 7.37434C4.50796 7.54121 4.41331 7.76694 4.41126 8.00292C4.40921 8.2389 4.49992 8.46624 4.66387 8.63598L6.46387 10.436C6.63264 10.6047 6.86152 10.6995 7.10017 10.6995C7.33881 10.6995 7.56769 10.6047 7.73647 10.436L11.3365 6.83598V6.83598Z" fill="#059459"/>
</svg>
