<svg width="69" height="51" viewBox="0 0 69 51" fill="none" xmlns="http://www.w3.org/2000/svg">
<path d="M57.3125 9.53125H4.84375V2.6875C4.84375 2.08247 4.6034 1.50223 4.17559 1.07441C3.74777 0.646596 3.16753 0.40625 2.5625 0.40625C1.95747 0.40625 1.37723 0.646596 0.949413 1.07441C0.521595 1.50223 0.28125 2.08247 0.28125 2.6875V48.3125C0.28125 48.9175 0.521595 49.4978 0.949413 49.9256C1.37723 50.3534 1.95747 50.5938 2.5625 50.5938C3.16753 50.5938 3.74777 50.3534 4.17559 49.9256C4.6034 49.4978 4.84375 48.9175 4.84375 48.3125V39.1875H64.1562V48.3125C64.1562 48.9175 64.3966 49.4978 64.8244 49.9256C65.2522 50.3534 65.8325 50.5938 66.4375 50.5938C67.0425 50.5938 67.6228 50.3534 68.0506 49.9256C68.4784 49.4978 68.7188 48.9175 68.7188 48.3125V20.9375C68.7188 17.9124 67.517 15.0112 65.3779 12.8721C63.2388 10.733 60.3376 9.53125 57.3125 9.53125ZM4.84375 14.0938H25.375V34.625H4.84375V14.0938Z" fill="white"/>
</svg>
