<svg width="25" height="25" viewBox="0 0 25 25" fill="none" xmlns="http://www.w3.org/2000/svg">
<path d="M11.0082 14.45C11.506 14.9497 12.0975 15.3461 12.7489 15.6166C13.4003 15.8872 14.0986 16.0264 14.8039 16.0264C15.5093 16.0264 16.2076 15.8872 16.859 15.6166C17.5104 15.3461 18.1019 14.9497 18.5997 14.45L22.0537 11.0082C22.9863 9.98501 23.4888 8.64186 23.4567 7.25785C23.4247 5.87384 22.8606 4.55539 21.8817 3.57648C20.9028 2.59757 19.5843 2.03348 18.2003 2.00144C16.8163 1.9694 15.4732 2.47187 14.45 3.40443L12.591 5.26344" stroke="#20976C" stroke-width="3" stroke-linecap="round" stroke-linejoin="round"/>
<path d="M14.45 11.0082C13.9522 10.5085 13.3606 10.1121 12.7093 9.84154C12.0579 9.57102 11.3595 9.43176 10.6542 9.43176C9.94891 9.43176 9.25054 9.57102 8.59917 9.84154C7.9478 10.1121 7.35625 10.5085 6.85845 11.0082L3.40443 14.45C2.47187 15.4732 1.9694 16.8163 2.00144 18.2003C2.03348 19.5843 2.59757 20.9028 3.57648 21.8817C4.55539 22.8606 5.87384 23.4247 7.25785 23.4567C8.64186 23.4888 9.98501 22.9863 11.0082 22.0537L12.7093 20.3526" stroke="#0A61B4" stroke-width="3" stroke-linecap="round" stroke-linejoin="round"/>
</svg>
