<svg width="18" height="14" viewBox="0 0 18 14" fill="none" xmlns="http://www.w3.org/2000/svg">
<path d="M6.30078 10.4751L9.00078 13.1751M9.00078 13.1751L11.7008 10.4751M9.00078 13.1751L9 7.1M14.9954 11.2107C15.5822 10.798 16.0223 10.2091 16.2517 9.52938C16.4812 8.84965 16.4881 8.11449 16.2714 7.43059C16.0547 6.74668 15.6257 6.14962 15.0467 5.72603C14.4677 5.30245 13.7688 5.07439 13.0514 5.07495H12.2009C11.9978 4.28377 11.618 3.54895 11.0899 2.92581C10.5618 2.30267 9.89921 1.80746 9.15203 1.47744C8.40485 1.14743 7.59253 0.991223 6.77624 1.02058C5.95996 1.04993 5.16096 1.26409 4.43941 1.64692C3.71786 2.02975 3.09257 2.57128 2.61059 3.23074C2.12862 3.8902 1.80252 4.65041 1.65687 5.45414C1.51121 6.25786 1.54978 7.08416 1.76967 7.87082C1.98957 8.65748 2.38505 9.38401 2.92636 9.99571" stroke="white" stroke-width="1.5" stroke-linecap="round" stroke-linejoin="round"/>
</svg>
