<svg width="10" height="10" viewBox="0 0 10 10" fill="none" xmlns="http://www.w3.org/2000/svg">
<path d="M9.02164 2.20926H7.22901V1.85073C7.22783 1.56583 7.11413 1.29294 6.91267 1.09148C6.71122 0.890025 6.43832 0.776326 6.15343 0.775146H4.00226C3.71736 0.776326 3.44447 0.890025 3.24302 1.09148C3.04156 1.29294 2.92786 1.56583 2.92668 1.85073V2.20926H1.13405C0.943872 2.20926 0.761486 2.2848 0.627012 2.41928C0.492539 2.55375 0.416992 2.73613 0.416992 2.92631V8.66274C0.416992 8.85292 0.492539 9.0353 0.627012 9.16978C0.761486 9.30425 0.943872 9.3798 1.13405 9.3798H9.02164C9.21182 9.3798 9.3942 9.30425 9.52868 9.16978C9.66315 9.0353 9.7387 8.85292 9.7387 8.66274V2.92631C9.7387 2.73613 9.66315 2.55375 9.52868 2.41928C9.3942 2.2848 9.21182 2.20926 9.02164 2.20926ZM3.64374 1.85073C3.64374 1.75564 3.68151 1.66445 3.74875 1.59721C3.81598 1.52997 3.90718 1.4922 4.00226 1.4922H6.15343C6.24851 1.4922 6.33971 1.52997 6.40694 1.59721C6.47418 1.66445 6.51195 1.75564 6.51195 1.85073V2.20926H3.64374V1.85073ZM6.33269 6.15305H5.43637V7.04937C5.43637 7.14446 5.3986 7.23565 5.33136 7.30289C5.26413 7.37013 5.17293 7.4079 5.07784 7.4079C4.98276 7.4079 4.89156 7.37013 4.82433 7.30289C4.75709 7.23565 4.71932 7.14446 4.71932 7.04937V6.15305H3.823C3.72791 6.15305 3.63672 6.11528 3.56948 6.04804C3.50225 5.98081 3.46447 5.88961 3.46447 5.79453C3.46447 5.69944 3.50225 5.60825 3.56948 5.54101C3.63672 5.47377 3.72791 5.436 3.823 5.436H4.71932V4.53968C4.71932 4.44459 4.75709 4.3534 4.82433 4.28616C4.89156 4.21893 4.98276 4.18115 5.07784 4.18115C5.17293 4.18115 5.26413 4.21893 5.33136 4.28616C5.3986 4.3534 5.43637 4.44459 5.43637 4.53968V5.436H6.33269C6.42778 5.436 6.51897 5.47377 6.58621 5.54101C6.65344 5.60825 6.69122 5.69944 6.69122 5.79453C6.69122 5.88961 6.65344 5.98081 6.58621 6.04804C6.51897 6.11528 6.42778 6.15305 6.33269 6.15305Z" fill="white"/>
</svg>
