<svg width="46" height="46" viewBox="0 0 46 46" fill="none" xmlns="http://www.w3.org/2000/svg">
<path fill-rule="evenodd" clip-rule="evenodd" d="M22.9996 45.7326C28.9405 45.7326 34.638 43.3726 38.8388 39.1718C43.0396 34.971 45.3996 29.2735 45.3996 23.3326C45.3996 17.3918 43.0396 11.6942 38.8388 7.49343C34.638 3.29261 28.9405 0.932617 22.9996 0.932617C17.0588 0.932617 11.3612 3.29261 7.16042 7.49343C2.9596 11.6942 0.599609 17.3918 0.599609 23.3326C0.599609 29.2735 2.9596 34.971 7.16042 39.1718C11.3612 43.3726 17.0588 45.7326 22.9996 45.7326ZM21.7536 15.403C21.3319 15.1217 20.8418 14.9601 20.3355 14.9355C19.8291 14.9109 19.3256 15.0242 18.8787 15.2634C18.4317 15.5025 18.058 15.8585 17.7976 16.2934C17.5371 16.7283 17.3995 17.2257 17.3996 17.7326V28.9326C17.3995 29.4395 17.5371 29.937 17.7976 30.3718C18.058 30.8067 18.4317 31.1627 18.8787 31.4019C19.3256 31.641 19.8291 31.7543 20.3355 31.7297C20.8418 31.7051 21.3319 31.5436 21.7536 31.2622L30.1536 25.6622C30.5371 25.4065 30.8515 25.0601 31.069 24.6537C31.2865 24.2473 31.4002 23.7935 31.4002 23.3326C31.4002 22.8717 31.2865 22.4179 31.069 22.0115C30.8515 21.6051 30.5371 21.2587 30.1536 21.003L21.7536 15.403Z" fill="#20976C"/>
</svg>
