<svg width="12" height="11" viewBox="0 0 12 11" fill="none" xmlns="http://www.w3.org/2000/svg">
<path d="M8.40823 8.73443C8.65655 8.6258 8.89626 8.49845 9.12528 8.35349V10.0968C9.12528 10.1919 9.08751 10.2831 9.02027 10.3504C8.95303 10.4176 8.86184 10.4554 8.76675 10.4554C8.67167 10.4554 8.58047 10.4176 8.51324 10.3504C8.446 10.2831 8.40823 10.1919 8.40823 10.0968V8.73443ZM5.75961 3.47304C5.71618 3.55777 5.70733 3.65603 5.73492 3.74715C5.7625 3.83827 5.82437 3.91513 5.9075 3.96154L8.00488 5.07745L8.76675 4.66963L6.2481 3.32515C6.16338 3.28173 6.06511 3.27288 5.97399 3.30046C5.88287 3.32805 5.80602 3.38992 5.75961 3.47304ZM11.626 3.32515L6.2481 0.456935C6.19522 0.430507 6.13692 0.416748 6.0778 0.416748C6.01868 0.416748 5.96038 0.430507 5.9075 0.456935L0.529593 3.32515C0.472581 3.35646 0.425028 3.40251 0.391906 3.45848C0.358783 3.51446 0.341309 3.5783 0.341309 3.64334C0.341309 3.70839 0.358783 3.77223 0.391906 3.82821C0.425028 3.88418 0.472581 3.93023 0.529593 3.96154L1.59621 4.52622V6.75805C1.59554 6.91193 1.64598 7.06169 1.73962 7.1838C2.09367 7.65885 3.45607 9.20051 6.0778 9.20051C6.87886 9.2072 7.67253 9.04694 8.40823 8.72995V5.29257L8.00488 5.07745L6.0778 6.10374L2.12504 3.99739L1.46176 3.64334L6.0778 1.18295L10.6938 3.64334L10.0306 3.99739L8.76675 4.66963L8.93705 4.75926C8.99768 4.79426 9.04734 4.84548 9.08047 4.90715C9.11027 4.95893 9.12574 5.01771 9.12528 5.07745V8.35349C9.62051 8.04195 10.0573 7.64607 10.416 7.1838C10.5096 7.06169 10.5601 6.91193 10.5594 6.75805V4.52622L11.626 3.96154C11.683 3.93023 11.7306 3.88418 11.7637 3.82821C11.7968 3.77223 11.8143 3.70839 11.8143 3.64334C11.8143 3.5783 11.7968 3.51446 11.7637 3.45848C11.7306 3.40251 11.683 3.35646 11.626 3.32515Z" fill="white"/>
</svg>
