<svg width="30" height="32" viewBox="0 0 30 32" fill="none" xmlns="http://www.w3.org/2000/svg">
<path d="M17 0H3C1.34315 0 0 1.34315 0 3V29C0 30.6569 1.34315 32 3 32H17C18.6569 32 20 30.6569 20 29V3C20 1.34315 18.6569 0 17 0Z" fill="#0A61B4"/>
<path d="M16 2H4C2.89543 2 2 2.89543 2 4V25C2 26.1046 2.89543 27 4 27H16C17.1046 27 18 26.1046 18 25V4C18 2.89543 17.1046 2 16 2Z" fill="#BEFDE3"/>
<path d="M5 23.2706L6.026 20.1905C6.178 19.7405 6.822 19.7405 6.974 20.1905L7.61798 22.1207C7.75898 22.5507 8.34098 22.5905 8.53998 22.1905L9.05298 21.1605C9.23698 20.8005 9.76302 20.8005 9.94702 21.1605L10.862 22.9906C10.946 23.1606 11.12 23.2706 11.309 23.2706H12" stroke="#20976C" stroke-width="1.5" stroke-linecap="round"/>
<path d="M27.232 4.47044C25.558 3.50044 23.417 4.08047 22.451 5.75047L14.529 19.4704C14.308 19.8604 14.224 20.3005 14.29 20.7405L14.561 22.5105C14.802 24.1005 16.45 25.0504 17.942 24.4704L19.615 23.8105C20.026 23.6505 20.37 23.3604 20.591 22.9704L28.513 9.25047C29.48 7.58047 28.906 5.44044 27.232 4.47044Z" fill="#0A61B4" stroke="#BEFDE3" stroke-width="2"/>
<path d="M10 31C10.8284 31 11.5 30.3284 11.5 29.5C11.5 28.6716 10.8284 28 10 28C9.17157 28 8.5 28.6716 8.5 29.5C8.5 30.3284 9.17157 31 10 31Z" fill="#BEFDE3"/>
<path d="M5 8H15" stroke="#20976C" stroke-width="2" stroke-linecap="round"/>
<path d="M5 12H15" stroke="#20976C" stroke-width="2" stroke-linecap="round"/>
<path d="M5 16H15" stroke="#20976C" stroke-width="2" stroke-linecap="round"/>
</svg>
