<svg width="60" height="60" viewBox="0 0 60 60" fill="none" xmlns="http://www.w3.org/2000/svg">
<rect width="60" height="60" rx="30" fill="#BEFDE2"/>
<path d="M17.3984 30.5999V38.1999C17.3984 40.5239 22.9984 42.3999 29.9984 42.3999C36.9984 42.3999 42.5984 40.5239 42.5984 38.1999V30.5999" fill="#20976C" stroke="#20976C" stroke-width="2" stroke-linecap="round" stroke-linejoin="round"/>
<path d="M29.9984 34.7999C36.9572 34.7999 42.5984 32.9195 42.5984 30.5999C42.5984 28.2803 36.9572 26.3999 29.9984 26.3999C23.0396 26.3999 17.3984 28.2803 17.3984 30.5999C17.3984 32.9195 23.0396 34.7999 29.9984 34.7999Z" fill="#BEFDE2" stroke="#BEFDE2" stroke-width="2" stroke-linecap="round" stroke-linejoin="round"/>
<path d="M17.3984 20.1998V27.7998C17.3984 30.1237 22.9984 31.9997 29.9984 31.9997C36.9984 31.9997 42.5984 30.1237 42.5984 27.7998V20.1998" fill="#0A61B4" stroke="#0A61B4" stroke-width="2" stroke-linecap="round" stroke-linejoin="round"/>
<path d="M29.9984 24.3998C36.9572 24.3998 42.5984 22.5193 42.5984 20.1998C42.5984 17.8802 36.9572 15.9998 29.9984 15.9998C23.0396 15.9998 17.3984 17.8802 17.3984 20.1998C17.3984 22.5193 23.0396 24.3998 29.9984 24.3998Z" fill="#0B549A" stroke="#0B549A" stroke-width="2" stroke-linecap="round" stroke-linejoin="round"/>
</svg>
