<svg width="60" height="60" viewBox="0 0 60 60" fill="none" xmlns="http://www.w3.org/2000/svg">
<rect width="60" height="60" rx="30" fill="#BEFDE2"/>
<path d="M29.1121 46.3075C29.6652 46.6288 30.3364 46.6288 30.8895 46.3075C33.8515 44.5867 43.2008 38.4832 43.2008 30V19.6171C43.2008 18.7878 42.689 18.0445 41.9142 17.7487L30.7142 13.4723C30.2548 13.2969 29.7468 13.2969 29.2874 13.4723L18.0874 17.7487C17.3126 18.0445 16.8008 18.7878 16.8008 19.6171V30C16.8008 38.4832 26.1501 44.5867 29.1121 46.3075Z" fill="#0A61B4"/>
<path d="M29.0962 41.4727C29.6557 41.818 30.349 41.818 30.9084 41.4727C33.3005 39.9962 39.6023 35.5253 39.6023 29.4001V21.942C39.6023 21.1203 39.0997 20.3821 38.3351 20.0811L30.7351 17.0886C30.2642 16.9031 29.7405 16.9031 29.2696 17.0886L21.6696 20.0811C20.905 20.3821 20.4023 21.1203 20.4023 21.942V29.4001C20.4023 35.5253 26.7042 39.9962 29.0962 41.4727Z" fill="#BEFDE2"/>
<path d="M25.1992 28.7999L28.7992 32.3999L34.7992 26.3999" stroke="#20976C" stroke-width="2" stroke-linecap="round" stroke-linejoin="round"/>
</svg>
