<svg width="40" height="40" viewBox="0 0 40 40" fill="none" xmlns="http://www.w3.org/2000/svg">
<path fill-rule="evenodd" clip-rule="evenodd" d="M40 20C40 31.0457 31.0457 40 20 40C8.9543 40 0 31.0457 0 20C0 8.9543 8.9543 0 20 0C31.0457 0 40 8.9543 40 20ZM12.9829 12.1973C14.1913 12.1973 15.1709 11.2177 15.1709 10.0093C15.1709 8.80089 14.1913 7.82129 12.9829 7.82129C11.7745 7.82129 10.7949 8.80089 10.7949 10.0093C10.7949 11.2177 11.7745 12.1973 12.9829 12.1973ZM17.2367 25.9937V13.8547H20.8547V15.5147H20.9057C21.4087 14.5617 22.6387 13.5547 24.4737 13.5547C28.2957 13.5547 28.9997 16.0677 28.9997 19.3377V25.9947H25.2287V20.0907C25.2287 18.6837 25.2047 16.8727 23.2677 16.8727C21.3037 16.8727 21.0057 18.4067 21.0057 19.9907V25.9937H17.2367ZM14.8697 13.8547H11.0947V25.9937H14.8697V13.8547Z" fill="white"/>
</svg>
