<svg width="24" height="24" viewBox="0 0 24 24" fill="none" xmlns="http://www.w3.org/2000/svg">
<path d="M22.693 2.33008L4.37598 11.7701" stroke="#0A61B4" stroke-width="2"/>
<path d="M2.86096 11.26L20.5 20.5" stroke="#0A61B4" stroke-width="2"/>
<path d="M20 8C17.7909 8 16 6.20914 16 4C16 1.79086 17.7909 0 20 0C22.2091 0 24 1.79086 24 4C24 6.20914 22.2091 8 20 8Z" fill="#20976C"/>
<path d="M20 24C17.7909 24 16 22.2091 16 20C16 17.7909 17.7909 16 20 16C22.2091 16 24 17.7909 24 20C24 22.2091 22.2091 24 20 24Z" fill="#20976C"/>
<path d="M4 16C1.79086 16 0 14.2091 0 12C0 9.79086 1.79086 8 4 8C6.20914 8 8 9.79086 8 12C8 14.2091 6.20914 16 4 16Z" fill="#0A61B4"/>
</svg>
