<svg width="18" height="18" viewBox="0 0 18 18" fill="none" xmlns="http://www.w3.org/2000/svg">
<path fill-rule="evenodd" clip-rule="evenodd" d="M5.63998 3.10918C6.21891 3.06296 6.7685 2.83525 7.21048 2.45848C7.70967 2.03331 8.34396 1.7998 8.99968 1.7998C9.6554 1.7998 10.2897 2.03331 10.7889 2.45848C11.2309 2.83525 11.7804 3.06296 12.3594 3.10918C13.0132 3.16143 13.627 3.44485 14.0907 3.90862C14.5545 4.37239 14.8379 4.98619 14.8902 5.63998C14.9361 6.21868 15.1638 6.76858 15.5409 7.21048C15.966 7.70967 16.1996 8.34396 16.1996 8.99968C16.1996 9.6554 15.966 10.2897 15.5409 10.7889C15.1641 11.2309 14.9364 11.7804 14.8902 12.3594C14.8379 13.0132 14.5545 13.627 14.0907 14.0907C13.627 14.5545 13.0132 14.8379 12.3594 14.8902C11.7804 14.9364 11.2309 15.1641 10.7889 15.5409C10.2897 15.966 9.6554 16.1996 8.99968 16.1996C8.34396 16.1996 7.70967 15.966 7.21048 15.5409C6.7685 15.1641 6.21891 14.9364 5.63998 14.8902C4.98619 14.8379 4.37239 14.5545 3.90862 14.0907C3.44485 13.627 3.16143 13.0132 3.10918 12.3594C3.06296 11.7804 2.83525 11.2309 2.45848 10.7889C2.03331 10.2897 1.7998 9.6554 1.7998 8.99968C1.7998 8.34396 2.03331 7.70967 2.45848 7.21048C2.83525 6.7685 3.06296 6.21891 3.10918 5.63998C3.16143 4.98619 3.44485 4.37239 3.90862 3.90862C4.37239 3.44485 4.98619 3.16143 5.63998 3.10918ZM12.336 7.83598C12.4999 7.66624 12.5906 7.4389 12.5886 7.20292C12.5865 6.96694 12.4919 6.74121 12.325 6.57434C12.1581 6.40747 11.9324 6.31282 11.6964 6.31077C11.4605 6.30872 11.2331 6.39944 11.0634 6.56338L8.09968 9.52708L6.93598 8.36338C6.76624 8.19944 6.53889 8.10872 6.30292 8.11077C6.06694 8.11282 5.84121 8.20747 5.67434 8.37434C5.50747 8.54121 5.41282 8.76694 5.41077 9.00292C5.40872 9.23889 5.49944 9.46624 5.66338 9.63598L7.46338 11.436C7.63215 11.6047 7.86103 11.6995 8.09968 11.6995C8.33833 11.6995 8.5672 11.6047 8.73598 11.436L12.336 7.83598Z" fill="#AEB4BA"/>
</svg>
