<svg width="11" height="10" viewBox="0 0 11 10" fill="none" xmlns="http://www.w3.org/2000/svg">
<path d="M10.3755 2.27201L9.8287 5.27019C9.7836 5.51787 9.65305 5.74187 9.45979 5.9032C9.26652 6.06452 9.0228 6.15295 8.77105 6.15307H3.57241L3.7696 7.22865H8.5873C8.80003 7.22865 9.00799 7.29173 9.18486 7.40992C9.36174 7.5281 9.4996 7.69609 9.58101 7.89262C9.66242 8.08916 9.68372 8.30542 9.64222 8.51407C9.60072 8.72271 9.49828 8.91436 9.34786 9.06478C9.19743 9.2152 9.00578 9.31764 8.79714 9.35914C8.5885 9.40065 8.37223 9.37935 8.1757 9.29794C7.97916 9.21653 7.81118 9.07867 7.69299 8.90179C7.5748 8.72491 7.51172 8.51696 7.51172 8.30423C7.51176 8.18199 7.53299 8.06069 7.57446 7.9457H4.93929C4.98077 8.06069 5.00199 8.18199 5.00203 8.30423C5.00236 8.47777 4.96069 8.64881 4.88058 8.80275C4.80047 8.95669 4.6843 9.08896 4.54199 9.18827C4.39968 9.28759 4.23545 9.35099 4.06332 9.37307C3.8912 9.39516 3.71628 9.37526 3.55351 9.31509C3.39074 9.25492 3.24494 9.15626 3.12857 9.02752C3.01219 8.89879 2.9287 8.74381 2.8852 8.57581C2.84171 8.40781 2.83951 8.23178 2.87879 8.06275C2.91808 7.89372 2.99768 7.7367 3.1108 7.6051L1.8694 0.77516H1.05823C0.963147 0.77516 0.871954 0.737387 0.804717 0.67015C0.73748 0.602913 0.699707 0.51172 0.699707 0.416633C0.699707 0.321545 0.73748 0.230353 0.804717 0.163116C0.871954 0.0958787 0.963147 0.0581055 1.05823 0.0581055H1.8694C2.03676 0.0584716 2.19872 0.117367 2.32723 0.224589C2.45573 0.331811 2.54268 0.480605 2.57301 0.645194L2.79261 1.85074H10.0214C10.0738 1.85085 10.1254 1.86256 10.1727 1.88504C10.22 1.90751 10.2617 1.94018 10.2948 1.98071C10.3295 2.01996 10.3547 2.06659 10.3687 2.11706C10.3827 2.16753 10.385 2.22052 10.3755 2.27201Z" fill="white"/>
</svg>
