<svg width="12" height="12" viewBox="0 0 12 12" fill="none" xmlns="http://www.w3.org/2000/svg">
<path fill-rule="evenodd" clip-rule="evenodd" d="M0.864094 0.863627C1.03287 0.694903 1.26175 0.600119 1.50039 0.600119C1.73904 0.600119 1.96792 0.694903 2.13669 0.863627L6.00039 4.72733L9.86409 0.863627C9.94712 0.777668 10.0464 0.709103 10.1562 0.661935C10.266 0.614767 10.3841 0.58994 10.5036 0.588901C10.6231 0.587863 10.7416 0.610634 10.8523 0.655887C10.9629 0.70114 11.0633 0.767967 11.1478 0.852471C11.2324 0.936974 11.2992 1.03746 11.3444 1.14807C11.3897 1.25867 11.4125 1.37719 11.4114 1.49669C11.4104 1.61619 11.3856 1.73429 11.3384 1.84409C11.2912 1.95389 11.2227 2.0532 11.1367 2.13623L7.27299 5.99993L11.1367 9.86363C11.3006 10.0334 11.3914 10.2607 11.3893 10.4967C11.3872 10.7327 11.2926 10.9584 11.1257 11.1253C10.9589 11.2921 10.7331 11.3868 10.4972 11.3888C10.2612 11.3909 10.0338 11.3002 9.86409 11.1362L6.00039 7.27253L2.13669 11.1362C1.96695 11.3002 1.73961 11.3909 1.50363 11.3888C1.26766 11.3868 1.04192 11.2921 0.875057 11.1253C0.70819 10.9584 0.613537 10.7327 0.611487 10.4967C0.609436 10.2607 0.700152 10.0334 0.864094 9.86363L4.72779 5.99993L0.864094 2.13623C0.69537 1.96745 0.600586 1.73857 0.600586 1.49993C0.600586 1.26128 0.69537 1.0324 0.864094 0.863627Z" fill="#D00000"/>
</svg>
