<svg width="12" height="8" viewBox="0 0 12 8" fill="none" xmlns="http://www.w3.org/2000/svg">
<path d="M9.53688 1.5241H1.40219V0.463057C1.40219 0.369255 1.36493 0.279294 1.2986 0.212966C1.23227 0.146638 1.14231 0.109375 1.04851 0.109375C0.954704 0.109375 0.864744 0.146638 0.798415 0.212966C0.732087 0.279294 0.694824 0.369255 0.694824 0.463057V7.5367C0.694824 7.6305 0.732087 7.72046 0.798415 7.78679C0.864744 7.85312 0.954704 7.89038 1.04851 7.89038C1.14231 7.89038 1.23227 7.85312 1.2986 7.78679C1.36493 7.72046 1.40219 7.6305 1.40219 7.5367V6.12197H10.5979V7.5367C10.5979 7.6305 10.6352 7.72046 10.7015 7.78679C10.7678 7.85312 10.8578 7.89038 10.9516 7.89038C11.0454 7.89038 11.1354 7.85312 11.2017 7.78679C11.268 7.72046 11.3053 7.6305 11.3053 7.5367V3.29251C11.3053 2.8235 11.119 2.3737 10.7873 2.04206C10.4557 1.71042 10.0059 1.5241 9.53688 1.5241ZM1.40219 2.23147H4.58533V5.41461H1.40219V2.23147Z" fill="white"/>
</svg>
