<svg width="16" height="16" viewBox="0 0 16 16" fill="none" xmlns="http://www.w3.org/2000/svg">
<path fill-rule="evenodd" clip-rule="evenodd" d="M4.64096 2.10918C5.21989 2.06296 5.76948 1.83525 6.21146 1.45848C6.71065 1.03331 7.34494 0.799805 8.00066 0.799805C8.65637 0.799805 9.29066 1.03331 9.78986 1.45848C10.2318 1.83525 10.7814 2.06296 11.3604 2.10918C12.0141 2.16143 12.6279 2.44485 13.0917 2.90862C13.5555 3.37239 13.8389 3.98619 13.8912 4.63998C13.9371 5.21868 14.1648 5.76858 14.5419 6.21048C14.967 6.70967 15.2005 7.34396 15.2005 7.99968C15.2005 8.6554 14.967 9.28968 14.5419 9.78888C14.1651 10.2309 13.9374 10.7804 13.8912 11.3594C13.8389 12.0132 13.5555 12.627 13.0917 13.0907C12.6279 13.5545 12.0141 13.8379 11.3604 13.8902C10.7814 13.9364 10.2318 14.1641 9.78986 14.5409C9.29066 14.966 8.65637 15.1996 8.00066 15.1996C7.34494 15.1996 6.71065 14.966 6.21146 14.5409C5.76948 14.1641 5.21989 13.9364 4.64096 13.8902C3.98717 13.8379 3.37337 13.5545 2.90959 13.0907C2.44582 12.627 2.16241 12.0132 2.11015 11.3594C2.06393 10.7804 1.83622 10.2309 1.45946 9.78888C1.03429 9.28968 0.800781 8.6554 0.800781 7.99968C0.800781 7.34396 1.03429 6.70967 1.45946 6.21048C1.83622 5.7685 2.06393 5.21891 2.11015 4.63998C2.16241 3.98619 2.44582 3.37239 2.90959 2.90862C3.37337 2.44485 3.98717 2.16143 4.64096 2.10918ZM11.337 6.83598C11.5009 6.66624 11.5916 6.4389 11.5896 6.20292C11.5875 5.96694 11.4929 5.74121 11.326 5.57434C11.1591 5.40747 10.9334 5.31282 10.6974 5.31077C10.4614 5.30872 10.2341 5.39944 10.0644 5.56338L7.10066 8.52708L5.93695 7.36338C5.76721 7.19944 5.53987 7.10872 5.30389 7.11077C5.06792 7.11282 4.84219 7.20747 4.67532 7.37434C4.50845 7.54121 4.4138 7.76694 4.41175 8.00292C4.4097 8.23889 4.50041 8.46624 4.66436 8.63598L6.46436 10.436C6.63313 10.6047 6.86201 10.6995 7.10066 10.6995C7.3393 10.6995 7.56818 10.6047 7.73696 10.436L11.337 6.83598Z" fill="#059459"/>
</svg>
