<svg width="28" height="31" viewBox="0 0 28 31" fill="none" xmlns="http://www.w3.org/2000/svg">
<mask id="mask0_320_3004" style="mask-type:alpha" maskUnits="userSpaceOnUse" x="0" y="0" width="28" height="31">
<rect width="28" height="31" fill="#D9D9D9"/>
</mask>
<g mask="url(#mask0_320_3004)">
<path d="M24 30C25.1046 30 26.0157 29.0994 25.8465 28.0079C25.688 26.9862 25.4079 25.9847 25.0104 25.0251C24.3571 23.4479 23.3995 22.0148 22.1924 20.8076C20.9852 19.6005 19.5521 18.6429 17.9749 17.9896C16.3977 17.3363 14.7072 17 13 17C11.2928 17 9.60235 17.3363 8.02511 17.9896C6.44788 18.6429 5.01477 19.6005 3.80761 20.8076C2.60045 22.0148 1.64288 23.4479 0.989566 25.0251C0.592094 25.9847 0.311979 26.9862 0.153545 28.0079C-0.0157215 29.0994 0.895431 30 2 30L13 30H24Z" fill="white"/>
<circle cx="13" cy="8" r="6.5" fill="white" stroke="#0A61B4" stroke-width="3"/>
<mask id="path-4-inside-1_320_3004" fill="white">
<path d="M24 30C25.1046 30 26.0157 29.0994 25.8465 28.0079C25.688 26.9862 25.4079 25.9847 25.0104 25.0251C24.3571 23.4479 23.3995 22.0148 22.1924 20.8076C20.9852 19.6005 19.5521 18.6429 17.9749 17.9896C16.3977 17.3363 14.7072 17 13 17C11.2928 17 9.60235 17.3363 8.02511 17.9896C6.44788 18.6429 5.01477 19.6005 3.80761 20.8076C2.60045 22.0148 1.64288 23.4479 0.989566 25.0251C0.592094 25.9847 0.311979 26.9862 0.153545 28.0079C-0.0157215 29.0994 0.895431 30 2 30L13 30H24Z"/>
</mask>
<path d="M24 30C25.1046 30 26.0157 29.0994 25.8465 28.0079C25.688 26.9862 25.4079 25.9847 25.0104 25.0251C24.3571 23.4479 23.3995 22.0148 22.1924 20.8076C20.9852 19.6005 19.5521 18.6429 17.9749 17.9896C16.3977 17.3363 14.7072 17 13 17C11.2928 17 9.60235 17.3363 8.02511 17.9896C6.44788 18.6429 5.01477 19.6005 3.80761 20.8076C2.60045 22.0148 1.64288 23.4479 0.989566 25.0251C0.592094 25.9847 0.311979 26.9862 0.153545 28.0079C-0.0157215 29.0994 0.895431 30 2 30L13 30H24Z" fill="white" stroke="#0A61B4" stroke-width="6" mask="url(#path-4-inside-1_320_3004)"/>
<circle cx="21" cy="24" r="7" fill="#20976C"/>
<path d="M21 24V28" stroke="white" stroke-width="2" stroke-linecap="round"/>
<circle cx="21" cy="21" r="1" fill="white"/>
</g>
</svg>
