<svg width="20" height="21" viewBox="0 0 20 21" fill="none" xmlns="http://www.w3.org/2000/svg">
<g clip-path="url(#clip0_1735_16101)">
<path d="M10 1.82349C12.6719 1.82349 12.9883 1.8352 14.0391 1.88208C15.0156 1.92505 15.543 2.08911 15.8945 2.22583C16.3594 2.40552 16.6953 2.62427 17.043 2.97192C17.3945 3.32349 17.6094 3.65552 17.7891 4.12036C17.9258 4.47192 18.0898 5.00317 18.1328 5.97583C18.1797 7.03052 18.1914 7.34692 18.1914 10.0149C18.1914 12.6868 18.1797 13.0032 18.1328 14.054C18.0898 15.0305 17.9258 15.5579 17.7891 15.9094C17.6094 16.3743 17.3906 16.7102 17.043 17.0579C16.6914 17.4094 16.3594 17.6243 15.8945 17.804C15.543 17.9407 15.0117 18.1047 14.0391 18.1477C12.9844 18.1946 12.668 18.2063 10 18.2063C7.32813 18.2063 7.01172 18.1946 5.96094 18.1477C4.98438 18.1047 4.45703 17.9407 4.10547 17.804C3.64063 17.6243 3.30469 17.4055 2.95703 17.0579C2.60547 16.7063 2.39063 16.3743 2.21094 15.9094C2.07422 15.5579 1.91016 15.0266 1.86719 14.054C1.82031 12.9993 1.80859 12.6829 1.80859 10.0149C1.80859 7.34302 1.82031 7.02661 1.86719 5.97583C1.91016 4.99927 2.07422 4.47192 2.21094 4.12036C2.39063 3.65552 2.60938 3.31958 2.95703 2.97192C3.30859 2.62036 3.64063 2.40552 4.10547 2.22583C4.45703 2.08911 4.98828 1.92505 5.96094 1.88208C7.01172 1.8352 7.32813 1.82349 10 1.82349ZM10 0.0227051C7.28516 0.0227051 6.94531 0.0344238 5.87891 0.0812988C4.81641 0.128174 4.08594 0.300049 3.45313 0.546143C2.79297 0.803955 2.23438 1.1438 1.67969 1.70239C1.12109 2.25708 0.78125 2.81567 0.523438 3.47192C0.277344 4.10864 0.105469 4.83521 0.0585938 5.89771C0.0117188 6.96802 0 7.30786 0 10.0227C0 12.7375 0.0117188 13.0774 0.0585938 14.1438C0.105469 15.2063 0.277344 15.9368 0.523438 16.5696C0.78125 17.2297 1.12109 17.7883 1.67969 18.343C2.23438 18.8977 2.79297 19.2415 3.44922 19.4954C4.08594 19.7415 4.8125 19.9133 5.875 19.9602C6.94141 20.0071 7.28125 20.0188 9.99609 20.0188C12.7109 20.0188 13.0508 20.0071 14.1172 19.9602C15.1797 19.9133 15.9102 19.7415 16.543 19.4954C17.1992 19.2415 17.7578 18.8977 18.3125 18.343C18.8672 17.7883 19.2109 17.2297 19.4648 16.5735C19.7109 15.9368 19.8828 15.2102 19.9297 14.1477C19.9766 13.0813 19.9883 12.7415 19.9883 10.0266C19.9883 7.31177 19.9766 6.97192 19.9297 5.90552C19.8828 4.84302 19.7109 4.11255 19.4648 3.47974C19.2188 2.81567 18.8789 2.25708 18.3203 1.70239C17.7656 1.14771 17.207 0.803955 16.5508 0.550049C15.9141 0.303955 15.1875 0.13208 14.125 0.0852051C13.0547 0.0344238 12.7148 0.0227051 10 0.0227051Z" fill="#2F4356"/>
<path d="M10 4.88599C7.16406 4.88599 4.86328 7.18677 4.86328 10.0227C4.86328 12.8586 7.16406 15.1594 10 15.1594C12.8359 15.1594 15.1367 12.8586 15.1367 10.0227C15.1367 7.18677 12.8359 4.88599 10 4.88599ZM10 13.3547C8.16016 13.3547 6.66797 11.8625 6.66797 10.0227C6.66797 8.18286 8.16016 6.69067 10 6.69067C11.8398 6.69067 13.332 8.18286 13.332 10.0227C13.332 11.8625 11.8398 13.3547 10 13.3547Z" fill="#2F4356"/>
<path d="M16.5391 4.68286C16.5391 5.34693 16 5.88208 15.3398 5.88208C14.6758 5.88208 14.1406 5.34302 14.1406 4.68286C14.1406 4.0188 14.6797 3.48364 15.3398 3.48364C16 3.48364 16.5391 4.02271 16.5391 4.68286Z" fill="#2F4356"/>
</g>
<defs>
<clipPath id="clip0_1735_16101">
<rect width="20" height="20" fill="white" transform="translate(0 0.0227051)"/>
</clipPath>
</defs>
</svg>
