<svg width="25" height="24" viewBox="0 0 25 24" fill="none" xmlns="http://www.w3.org/2000/svg">
<path d="M5.48487 7.19631C6.69327 7.19631 7.67287 6.21671 7.67287 5.00831C7.67287 3.79991 6.69327 2.82031 5.48487 2.82031C4.27648 2.82031 3.29688 3.79991 3.29688 5.00831C3.29688 6.21671 4.27648 7.19631 5.48487 7.19631Z" fill="#2F4356"/>
<path d="M9.73575 8.85469V20.9937H13.5047V14.9907C13.5047 13.4067 13.8027 11.8727 15.7667 11.8727C17.7037 11.8727 17.7277 13.6837 17.7277 15.0907V20.9947H21.4988V14.3377C21.4988 11.0677 20.7948 8.55469 16.9728 8.55469C15.1378 8.55469 13.9078 9.56169 13.4047 10.5147H13.3537V8.85469H9.73575ZM3.59375 8.85469H7.36875V20.9937H3.59375V8.85469Z" fill="#2F4356"/>
</svg>
