<svg width="197" height="39" viewBox="0 0 197 39" fill="none" xmlns="http://www.w3.org/2000/svg">
<path d="M32.2192 32.5166C39.5909 25.1451 39.6756 13.0978 32.3039 5.72629C25.2612 -1.66117 12.865 -2.15278 5.17023 5.72738C4.51915 6.39471 3.27116 7.98183 2.67426 8.88084C0.827392 11.6647 0 15.2304 0 15.9208C0.154644 20.7106 5.84595 20.2986 6.52559 17.2047C6.9255 14.6509 8.10946 12.1961 10.0765 10.2284C15.0143 5.29063 23.0203 5.29063 27.9581 10.2284C32.8959 15.1663 32.8959 23.172 27.9581 28.1098C27.1061 28.9619 25.4523 30.3753 22.9051 31.1912C18.8912 31.7791 18.8715 28.1581 18.8715 28.1581C18.8715 28.1581 18.7405 25.8793 20.941 25.1465C21.8541 24.8424 22.712 24.3244 23.4419 23.5939C24.6564 22.3797 25.2671 20.7907 25.275 19.1992C25.2829 17.5878 24.6722 15.9739 23.4419 14.7443C20.9981 12.3005 17.0365 12.3005 14.5927 14.7443C13.3821 15.9553 12.7705 17.5391 12.7596 19.1263C12.7488 20.7419 12.735 33.7671 12.7714 36.3893C12.7714 36.3893 12.7714 36.8018 12.7714 37.0436C13.8825 37.426 15.4516 38.0367 18.8242 38.0452C23.6704 38.0573 28.5215 36.2145 32.2192 32.5166Z" fill="#065936"/>
<path fill-rule="evenodd" clip-rule="evenodd" d="M47.4392 19.1193C47.4392 19.1193 47.3713 27.7692 47.451 30.9846C47.5318 34.2 52.1229 34.264 52.2499 30.9846V27.8211V19.1705V19.1193C52.2499 17.6056 52.8626 16.2405 53.8565 15.2515C54.8454 14.2624 56.2155 13.6495 57.7245 13.6495C59.2385 13.6495 60.6027 14.2624 61.5966 15.2515C62.5855 16.2405 63.1991 17.6102 63.1991 19.1193C63.1991 20.6332 62.5855 22.0029 61.5966 22.992C60.6726 23.916 59.4148 24.5104 58.021 24.5847C57.3542 24.62 56.7267 24.5981 56.1702 24.6817C53.1148 24.8257 52.9227 29.3208 56.1702 29.4889C56.315 29.4898 56.4696 29.4821 56.6341 29.4649C59.4759 29.4649 63.1381 28.253 64.9958 26.391C66.8574 24.5336 68.0099 21.9612 68.0099 19.1193C68.0099 16.2823 66.8574 13.7099 64.9958 11.8478C63.1381 9.98578 60.5663 8.83423 57.7245 8.83423C54.8868 8.83423 52.3149 9.98578 50.4523 11.8478C48.5907 13.7099 47.4392 16.2823 47.4392 19.1193Z" fill="#065936"/>
<path d="M87.6685 29.5289C89.0032 29.5289 90.0798 28.4153 90.0798 27.0725V19.1193C90.0798 16.2823 88.9283 13.7099 87.0706 11.8478C85.209 9.98578 82.6362 8.83423 79.7944 8.83423C76.9577 8.83423 74.3849 9.98578 72.5232 11.8478C70.6655 13.7099 69.5091 16.2823 69.5091 19.1193C69.5091 21.9612 70.6655 24.5336 72.5232 26.391C74.8173 28.6854 78.1308 29.6409 81.3261 29.5289C82.6608 29.5289 83.7423 28.4473 83.7423 27.1133C83.7423 25.7792 82.6608 24.6977 81.3261 24.6977C80.6977 24.6977 80.0653 24.6217 79.432 24.5801C78.0678 24.4918 76.8365 23.9021 75.9264 22.992C74.9374 22.0029 74.3248 20.6332 74.3248 19.1193C74.3248 17.6103 74.9374 16.2405 75.9264 15.2515C76.9153 14.2624 78.2854 13.6495 79.7944 13.6495C81.3084 13.6495 82.6785 14.2624 83.6675 15.2515C84.6564 16.2405 85.269 17.6056 85.269 19.1193V27.0725C85.269 28.4153 86.3348 29.5289 87.6685 29.5289Z" fill="#065936"/>
<path d="M92.092 9.57705C93.0307 8.64131 94.5525 8.64131 95.4912 9.57705L95.5946 9.68048C96.1699 10.2561 98.9003 12.9864 101.747 15.8304C104.834 12.7402 107.747 9.82783 107.986 9.58779C108.923 8.6485 110.44 8.6485 111.376 9.58779C112.313 10.5267 112.313 12.0487 111.376 12.9877C111.139 13.2257 108.22 16.1424 105.145 19.2198C108.13 22.2007 110.966 25.0378 111.359 25.4296L111.389 25.46C112.328 26.3961 112.328 27.9143 111.389 28.8505C110.449 29.7862 108.928 29.7862 107.989 28.8505C107.75 28.6125 104.832 25.696 101.755 22.6212C98.6688 25.7099 95.7257 28.6531 95.4942 28.8851C94.5575 29.8244 93.0396 29.8242 92.1029 28.8849C91.1671 27.9459 91.1671 26.4241 92.1029 25.4852C92.293 25.2955 95.2529 22.3327 98.3546 19.2273C95.2568 16.1322 92.3245 13.2001 92.091 12.9675C91.1523 12.0314 91.1523 10.5132 92.092 9.57705Z" fill="#065936"/>
<path d="M115.7 19.6927H113.614C112.281 19.6927 111.199 18.6112 111.199 17.2771C111.199 15.943 112.281 14.8615 113.614 14.8615C114.071 14.8191 115.151 14.8615 115.71 14.8615C115.71 12.0244 116.936 9.50834 118.797 7.64641C120.655 5.78437 123.228 4.63281 126.07 4.63281C128.141 4.63281 130.896 4.80952 130.896 7.32106C130.896 8.65514 129.814 9.73667 128.48 9.73667C128.108 9.73667 127.403 9.46195 125.637 9.46195C124.3 9.56872 123.093 10.1538 122.197 11.05C121.208 12.0391 120.531 13.3524 120.531 14.8615H124.252C125.586 14.8615 126.667 15.943 126.667 17.2771C126.667 18.6112 125.586 19.6927 124.252 19.6927H120.531V27.1728C120.531 28.5069 119.449 29.5884 118.115 29.5884C116.781 29.5884 115.7 28.5069 115.7 27.1728V19.6927Z" fill="#065936"/>
<path d="M151.562 19.4877C151.562 16.567 152.751 13.9156 154.674 11.9933C156.582 10.0755 159.233 8.89145 162.168 8.89145C164.071 8.80743 165.415 9.57503 165.48 11.4104C165.48 12.7662 164.381 13.8653 163.025 13.8653C162.567 13.8738 161.954 13.8182 161.49 13.8738C160.203 14.0317 159.052 14.6215 158.174 15.4944H158.165C157.153 16.5113 156.522 17.9229 156.522 19.4877V27.1303C156.522 28.4861 155.422 29.5852 154.066 29.5852C152.711 29.5852 151.569 28.4861 151.569 27.1303L151.562 19.4877Z" fill="#065936"/>
<path d="M175.502 8.88574C170.652 8.88574 166.72 12.8177 166.72 17.6682C166.72 17.6682 166.72 26.2095 166.72 27.1642C166.72 28.5017 167.779 29.5924 169.116 29.5924C170.453 29.5924 171.538 28.5081 171.538 27.1706L171.536 17.6792C171.536 15.4943 173.325 13.7121 175.502 13.7121C177.68 13.7121 179.446 15.4832 179.446 17.6682C179.446 17.6682 179.451 26.2095 179.451 27.1642C179.451 28.5017 180.51 29.5924 181.848 29.5924C183.185 29.5924 184.269 28.5081 184.269 27.1706V17.6792C184.269 15.4943 186.055 13.7121 188.234 13.7121C190.411 13.7121 192.177 15.4832 192.177 17.6682C192.177 17.6682 192.182 26.2095 192.182 27.1642C192.182 28.5017 193.241 29.5924 194.578 29.5924C195.916 29.5924 197 28.5081 197 27.1706V17.6792C197 12.8287 193.084 8.88574 188.234 8.88574C185.717 8.88574 183.451 9.93939 181.851 11.6349C180.255 9.95682 178.001 8.88574 175.502 8.88574Z" fill="#065936"/>
<path fill-rule="evenodd" clip-rule="evenodd" d="M132.023 11.8992C130.161 13.7613 129.01 16.3337 129.01 19.1709C129.01 22.0126 130.161 24.5851 132.023 26.4424C133.884 28.3044 136.452 29.456 139.294 29.456C142.136 29.456 144.704 28.3044 146.566 26.4424C148.428 24.5851 149.579 22.0126 149.579 19.1709C149.579 16.3337 148.428 13.7613 146.566 11.8992C144.704 10.0373 142.136 8.88574 139.294 8.88574C136.452 8.88574 133.884 10.0373 132.023 11.8992ZM139.294 13.7009C140.808 13.7009 142.173 14.3139 143.162 15.3029C144.156 16.2919 144.769 17.6618 144.769 19.1709C144.769 20.6846 144.156 22.0543 143.162 23.0435C142.173 24.0325 140.808 24.6454 139.294 24.6454C137.781 24.6454 136.416 24.0325 135.422 23.0435C134.433 22.0543 133.819 20.6846 133.819 19.1709C133.819 17.6571 134.433 16.2919 135.422 15.3029C136.416 14.3139 137.781 13.7009 139.294 13.7009Z" fill="#065936"/>
</svg>
