<svg width="173" height="34" viewBox="0 0 173 34" xmlns="http://www.w3.org/2000/svg">
<path d="M28.294 28.5552C34.7676 22.0817 34.842 11.5021 28.3684 5.02867C22.1837 -1.45879 11.2977 -1.89051 4.54036 5.02963C3.96859 5.61566 2.87265 7.00943 2.34846 7.79891C0.726593 10.2436 0 13.3749 0 13.9812C0.135804 18.1875 5.13375 17.8257 5.7306 15.1087C6.08178 12.8661 7.12151 10.7103 8.8489 8.98231C13.1851 4.64609 20.2158 4.64609 24.552 8.98231C28.8883 13.3186 28.8883 20.349 24.552 24.6853C23.8038 25.4336 22.3515 26.6748 20.1146 27.3912C16.5898 27.9075 16.5724 24.7276 16.5724 24.7276C16.5724 24.7276 16.4574 22.7265 18.3898 22.0829C19.1917 21.8159 19.9451 21.361 20.586 20.7195C21.6526 19.6532 22.1889 18.2578 22.1958 16.8603C22.2027 15.4451 21.6664 14.0278 20.586 12.9481C18.44 10.802 14.961 10.802 12.8149 12.9481C11.7518 14.0115 11.2147 15.4024 11.2051 16.7962C11.1956 18.215 11.1835 29.6534 11.2155 31.9561C11.2155 31.9561 11.2155 32.3183 11.2155 32.5307C12.1913 32.8665 13.5692 33.4028 16.5309 33.4102C20.7867 33.4209 25.0468 31.8025 28.294 28.5552Z" fill="white"/>
<path fill-rule="evenodd" clip-rule="evenodd" d="M41.6598 16.7902C41.6598 16.7902 41.6001 24.3862 41.6702 27.2099C41.7411 30.0336 45.7729 30.0898 45.8845 27.2099V24.4318V16.8351V16.7902C45.8845 15.4608 46.4225 14.262 47.2953 13.3935C48.1637 12.525 49.3669 11.9867 50.6921 11.9867C52.0216 11.9867 53.2196 12.525 54.0924 13.3935C54.9608 14.262 55.4997 15.4649 55.4997 16.7902C55.4997 18.1196 54.9608 19.3224 54.0924 20.191C53.281 21.0024 52.1764 21.5245 50.9525 21.5897C50.3669 21.6206 49.8159 21.6014 49.3271 21.6749C46.6439 21.8013 46.4752 25.7488 49.3271 25.8964C49.4543 25.8972 49.5901 25.8904 49.7345 25.8753C52.2301 25.8753 55.4461 24.8111 57.0775 23.1759C58.7123 21.5448 59.7244 19.2858 59.7244 16.7902C59.7244 14.2987 58.7123 12.0397 57.0775 10.4045C55.4461 8.76932 53.1876 7.75806 50.6921 7.75806C48.2 7.75806 45.9415 8.76932 44.3058 10.4045C42.671 12.0397 41.6598 14.2987 41.6598 16.7902Z" fill="white"/>
<path d="M76.9881 25.9315C78.1601 25.9315 79.1056 24.9536 79.1056 23.7744V16.7902C79.1056 14.2987 78.0944 12.0397 76.463 10.4045C74.8282 8.76932 72.5688 7.75806 70.0733 7.75806C67.5821 7.75806 65.3228 8.76932 63.6879 10.4045C62.0565 12.0397 61.041 14.2987 61.041 16.7902C61.041 19.2858 62.0565 21.5448 63.6879 23.1759C65.7025 25.1908 68.6123 26.0299 71.4184 25.9315C72.5904 25.9315 73.5402 24.9818 73.5402 23.8102C73.5402 22.6387 72.5904 21.6889 71.4184 21.6889C70.8665 21.6889 70.3112 21.6222 69.755 21.5856C68.557 21.5081 67.4757 20.9902 66.6765 20.191C65.808 19.3224 65.27 18.1196 65.27 16.7902C65.27 15.465 65.808 14.262 66.6765 13.3935C67.5449 12.525 68.7481 11.9867 70.0733 11.9867C71.4028 11.9867 72.606 12.525 73.4745 13.3935C74.3429 14.262 74.8809 15.4608 74.8809 16.7902V23.7744C74.8809 24.9536 75.8169 25.9315 76.9881 25.9315Z" fill="white"/>
<path d="M80.8727 8.41025C81.697 7.58851 83.0335 7.58851 83.8578 8.41025L83.9486 8.50108C84.4538 9.00658 86.8515 11.4043 89.3514 13.9018C92.0623 11.188 94.6201 8.63048 94.8303 8.41968C95.6529 7.59482 96.9858 7.59482 97.8076 8.41968C98.6302 9.2442 98.6302 10.5808 97.8076 11.4054C97.5991 11.6144 95.0361 14.1758 92.3356 16.8782C94.9565 19.496 97.4477 21.9875 97.792 22.3315L97.8188 22.3582C98.6432 23.1803 98.6432 24.5135 97.8188 25.3356C96.9936 26.1574 95.6572 26.1574 94.8328 25.3356C94.6235 25.1266 92.0605 22.5655 89.3583 19.8653C86.6483 22.5777 84.0637 25.1623 83.8604 25.3661C83.0378 26.1909 81.7048 26.1908 80.8822 25.3659C80.0605 24.5413 80.0605 23.2049 80.8822 22.3804C81.0492 22.2138 83.6485 19.6119 86.3723 16.8849C83.6519 14.1668 81.0768 11.5919 80.8718 11.3877C80.0475 10.5656 80.0475 9.23235 80.8727 8.41025Z" fill="white"/>
<path d="M101.604 17.2935H99.7729C98.6017 17.2935 97.652 16.3438 97.652 15.1722C97.652 14.0007 98.6017 13.0509 99.7729 13.0509C100.174 13.0137 101.122 13.0509 101.614 13.0509C101.614 10.5595 102.69 8.34992 104.325 6.71481C105.956 5.07963 108.215 4.06836 110.711 4.06836C112.53 4.06836 114.949 4.22354 114.949 6.42911C114.949 7.60066 114 8.55042 112.827 8.55042C112.501 8.55042 111.882 8.30918 110.331 8.30918C109.157 8.40294 108.097 8.91675 107.31 9.70372C106.441 10.5723 105.847 11.7256 105.847 13.0509H109.115C110.286 13.0509 111.236 14.0007 111.236 15.1722C111.236 16.3438 110.286 17.2935 109.115 17.2935H105.847V23.8624C105.847 25.034 104.897 25.9836 103.725 25.9836C102.554 25.9836 101.604 25.034 101.604 23.8624V17.2935Z" fill="white"/>
<path d="M133.098 17.1135C133.098 14.5486 134.142 12.2203 135.83 10.5321C137.506 8.84798 139.834 7.80817 142.411 7.80817C144.082 7.73439 145.263 8.40848 145.32 10.0202C145.32 11.2109 144.355 12.1761 143.164 12.1761C142.762 12.1836 142.223 12.1347 141.816 12.1836C140.686 12.3222 139.675 12.8401 138.904 13.6067H138.897C138.007 14.4997 137.453 15.7393 137.453 17.1135V23.825C137.453 25.0157 136.488 25.9809 135.296 25.9809C134.106 25.9809 133.104 25.0157 133.104 23.825L133.098 17.1135Z" fill="white"/>
<path d="M154.121 7.80322C149.862 7.80322 146.409 11.2562 146.409 15.5157C146.409 15.5157 146.409 23.0165 146.409 23.8549C146.409 25.0294 147.339 25.9872 148.513 25.9872C149.687 25.9872 150.64 25.0351 150.64 23.8605L150.638 15.5254C150.638 13.6066 152.209 12.0416 154.121 12.0416C156.034 12.0416 157.585 13.597 157.585 15.5157C157.585 15.5157 157.589 23.0165 157.589 23.8549C157.589 25.0294 158.519 25.9872 159.694 25.9872C160.868 25.9872 161.82 25.0351 161.82 23.8605V15.5254C161.82 13.6066 163.388 12.0416 165.302 12.0416C167.214 12.0416 168.765 13.597 168.765 15.5157C168.765 15.5157 168.769 23.0165 168.769 23.8549C168.769 25.0294 169.699 25.9872 170.873 25.9872C172.048 25.9872 173 25.0351 173 23.8605V15.5254C173 11.2658 169.561 7.80322 165.302 7.80322C163.091 7.80322 161.102 8.72851 159.696 10.2174C158.295 8.74382 156.316 7.80322 154.121 7.80322Z" fill="white"/>
<path fill-rule="evenodd" clip-rule="evenodd" d="M115.939 10.4496C114.304 12.0848 113.293 14.3438 113.293 16.8353C113.293 19.3308 114.304 21.59 115.939 23.221C117.574 24.8562 119.829 25.8674 122.324 25.8674C124.82 25.8674 127.075 24.8562 128.71 23.221C130.345 21.59 131.356 19.3308 131.356 16.8353C131.356 14.3438 130.345 12.0848 128.71 10.4496C127.075 8.81449 124.82 7.80322 122.324 7.80322C119.829 7.80322 117.574 8.81449 115.939 10.4496ZM122.324 12.0318C123.654 12.0318 124.853 12.57 125.721 13.4386C126.594 14.3071 127.132 15.5101 127.132 16.8353C127.132 18.1647 126.594 19.3675 125.721 20.2361C124.853 21.1047 123.654 21.6429 122.324 21.6429C120.995 21.6429 119.797 21.1047 118.924 20.2361C118.055 19.3675 117.516 18.1647 117.516 16.8353C117.516 15.506 118.055 14.3071 118.924 13.4386C119.797 12.57 120.995 12.0318 122.324 12.0318Z" fill="white"/>
</svg>
