<svg width="48" height="49" viewBox="0 0 48 49" fill="none" xmlns="http://www.w3.org/2000/svg">
<path d="M40.9235 41.3013C50.2868 31.9383 50.3944 16.6363 41.0311 7.27331C32.0858 -2.10995 16.3406 -2.73438 6.56702 7.27469C5.74004 8.12231 4.1549 10.1382 3.39674 11.2801C1.05092 14.8161 0 19.3451 0 20.222C0.196423 26.3058 7.42529 25.7825 8.28855 21.8528C8.79649 18.609 10.3003 15.491 12.7988 12.9917C19.0705 6.71995 29.2395 6.71995 35.5113 12.9917C41.783 19.2636 41.783 29.4322 35.5113 35.704C34.4291 36.7863 32.3285 38.5815 29.0931 39.6178C23.9949 40.3646 23.9698 35.7653 23.9698 35.7653C23.9698 35.7653 23.8035 32.8708 26.5984 31.94C27.7582 31.5538 28.8479 30.8959 29.775 29.968C31.3176 28.4258 32.0933 26.4075 32.1033 24.3861C32.1133 22.3393 31.3376 20.2894 29.775 18.7276C26.671 15.6237 21.6391 15.6237 18.5351 18.7276C16.9975 20.2657 16.2205 22.2775 16.2068 24.2934C16.193 26.3456 16.1755 42.8897 16.2218 46.2202C16.2218 46.2202 16.2218 46.7442 16.2218 47.0513C17.633 47.537 19.626 48.3127 23.9098 48.3235C30.0652 48.3388 36.2269 45.9982 40.9235 41.3013Z" fill="#065936"/>
</svg>
