<svg width="62" height="56" viewBox="0 0 62 56" fill="none" xmlns="http://www.w3.org/2000/svg">
<path d="M56.4375 9.5H44.875V7.1875C44.8674 5.3499 44.134 3.58974 42.8346 2.29035C41.5353 0.990966 39.7751 0.257609 37.9375 0.25H24.0625C22.2249 0.257609 20.4647 0.990966 19.1654 2.29035C17.866 3.58974 17.1326 5.3499 17.125 7.1875V9.5H5.5625C4.33587 9.5 3.15949 9.98728 2.29213 10.8546C1.42478 11.722 0.9375 12.8984 0.9375 14.125V51.125C0.9375 52.3516 1.42478 53.528 2.29213 54.3954C3.15949 55.2627 4.33587 55.75 5.5625 55.75H56.4375C57.6641 55.75 58.8405 55.2627 59.7079 54.3954C60.5752 53.528 61.0625 52.3516 61.0625 51.125V14.125C61.0625 12.8984 60.5752 11.722 59.7079 10.8546C58.8405 9.98728 57.6641 9.5 56.4375 9.5ZM21.75 7.1875C21.75 6.57419 21.9936 5.98599 22.4273 5.55232C22.861 5.11864 23.4492 4.875 24.0625 4.875H37.9375C38.5508 4.875 39.139 5.11864 39.5727 5.55232C40.0064 5.98599 40.25 6.57419 40.25 7.1875V9.5H21.75V7.1875ZM39.0938 34.9375H33.3125V40.7188C33.3125 41.3321 33.0689 41.9203 32.6352 42.3539C32.2015 42.7876 31.6133 43.0312 31 43.0312C30.3867 43.0312 29.7985 42.7876 29.3648 42.3539C28.9311 41.9203 28.6875 41.3321 28.6875 40.7188V34.9375H22.9062C22.2929 34.9375 21.7047 34.6939 21.2711 34.2602C20.8374 33.8265 20.5938 33.2383 20.5938 32.625C20.5938 32.0117 20.8374 31.4235 21.2711 30.9898C21.7047 30.5561 22.2929 30.3125 22.9062 30.3125H28.6875V24.5312C28.6875 23.9179 28.9311 23.3297 29.3648 22.8961C29.7985 22.4624 30.3867 22.2188 31 22.2188C31.6133 22.2188 32.2015 22.4624 32.6352 22.8961C33.0689 23.3297 33.3125 23.9179 33.3125 24.5312V30.3125H39.0938C39.7071 30.3125 40.2953 30.5561 40.7289 30.9898C41.1626 31.4235 41.4062 32.0117 41.4062 32.625C41.4062 33.2383 41.1626 33.8265 40.7289 34.2602C40.2953 34.6939 39.7071 34.9375 39.0938 34.9375Z" fill="white"/>
</svg>
