<svg width="493" height="892" viewBox="0 0 493 892" fill="none" xmlns="http://www.w3.org/2000/svg">
<path d="M308 188L493 206.489V816.489L308 798L308 188Z" fill="url(#paint0_linear_37_71)"/>
<path d="M0 315L120 327V714.5L0 702.5V315Z" fill="url(#paint1_linear_37_71)"/>
<rect x="87" width="331.142" height="679.559" rx="43.991" fill="white" fill-opacity="0.4"/>
<g filter="url(#filter0_f_37_71)">
<path d="M90.5688 43.3255C90.5688 20.8609 108.78 2.64966 131.245 2.64966H373.63C396.694 2.64966 415.391 21.3465 415.391 44.4102V635.974C415.391 658.738 396.937 677.192 374.173 677.192H129.618C108.052 677.192 90.5688 659.709 90.5688 638.143V43.3255Z" stroke="white" stroke-opacity="0.5" stroke-width="0.271173"/>
</g>
<g filter="url(#filter1_f_37_71)">
<path d="M93.009 43.5959C93.009 22.4792 110.128 5.3606 131.244 5.3606H373.631C395.047 5.3606 412.408 22.722 412.408 44.1383V636.245C412.408 657.811 394.925 675.294 373.359 675.294H130.431C109.763 675.294 93.009 658.54 93.009 637.872V43.5959Z" fill="url(#paint2_angular_37_71)" style="mix-blend-mode:color"/>
<path d="M93.009 43.5959C93.009 22.4792 110.128 5.3606 131.244 5.3606H373.631C395.047 5.3606 412.408 22.722 412.408 44.1383V636.245C412.408 657.811 394.925 675.294 373.359 675.294H130.431C109.763 675.294 93.009 658.54 93.009 637.872V43.5959Z" fill="white" fill-opacity="0.2"/>
</g>
<g filter="url(#filter2_f_37_71)">
<path d="M93.2802 44.1383C93.2802 23.0215 110.399 5.90302 131.516 5.90302H373.36C394.776 5.90302 412.137 23.2644 412.137 44.6807V635.703C412.137 657.269 394.654 674.752 373.088 674.752H130.702C110.035 674.752 93.2802 657.998 93.2802 637.33V44.1383Z" fill="url(#paint3_angular_37_71)" style="mix-blend-mode:color"/>
</g>
<path d="M98.1607 43.8662C98.1607 25.2954 113.215 10.2408 131.786 10.2408H374.445C392.566 10.2408 407.257 24.9312 407.257 43.0527V636.788C407.257 655.509 392.081 670.685 373.36 670.685H126.905C111.03 670.685 98.1607 657.816 98.1607 641.941V43.8662Z" fill="white"/>
<path d="M104 41.8446C104 28.1233 115.123 17 128.845 17H377.024C390.619 17 401.641 28.0213 401.641 41.6167V637.759C401.641 651.984 390.109 663.515 375.884 663.515H129.073C115.225 663.515 104 652.29 104 638.443V41.8446Z" fill="url(#paint4_linear_37_71)"/>
<path d="M272.578 140.008C283.235 129.351 283.357 111.935 272.7 101.278C262.519 90.5985 244.598 89.8878 233.474 101.28C232.533 102.245 230.729 104.539 229.866 105.839C227.196 109.863 226 115.018 226 116.016C226.224 122.94 234.451 122.345 235.434 117.872C236.012 114.18 237.723 110.631 240.567 107.787C247.705 100.648 259.279 100.648 266.418 107.787C273.556 114.925 273.556 126.499 266.418 133.637C265.186 134.869 262.795 136.912 259.113 138.091C253.31 138.941 253.282 133.707 253.282 133.707C253.282 133.707 253.092 130.412 256.273 129.353C257.593 128.913 258.834 128.164 259.889 127.108C261.644 125.353 262.527 123.056 262.539 120.755C262.55 118.426 261.667 116.093 259.889 114.315C256.356 110.782 250.629 110.782 247.096 114.315C245.346 116.066 244.462 118.355 244.446 120.65C244.43 122.986 244.41 141.815 244.463 145.606C244.463 145.606 244.463 146.202 244.463 146.552C246.069 147.105 248.338 147.988 253.213 148C260.219 148.017 267.232 145.353 272.578 140.008Z" fill="#065936"/>
<path d="M103.811 632.79C103.539 643.228 103.811 670.205 151.259 663.698C125.095 670.882 89.8199 669.554 103.811 632.79Z" fill="white"/>
<path d="M401.451 630.079C401.451 665.324 374.676 663.147 371.423 663.608C368.576 666.319 414.737 667.764 401.451 630.079Z" fill="white"/>
<path d="M103.811 43.3793C104.082 35.1102 109.721 18.2846 130.111 17.0917C120.621 16.1428 102.075 20.0632 103.811 43.3793Z" fill="white"/>
<path fill-rule="evenodd" clip-rule="evenodd" d="M278.693 258.376C279.741 255.371 281.94 252.906 284.806 251.522L349.645 220.217C352.511 218.834 355.809 218.645 358.814 219.693C361.819 220.741 364.285 222.94 365.669 225.806L366.538 227.607C367.499 229.597 366.665 231.988 364.675 232.949L285.428 271.21C283.439 272.17 281.047 271.336 280.087 269.347L279.217 267.546C277.834 264.68 277.645 261.381 278.693 258.376ZM288.783 287.357C287.822 285.368 288.656 282.977 290.646 282.016L369.893 243.755C371.882 242.795 374.273 243.629 375.234 245.618L386.538 269.032C387.922 271.898 388.111 275.196 387.062 278.202C386.014 281.207 383.815 283.672 380.949 285.056L316.111 316.36C313.245 317.744 309.946 317.933 306.941 316.884C303.936 315.836 301.471 313.637 300.087 310.771L288.783 287.357ZM308.023 295.566C307.499 297.069 307.593 298.718 308.285 300.151C308.977 301.584 310.209 302.683 311.712 303.207C313.214 303.731 314.864 303.637 316.297 302.945L321.7 300.337C323.133 299.645 324.232 298.412 324.756 296.909C325.28 295.407 325.186 293.758 324.494 292.325C323.802 290.892 322.57 289.792 321.067 289.268C319.565 288.744 317.915 288.838 316.482 289.53L311.079 292.139C309.646 292.831 308.547 294.063 308.023 295.566ZM329.635 285.131C330.16 283.629 331.259 282.396 332.692 281.704L338.095 279.095C339.528 278.403 341.177 278.309 342.68 278.833C344.182 279.357 345.415 280.457 346.107 281.89C346.799 283.323 346.893 284.972 346.369 286.475C345.845 287.977 344.746 289.21 343.313 289.902L337.909 292.51C336.476 293.202 334.827 293.297 333.325 292.772C331.822 292.248 330.589 291.149 329.898 289.716C329.206 288.283 329.111 286.634 329.635 285.131Z" fill="url(#paint5_linear_37_71)"/>
<path d="M284.806 251.522C281.94 252.906 279.741 255.371 278.693 258.376C277.645 261.381 277.834 264.68 279.217 267.546L281.826 272.949L368.277 231.21L365.669 225.806C364.285 222.94 361.819 220.741 358.814 219.693C355.809 218.645 352.511 218.834 349.645 220.217L284.806 251.522Z" fill="#359BFB"/>
<path fill-rule="evenodd" clip-rule="evenodd" d="M124.959 370.238C123.45 372.773 123.01 375.804 123.735 378.664L133.991 419.102C134.535 421.247 135.909 423.088 137.811 424.22C139.712 425.352 141.985 425.683 144.13 425.139C146.275 424.595 148.116 423.221 149.248 421.319C150.38 419.418 150.711 417.145 150.167 415L148.115 406.912C147.027 402.622 147.688 398.076 149.952 394.273C152.216 390.47 155.898 387.722 160.188 386.634L203.323 375.694L201.955 370.302C201.23 367.442 199.398 364.987 196.863 363.478C194.327 361.969 191.296 361.528 188.436 362.254L166.869 367.724L153.351 359.675L131.784 365.145C128.924 365.871 126.469 367.702 124.959 370.238ZM154.732 397.118C153.222 399.653 152.782 402.684 153.507 405.544L156.242 416.328C156.968 419.188 156.527 422.219 155.018 424.754C153.508 427.289 151.054 429.121 148.194 429.847L212.895 413.436C215.755 412.711 218.21 410.879 219.719 408.344C221.229 405.809 221.669 402.778 220.944 399.918L218.209 389.134C217.483 386.274 215.651 383.82 213.116 382.31C210.581 380.801 207.55 380.36 204.69 381.086L161.556 392.026C158.696 392.751 156.241 394.583 154.732 397.118Z" fill="url(#paint6_linear_37_71)"/>
<path fill-rule="evenodd" clip-rule="evenodd" d="M123.735 378.664C123.01 375.804 123.45 372.773 124.96 370.238C126.469 367.702 128.924 365.871 131.784 365.145L153.351 359.675L166.869 367.724L188.436 362.254C191.296 361.528 194.327 361.969 196.863 363.478C199.398 364.988 201.23 367.442 201.955 370.302L203.323 375.694L160.188 386.634C155.898 387.722 152.216 390.47 149.952 394.273C147.688 398.076 147.027 402.622 148.116 406.912L150.167 415C150.711 417.145 150.38 419.418 149.248 421.319C148.116 423.221 146.275 424.595 144.13 425.139C141.985 425.683 139.712 425.352 137.811 424.22C135.909 423.088 134.535 421.247 133.991 419.102L123.735 378.664Z" fill="#359BFB"/>
<path fill-rule="evenodd" clip-rule="evenodd" d="M191.727 273.042L163.32 248.655C163.96 246.616 165.355 244.898 167.219 243.854C169.084 242.809 171.278 242.517 173.351 243.038L222.091 255.265C224.164 255.785 225.96 257.078 227.111 258.879C228.262 260.68 228.681 262.852 228.282 264.952L191.727 273.042ZM189.449 282.124L226.018 274.029L220.024 297.919C219.484 300.074 218.11 301.925 216.204 303.066C214.298 304.208 212.017 304.545 209.863 304.005L161.123 291.777C158.969 291.237 157.117 289.863 155.976 287.957C154.835 286.051 154.498 283.771 155.038 281.616L161.031 257.726L189.449 282.124Z" fill="url(#paint7_linear_37_71)"/>
<path d="M163.32 248.655L191.727 273.042L228.282 264.952C228.681 262.852 228.262 260.68 227.111 258.879C225.96 257.078 224.164 255.785 222.091 255.265L173.351 243.038C171.278 242.517 169.084 242.809 167.219 243.854C165.355 244.898 163.96 246.616 163.32 248.655Z" fill="#359BFB"/>
<g filter="url(#filter3_f_37_71)">
<circle cx="254" cy="352" r="88" fill="white"/>
</g>
<path fill-rule="evenodd" clip-rule="evenodd" d="M261.21 260.542H247.767C235.146 260.542 224.914 270.859 224.914 283.572V307.938C224.914 320.651 235.146 330.968 247.767 330.968H261.21C273.833 330.968 284.065 320.651 284.065 307.938V283.572C284.065 270.859 273.833 260.542 261.21 260.542ZM247.767 247C227.721 247 211.469 263.374 211.469 283.572V307.938C211.469 328.136 227.721 344.51 247.767 344.51H261.21C281.258 344.51 297.508 328.136 297.508 307.938V283.572C297.508 263.374 281.258 247 261.21 247H247.767Z" fill="#095093"/>
<path d="M200 317.887C200 310.402 206.098 304.368 213.622 304.368H295.359C302.881 304.368 308.982 310.402 308.982 317.887V385.481C308.982 392.943 302.881 399 295.359 399H213.622C206.098 399 200 392.943 200 385.481V317.887Z" fill="#359BFB"/>
<path d="M265.963 341.632C265.963 347.988 260.828 353.124 254.492 353.124C248.156 353.124 243.02 347.988 243.02 341.632C243.02 335.298 248.156 330.163 254.492 330.163C260.828 330.163 265.963 335.298 265.963 341.632Z" fill="#095093"/>
<path d="M249.851 346.099C250.181 343.543 252.159 341.632 254.489 341.632C256.822 341.632 258.798 343.543 259.128 346.099L261.594 365.261C262.136 369.452 259.206 373.183 255.395 373.183H253.587C249.773 373.183 246.846 369.452 247.385 365.261L249.851 346.099Z" fill="#095093"/>
<path d="M418.101 162.609H418.643C419.392 162.609 419.999 163.217 419.999 163.965V209.242C419.999 209.99 419.392 210.597 418.643 210.597H418.101V162.609Z" fill="white"/>
<path d="M418.101 162.609H418.643C419.392 162.609 419.999 163.217 419.999 163.965V209.242C419.999 209.99 419.392 210.597 418.643 210.597H418.101V162.609Z" fill="url(#paint8_linear_37_71)"/>
<path d="M418.1 256.959H418.642C419.391 256.959 419.998 257.566 419.998 258.314V348.325C419.998 349.074 419.391 349.681 418.642 349.681H418.1V256.959Z" fill="white"/>
<path fill-rule="evenodd" clip-rule="evenodd" d="M280.037 369.094C298.132 368.869 315.53 362.084 329 350C342.469 362.086 359.867 368.873 377.962 369.1C378.65 373.163 379 377.35 379 381.606C379 414.262 358.125 442.044 329 452.338C299.875 442.038 279 414.256 279 381.6C279 377.337 279.356 373.163 280.037 369.094ZM352.169 392.269C353.307 391.09 353.937 389.511 353.923 387.872C353.909 386.234 353.251 384.666 352.093 383.507C350.934 382.349 349.366 381.691 347.728 381.677C346.089 381.663 344.51 382.293 343.331 383.431L322.75 404.013L314.669 395.931C313.49 394.793 311.911 394.163 310.272 394.177C308.634 394.191 307.066 394.849 305.907 396.007C304.749 397.166 304.091 398.734 304.077 400.372C304.063 402.011 304.693 403.59 305.831 404.769L318.331 417.269C319.503 418.44 321.093 419.099 322.75 419.099C324.407 419.099 325.997 418.44 327.169 417.269L352.169 392.269Z" fill="url(#paint9_linear_37_71)"/>
<path d="M58 485L178 497V884.5L58 872.5V485Z" fill="url(#paint10_linear_37_71)"/>
<path d="M251 590L371 602V989.5L251 977.5V590Z" fill="url(#paint11_linear_37_71)"/>
<defs>
<filter id="filter0_f_37_71" x="89.3485" y="1.42941" width="327.263" height="676.983" filterUnits="userSpaceOnUse" color-interpolation-filters="sRGB">
<feFlood flood-opacity="0" result="BackgroundImageFix"/>
<feBlend mode="normal" in="SourceGraphic" in2="BackgroundImageFix" result="shape"/>
<feGaussianBlur stdDeviation="0.542345" result="effect1_foregroundBlur_37_71"/>
</filter>
<filter id="filter1_f_37_71" x="92.4667" y="4.81825" width="320.484" height="671.018" filterUnits="userSpaceOnUse" color-interpolation-filters="sRGB">
<feFlood flood-opacity="0" result="BackgroundImageFix"/>
<feBlend mode="normal" in="SourceGraphic" in2="BackgroundImageFix" result="shape"/>
<feGaussianBlur stdDeviation="0.271173" result="effect1_foregroundBlur_37_71"/>
</filter>
<filter id="filter2_f_37_71" x="92.7379" y="5.36067" width="319.942" height="669.934" filterUnits="userSpaceOnUse" color-interpolation-filters="sRGB">
<feFlood flood-opacity="0" result="BackgroundImageFix"/>
<feBlend mode="normal" in="SourceGraphic" in2="BackgroundImageFix" result="shape"/>
<feGaussianBlur stdDeviation="0.271173" result="effect1_foregroundBlur_37_71"/>
</filter>
<filter id="filter3_f_37_71" x="56.126" y="154.126" width="395.748" height="395.748" filterUnits="userSpaceOnUse" color-interpolation-filters="sRGB">
<feFlood flood-opacity="0" result="BackgroundImageFix"/>
<feBlend mode="normal" in="SourceGraphic" in2="BackgroundImageFix" result="shape"/>
<feGaussianBlur stdDeviation="54.937" result="effect1_foregroundBlur_37_71"/>
</filter>
<linearGradient id="paint0_linear_37_71" x1="400.5" y1="-1341.34" x2="400.5" y2="937.5" gradientUnits="userSpaceOnUse">
<stop stop-color="#059459" stop-opacity="0.53"/>
<stop offset="1" stop-color="#059459" stop-opacity="0"/>
</linearGradient>
<linearGradient id="paint1_linear_37_71" x1="60" y1="-63.7852" x2="60" y2="722.033" gradientUnits="userSpaceOnUse">
<stop stop-color="#1C85E8" stop-opacity="0.53"/>
<stop offset="1" stop-color="#1C85E8" stop-opacity="0"/>
</linearGradient>
<radialGradient id="paint2_angular_37_71" cx="0" cy="0" r="1" gradientUnits="userSpaceOnUse" gradientTransform="translate(252.709 340.327) rotate(90) scale(334.967 180.229)">
<stop offset="0.000303672" stop-color="#EAEAEA"/>
<stop offset="0.0904875" stop-color="#EAEAEA"/>
<stop offset="0.111563" stop-color="white"/>
<stop offset="0.136566" stop-color="#EAEAEA"/>
<stop offset="0.404505" stop-color="#EAEAEA"/>
<stop offset="0.596482" stop-color="#EAEAEA"/>
<stop offset="0.607769" stop-color="white"/>
<stop offset="0.614698" stop-color="white"/>
<stop offset="0.626401" stop-color="#EAEAEA"/>
<stop offset="0.872212" stop-color="#EAEAEA"/>
<stop offset="0.886458" stop-color="white"/>
<stop offset="0.902914" stop-color="#EAEAEA"/>
<stop offset="0.918537" stop-color="#EAEAEA"/>
</radialGradient>
<radialGradient id="paint3_angular_37_71" cx="0" cy="0" r="1" gradientUnits="userSpaceOnUse" gradientTransform="translate(252.709 340.327) rotate(90) scale(334.424 179.923)">
<stop offset="0.000303672" stop-color="#EAEAEA"/>
<stop offset="0.0904875" stop-color="#EAEAEA"/>
<stop offset="0.111563" stop-color="white"/>
<stop offset="0.136566" stop-color="#EAEAEA"/>
<stop offset="0.404505" stop-color="#EAEAEA"/>
<stop offset="0.596482" stop-color="#EAEAEA"/>
<stop offset="0.607769" stop-color="white"/>
<stop offset="0.614698" stop-color="white"/>
<stop offset="0.626401" stop-color="#EAEAEA"/>
<stop offset="0.872212" stop-color="#EAEAEA"/>
<stop offset="0.886458" stop-color="white"/>
<stop offset="0.902914" stop-color="#EAEAEA"/>
<stop offset="0.918537" stop-color="#EAEAEA"/>
</radialGradient>
<linearGradient id="paint4_linear_37_71" x1="252.82" y1="-1415.09" x2="252.82" y2="910.909" gradientUnits="userSpaceOnUse">
<stop stop-color="#1C85E8"/>
<stop offset="1" stop-color="#1C85E8" stop-opacity="0"/>
</linearGradient>
<linearGradient id="paint5_linear_37_71" x1="315.869" y1="248.43" x2="421.987" y2="440.787" gradientUnits="userSpaceOnUse">
<stop stop-color="#059459"/>
<stop offset="1" stop-color="#059459" stop-opacity="0"/>
</linearGradient>
<linearGradient id="paint6_linear_37_71" x1="157.162" y1="380.618" x2="223.064" y2="530.286" gradientUnits="userSpaceOnUse">
<stop stop-color="#059459"/>
<stop offset="1" stop-color="#059459" stop-opacity="0"/>
</linearGradient>
<linearGradient id="paint7_linear_37_71" x1="180.19" y1="261.132" x2="243.74" y2="385.078" gradientUnits="userSpaceOnUse">
<stop stop-color="#059459"/>
<stop offset="1" stop-color="#059459" stop-opacity="0"/>
</linearGradient>
<linearGradient id="paint8_linear_37_71" x1="419.05" y1="162.609" x2="419.05" y2="210.597" gradientUnits="userSpaceOnUse">
<stop stop-color="white"/>
<stop offset="0.0416667" stop-color="#AEAEAE"/>
<stop offset="0.104167" stop-color="#F1F1F1"/>
<stop offset="0.677083" stop-color="#FCFCFC"/>
<stop offset="0.901042" stop-color="#EDEDED" stop-opacity="0.435484"/>
<stop offset="1" stop-color="white" stop-opacity="0"/>
</linearGradient>
<linearGradient id="paint9_linear_37_71" x1="257.5" y1="340" x2="431.723" y2="566.157" gradientUnits="userSpaceOnUse">
<stop stop-color="#059459"/>
<stop offset="1" stop-color="#059459" stop-opacity="0"/>
</linearGradient>
<linearGradient id="paint10_linear_37_71" x1="118" y1="-49.0651" x2="118" y2="852" gradientUnits="userSpaceOnUse">
<stop stop-color="#059459" stop-opacity="0.53"/>
<stop offset="1" stop-color="#059459" stop-opacity="0"/>
</linearGradient>
<linearGradient id="paint11_linear_37_71" x1="311" y1="181.5" x2="311" y2="836" gradientUnits="userSpaceOnUse">
<stop stop-color="#1C85E8" stop-opacity="0.53"/>
<stop offset="1" stop-color="#1C85E8" stop-opacity="0"/>
</linearGradient>
</defs>
</svg>
