<svg width="30" height="30" viewBox="0 0 30 30" fill="none" xmlns="http://www.w3.org/2000/svg">
<path d="M24.6 3H5.4C4.07452 3 3 4.07452 3 5.4V10.2C3 11.5255 4.07452 12.6 5.4 12.6H24.6C25.9255 12.6 27 11.5255 27 10.2V5.4C27 4.07452 25.9255 3 24.6 3Z" fill="#0A61B4" stroke="#0A61B4" stroke-width="2" stroke-linecap="round" stroke-linejoin="round"/>
<path d="M24.6 17.3994H5.4C4.07452 17.3994 3 18.4739 3 19.7994V24.5994C3 25.9249 4.07452 26.9994 5.4 26.9994H24.6C25.9255 26.9994 27 25.9249 27 24.5994V19.7994C27 18.4739 25.9255 17.3994 24.6 17.3994Z" fill="#20976C" stroke="#20976C" stroke-width="2" stroke-linecap="round" stroke-linejoin="round"/>
<path d="M7.80078 7.7998H7.81478" stroke="#BEFDE2" stroke-width="3" stroke-linecap="round" stroke-linejoin="round"/>
<path d="M7.80078 22.1992H7.81478" stroke="#BEFDE2" stroke-width="3" stroke-linecap="round" stroke-linejoin="round"/>
</svg>
