<svg width="24" height="24" viewBox="0 0 24 24" fill="none" xmlns="http://www.w3.org/2000/svg">
<path d="M17.5 20.668C18.8807 20.668 20 19.5487 20 18.168C20 16.7872 18.8807 15.668 17.5 15.668C16.1192 15.668 15 16.7872 15 18.168C15 19.5487 16.1192 20.668 17.5 20.668Z" stroke="#2F4356" stroke-width="1.5" stroke-linecap="round" stroke-linejoin="round"/>
<path d="M17.5 9C18.8807 9 20 7.88071 20 6.5C20 5.11929 18.8807 4 17.5 4C16.1192 4 15 5.11929 15 6.5C15 7.88071 16.1192 9 17.5 9Z" stroke="#2F4356" stroke-width="1.5" stroke-linecap="round" stroke-linejoin="round"/>
<path d="M7.5 14.832C8.88071 14.832 10 13.7128 10 12.332C10 10.9513 8.88071 9.83203 7.5 9.83203C6.11929 9.83203 5 10.9513 5 12.332C5 13.7128 6.11929 14.832 7.5 14.832Z" stroke="#2F4356" stroke-width="1.5" stroke-linecap="round" stroke-linejoin="round"/>
<path d="M15.4115 7.75L9.57812 11.0833" stroke="#2F4356" stroke-width="1.5"/>
<path d="M9.57812 13.582L15.4115 16.9154" stroke="#2F4356" stroke-width="1.5"/>
</svg>
