<svg width="36" height="36" viewBox="0 0 36 36" fill="none" xmlns="http://www.w3.org/2000/svg">
<path d="M17.1121 34.3077C17.6652 34.6291 18.3364 34.6291 18.8895 34.3077C21.8515 32.5869 31.2008 26.4835 31.2008 18.0002V7.61739C31.2008 6.78806 30.689 6.04477 29.9142 5.74895L18.7142 1.47259C18.2548 1.29717 17.7468 1.29717 17.2874 1.47259L6.08738 5.74895C5.31261 6.04477 4.80078 6.78806 4.80078 7.61739V18.0002C4.80078 26.4835 14.1501 32.5869 17.1121 34.3077Z" fill="#0A61B4"/>
<path d="M17.0962 29.4734C17.6557 29.8187 18.349 29.8187 18.9084 29.4734C21.3005 27.997 27.6023 23.526 27.6023 17.4008V9.94274C27.6023 9.12099 27.0997 8.38287 26.3351 8.0818L18.7351 5.0893C18.2642 4.90388 17.7405 4.90388 17.2696 5.0893L9.6696 8.0818C8.90499 8.38287 8.40234 9.12099 8.40234 9.94274V17.4008C8.40234 23.526 14.7042 27.997 17.0962 29.4734Z" fill="white"/>
<path d="M13.1992 16.8004L16.7992 20.4004L22.7992 14.4004" stroke="#20976C" stroke-width="2" stroke-linecap="round" stroke-linejoin="round"/>
</svg>
