<svg width="28" height="30" viewBox="0 0 28 30" fill="none" xmlns="http://www.w3.org/2000/svg">
<path d="M19 1H7C4.79086 1 3 2.79086 3 5V23C3 25.2091 4.79086 27 7 27H19C21.2091 27 23 25.2091 23 23V5C23 2.79086 21.2091 1 19 1Z" fill="#102A5E"/>
<path d="M20.2 0H8.8C6.70132 0 5 1.79086 5 4V22C5 24.2091 6.70132 26 8.8 26H20.2C22.2987 26 24 24.2091 24 22V4C24 1.79086 22.2987 0 20.2 0Z" fill="#20976C"/>
<path d="M17 3H5C2.79086 3 1 4.79086 1 7V25C1 27.2091 2.79086 29 5 29H17C19.2091 29 21 27.2091 21 25V7C21 4.79086 19.2091 3 17 3Z" fill="#F7FBFF" stroke="#0A61B4" stroke-width="2"/>
<path d="M5 9H17" stroke="#0A61B4" stroke-width="2" stroke-linecap="round"/>
<path d="M5 14H14" stroke="#0A61B4" stroke-width="2" stroke-linecap="round"/>
<path d="M5 19H11" stroke="#0A61B4" stroke-width="2" stroke-linecap="round"/>
<circle cx="22" cy="24" r="6" fill="#20976C"/>
<path d="M21.5 26.4995L25 22.4995" stroke="white" stroke-width="2" stroke-linecap="round"/>
<path d="M19 25L21.5 26.5" stroke="white" stroke-width="2" stroke-linecap="round"/>
</svg>
