<svg width="16" height="16" viewBox="0 0 16 16" fill="none" xmlns="http://www.w3.org/2000/svg">
<path fill-rule="evenodd" clip-rule="evenodd" d="M4.64022 2.10951C5.21916 2.06329 5.76874 1.83558 6.21072 1.45881C6.70992 1.03365 7.34421 0.80014 7.99992 0.80014C8.65564 0.80014 9.28993 1.03365 9.78912 1.45881C10.2311 1.83558 10.7807 2.06329 11.3596 2.10951C12.0134 2.16176 12.6272 2.44518 13.091 2.90895C13.5548 3.37273 13.8382 3.98653 13.8904 4.64031C13.9363 5.21901 14.164 5.76891 14.5411 6.21081C14.9663 6.71001 15.1998 7.3443 15.1998 8.00001C15.1998 8.65573 14.9663 9.29002 14.5411 9.78921C14.1644 10.2312 13.9366 10.7808 13.8904 11.3597C13.8382 12.0135 13.5548 12.6273 13.091 13.0911C12.6272 13.5548 12.0134 13.8383 11.3596 13.8905C10.7807 13.9367 10.2311 14.1644 9.78912 14.5412C9.28993 14.9664 8.65564 15.1999 7.99992 15.1999C7.34421 15.1999 6.70992 14.9664 6.21072 14.5412C5.76874 14.1644 5.21916 13.9367 4.64022 13.8905C3.98643 13.8383 3.37263 13.5548 2.90886 13.0911C2.44509 12.6273 2.16167 12.0135 2.10942 11.3597C2.0632 10.7808 1.83549 10.2312 1.45872 9.78921C1.03355 9.29002 0.800049 8.65573 0.800049 8.00001C0.800049 7.3443 1.03355 6.71001 1.45872 6.21081C1.83549 5.76884 2.0632 5.21925 2.10942 4.64031C2.16167 3.98653 2.44509 3.37273 2.90886 2.90895C3.37263 2.44518 3.98643 2.16176 4.64022 2.10951V2.10951ZM11.3362 6.83631C11.5002 6.66657 11.5909 6.43923 11.5888 6.20325C11.5868 5.96728 11.4921 5.74155 11.3253 5.57468C11.1584 5.40781 10.9327 5.31316 10.6967 5.31111C10.4607 5.30906 10.2334 5.39977 10.0636 5.56371L7.09992 8.52741L5.93622 7.36371C5.76648 7.19977 5.53914 7.10906 5.30316 7.11111C5.06718 7.11316 4.84145 7.20781 4.67459 7.37468C4.50772 7.54155 4.41307 7.76728 4.41102 8.00325C4.40896 8.23923 4.49968 8.46657 4.66362 8.63631L6.46362 10.4363C6.6324 10.605 6.86128 10.6998 7.09992 10.6998C7.33857 10.6998 7.56745 10.605 7.73622 10.4363L11.3362 6.83631V6.83631Z" fill="#AEB4BA"/>
</svg>
