<svg width="24" height="24" viewBox="0 0 24 24" fill="none" xmlns="http://www.w3.org/2000/svg">
<path d="M21.0712 6.73664C20.3941 7.03569 19.6764 7.23239 18.9415 7.32028C19.7166 6.85733 20.2965 6.12775 20.5727 5.26811C19.8448 5.70175 19.0473 6.00598 18.2155 6.1673C17.8683 5.79799 17.449 5.50385 16.9836 5.30307C16.5182 5.10229 16.0165 4.99914 15.5096 5.00001C14.9506 4.99998 14.3988 5.12634 13.8955 5.36964C13.3922 5.61294 12.9505 5.96688 12.6032 6.40499C12.256 6.8431 12.0124 7.35404 11.8905 7.8996C11.7686 8.44517 11.7716 9.01123 11.8993 9.55546C8.81914 9.39731 6.08542 7.92125 4.2554 5.67704C3.92722 6.24393 3.75447 6.88741 3.7546 7.54245C3.7546 8.83023 4.40979 9.96288 5.40387 10.6301C4.81537 10.6098 4.23997 10.4509 3.72447 10.1662V10.2114C3.72447 12.0113 5.00473 13.5099 6.7007 13.8488C6.38892 13.9354 6.06057 13.9799 5.72394 13.9799C5.48445 13.9799 5.2525 13.9573 5.02507 13.9151C5.26248 14.6516 5.72389 15.2957 6.34491 15.7574C6.96593 16.2191 7.71559 16.4755 8.48929 16.4907C7.17558 17.5205 5.5541 18.0793 3.88488 18.0775C3.58515 18.0775 3.28994 18.0601 3 18.0262C4.69618 19.1157 6.66994 19.6942 8.68585 19.6928C15.5059 19.6928 19.2367 14.0394 19.2367 9.13975C19.2367 8.97935 19.2329 8.81894 19.2254 8.66003C19.9483 8.13664 20.5772 7.48521 21.0742 6.73965L21.0712 6.73664Z" fill="#2F4356"/>
</svg>
