<svg width="25" height="24" viewBox="0 0 25 24" fill="none" xmlns="http://www.w3.org/2000/svg">
<path d="M6.93877 15.0801L6.21875 19.4002L10.5389 18.6802" stroke="#2F4356" stroke-width="2.10005"/>
<path d="M10.2376 18.9661C11.8537 19.5543 13.6269 19.5447 15.2365 18.9389C16.846 18.3331 18.1856 17.1712 19.0128 15.6634C19.84 14.1556 20.1002 12.4015 19.7463 10.7186C19.3924 9.03557 18.4478 7.53484 17.0834 6.4879C15.719 5.44096 14.0249 4.91696 12.3077 5.01071C10.5904 5.10447 8.96349 5.80978 7.72118 6.99904C6.47886 8.18829 5.70325 9.78294 5.53468 11.4944C5.36612 13.206 5.81572 14.9213 6.80215 16.33" stroke="#2F4356" stroke-width="2.10005"/>
<path d="M9.10325 8.59936C8.62324 12.4395 10.5433 15.0795 14.8634 16.5196C18.4635 15.7995 14.8634 12.1995 14.1434 14.3595C12.2233 12.9195 11.0233 11.7194 10.5433 10.7594C13.4234 9.31938 9.82327 7.15933 9.82327 7.87935" fill="#2F4356"/>
</svg>
