<svg width="21" height="15" viewBox="0 0 21 15" fill="none" xmlns="http://www.w3.org/2000/svg">
<path d="M20.5928 2.22571C20.3628 1.36771 19.6878 0.690712 18.8308 0.459712C17.2648 0.0297125 10.9998 0.0227127 10.9998 0.0227127C10.9998 0.0227127 4.73584 0.0157125 3.16884 0.426712C2.32884 0.655712 1.63484 1.34771 1.40284 2.20471C0.989841 3.77071 0.985841 7.01871 0.985841 7.01871C0.985841 7.01871 0.981841 10.2827 1.39184 11.8327C1.62184 12.6897 2.29684 13.3667 3.15484 13.5977C4.73684 14.0277 10.9848 14.0347 10.9848 14.0347C10.9848 14.0347 17.2498 14.0417 18.8158 13.6317C19.6718 13.4017 20.3498 12.7257 20.5828 11.8687C20.9968 10.3037 20.9998 7.05671 20.9998 7.05671C20.9998 7.05671 21.0198 3.79171 20.5928 2.22571ZM8.99584 10.0277L9.00084 4.02771L14.2078 7.03271L8.99584 10.0277Z" fill="#2F4356"/>
</svg>
