<svg width="20" height="21" viewBox="0 0 20 21" fill="none" xmlns="http://www.w3.org/2000/svg">
<g clip-path="url(#clip0_853_5188)">
<path d="M10 1.82324C12.6719 1.82324 12.9883 1.83496 14.0391 1.88184C15.0156 1.9248 15.543 2.08887 15.8945 2.22559C16.3594 2.40527 16.6953 2.62402 17.043 2.97168C17.3945 3.32324 17.6094 3.65527 17.7891 4.12012C17.9258 4.47168 18.0898 5.00293 18.1328 5.97559C18.1797 7.03027 18.1914 7.34668 18.1914 10.0146C18.1914 12.6865 18.1797 13.0029 18.1328 14.0537C18.0898 15.0303 17.9258 15.5576 17.7891 15.9092C17.6094 16.374 17.3906 16.71 17.043 17.0576C16.6914 17.4092 16.3594 17.624 15.8945 17.8037C15.543 17.9404 15.0117 18.1045 14.0391 18.1475C12.9844 18.1943 12.668 18.2061 10 18.2061C7.32813 18.2061 7.01172 18.1943 5.96094 18.1475C4.98438 18.1045 4.45703 17.9404 4.10547 17.8037C3.64063 17.624 3.30469 17.4053 2.95703 17.0576C2.60547 16.7061 2.39063 16.374 2.21094 15.9092C2.07422 15.5576 1.91016 15.0264 1.86719 14.0537C1.82031 12.999 1.80859 12.6826 1.80859 10.0146C1.80859 7.34277 1.82031 7.02637 1.86719 5.97559C1.91016 4.99902 2.07422 4.47168 2.21094 4.12012C2.39063 3.65527 2.60938 3.31934 2.95703 2.97168C3.30859 2.62012 3.64063 2.40527 4.10547 2.22559C4.45703 2.08887 4.98828 1.9248 5.96094 1.88184C7.01172 1.83496 7.32813 1.82324 10 1.82324ZM10 0.0224609C7.28516 0.0224609 6.94531 0.0341797 5.87891 0.0810547C4.81641 0.12793 4.08594 0.299805 3.45313 0.545898C2.79297 0.803711 2.23438 1.14355 1.67969 1.70215C1.12109 2.25684 0.78125 2.81543 0.523438 3.47168C0.277344 4.1084 0.105469 4.83496 0.0585938 5.89746C0.0117188 6.96777 0 7.30762 0 10.0225C0 12.7373 0.0117188 13.0771 0.0585938 14.1436C0.105469 15.2061 0.277344 15.9365 0.523438 16.5693C0.78125 17.2295 1.12109 17.7881 1.67969 18.3428C2.23438 18.8975 2.79297 19.2412 3.44922 19.4951C4.08594 19.7412 4.8125 19.9131 5.875 19.96C6.94141 20.0068 7.28125 20.0186 9.99609 20.0186C12.7109 20.0186 13.0508 20.0068 14.1172 19.96C15.1797 19.9131 15.9102 19.7412 16.543 19.4951C17.1992 19.2412 17.7578 18.8975 18.3125 18.3428C18.8672 17.7881 19.2109 17.2295 19.4648 16.5732C19.7109 15.9365 19.8828 15.21 19.9297 14.1475C19.9766 13.0811 19.9883 12.7412 19.9883 10.0264C19.9883 7.31152 19.9766 6.97168 19.9297 5.90527C19.8828 4.84277 19.7109 4.1123 19.4648 3.47949C19.2188 2.81543 18.8789 2.25684 18.3203 1.70215C17.7656 1.14746 17.207 0.803711 16.5508 0.549805C15.9141 0.303711 15.1875 0.131836 14.125 0.0849609C13.0547 0.0341797 12.7148 0.0224609 10 0.0224609Z" fill="#2F4356"/>
<path d="M10 4.88574C7.16406 4.88574 4.86328 7.18652 4.86328 10.0225C4.86328 12.8584 7.16406 15.1592 10 15.1592C12.8359 15.1592 15.1367 12.8584 15.1367 10.0225C15.1367 7.18652 12.8359 4.88574 10 4.88574ZM10 13.3545C8.16016 13.3545 6.66797 11.8623 6.66797 10.0225C6.66797 8.18262 8.16016 6.69043 10 6.69043C11.8398 6.69043 13.332 8.18262 13.332 10.0225C13.332 11.8623 11.8398 13.3545 10 13.3545Z" fill="#2F4356"/>
<path d="M16.5391 4.68262C16.5391 5.34668 16 5.88184 15.3398 5.88184C14.6758 5.88184 14.1406 5.34278 14.1406 4.68262C14.1406 4.01856 14.6797 3.4834 15.3398 3.4834C16 3.4834 16.5391 4.02246 16.5391 4.68262Z" fill="#2F4356"/>
</g>
<defs>
<clipPath id="clip0_853_5188">
<rect width="20" height="20" fill="white" transform="translate(0 0.0224609)"/>
</clipPath>
</defs>
</svg>
