<svg width="15" height="19" viewBox="0 0 15 19" fill="none" xmlns="http://www.w3.org/2000/svg">
<path d="M7.79998 0C2.61459 0 0 3.71742 0 6.81775C0 8.69464 0.710441 10.3642 2.23458 10.9862C2.48489 11.0895 2.70876 10.9904 2.78146 10.7136C2.83185 10.5228 2.95081 10.0395 3.0045 9.83795C3.0772 9.56451 3.04829 9.46869 2.84672 9.22995C2.40724 8.71198 2.12554 8.0412 2.12554 7.08954C2.12554 4.33204 4.18912 1.86284 7.49928 1.86284C10.4303 1.86284 12.0403 3.65381 12.0403 6.04453C12.0403 9.19195 10.6475 11.8478 8.58063 11.8478C7.43897 11.8478 6.58479 10.9044 6.85823 9.74543C7.18619 8.36255 7.82146 6.87062 7.82146 5.87187C7.82146 4.97887 7.34149 4.23373 6.34936 4.23373C5.18209 4.23373 4.24447 5.44148 4.24447 7.05814C4.24447 8.08828 4.59226 8.78551 4.59226 8.78551L3.18872 14.7326C2.77154 16.4979 3.12594 18.6606 3.1565 18.8787C3.17385 19.0092 3.34072 19.0406 3.4159 18.9423C3.52329 18.8019 4.91361 17.0861 5.38531 15.3703C5.51913 14.8854 6.15275 12.3708 6.15275 12.3708C6.53275 13.0944 7.64054 13.7305 8.81855 13.7305C12.327 13.7305 14.7069 10.5327 14.7069 6.25188C14.7094 3.01524 11.9668 0 7.79998 0V0Z" fill="#2F4356"/>
</svg>
