<svg width="20" height="18" viewBox="0 0 20 18" fill="none" xmlns="http://www.w3.org/2000/svg">
<path d="M6.2918 17.1471C13.8371 17.1471 17.9652 10.8943 17.9652 5.47365C17.9652 5.29786 17.9613 5.11818 17.9535 4.9424C18.7566 4.36165 19.4496 3.64231 20 2.81818C19.2521 3.15093 18.458 3.36825 17.6449 3.46271C18.5011 2.94952 19.1421 2.14332 19.4492 1.19357C18.6438 1.67089 17.763 2.0076 16.8445 2.18927C16.2257 1.53173 15.4075 1.09636 14.5164 0.950471C13.6253 0.804583 12.711 0.956303 11.9148 1.38218C11.1186 1.80805 10.4848 2.48435 10.1115 3.30652C9.73825 4.12869 9.64619 5.05094 9.84961 5.93068C8.21874 5.84884 6.62328 5.42518 5.16665 4.68718C3.71002 3.94917 2.42474 2.91329 1.39414 1.64669C0.870333 2.5498 0.710047 3.61847 0.945859 4.6355C1.18167 5.65254 1.79589 6.54163 2.66367 7.12208C2.01219 7.1014 1.37498 6.92599 0.804688 6.61036V6.66115C0.804104 7.60889 1.13175 8.52758 1.73192 9.26107C2.3321 9.99456 3.16777 10.4976 4.09687 10.6846C3.49338 10.8497 2.85999 10.8738 2.2457 10.7549C2.50788 11.57 3.01798 12.2828 3.70481 12.794C4.39164 13.3052 5.22093 13.5893 6.07695 13.6065C4.62369 14.748 2.82848 15.3672 0.980469 15.3643C0.652739 15.3638 0.325333 15.3437 0 15.3041C1.87738 16.5086 4.06128 17.1482 6.2918 17.1471Z" fill="#2F4356"/>
</svg>
