<svg width="22" height="19" viewBox="0 0 22 19" fill="none" xmlns="http://www.w3.org/2000/svg">
<path fill-rule="evenodd" clip-rule="evenodd" d="M8.00592 0.773372C3.90643 0.713107 0.5 3.65221 0.5 7.11855C0.5 9.11945 1.46457 10.8553 3.3317 12.1297C3.3317 12.1297 2.64739 14.333 2.65712 14.3772C2.66686 14.4215 2.81579 14.5083 2.86762 14.4799C2.91945 14.4515 5.34131 13.0424 5.34131 13.0424C7.07695 13.6237 8.13571 13.4807 8.31642 13.4563C8.32896 13.4546 8.33728 13.4534 8.34129 13.4532C8.15606 12.924 8.03468 12.1 8.17289 11.3234C8.89646 7.25903 13.1616 5.99475 15.4992 6.21074C14.8537 3.27548 12.0499 0.832783 8.00592 0.773372ZM5.15651 4.10937C4.61874 4.10937 4.18287 4.53475 4.18287 5.05953C4.18287 5.58431 4.61874 6.00968 5.15651 6.00968C5.69429 6.00968 6.13027 5.58431 6.13027 5.05953C6.13027 4.53475 5.69429 4.10937 5.15651 4.10937ZM11.0512 4.10937C10.5135 4.10937 10.0775 4.53475 10.0775 5.05953C10.0775 5.58431 10.5135 6.00968 11.0512 6.00968C11.589 6.00968 12.0249 5.58431 12.0249 5.05953C12.0249 4.53475 11.5891 4.10937 11.0512 4.10937Z" fill="#2F4356"/>
<path fill-rule="evenodd" clip-rule="evenodd" d="M21.5 11.9419C21.5 8.97225 18.5565 6.69766 15.1418 6.69766C11.5262 6.69766 8.64244 9.02367 8.64244 11.9931C8.64244 14.9679 11.3853 17.4307 15.146 17.4508C15.9029 17.455 17.0303 17.2651 17.7905 16.9553C17.7905 16.9553 19.6077 18.0303 19.7095 18.0224C19.8112 18.0144 19.8634 17.9358 19.8674 17.8684C19.8715 17.801 19.2884 16.123 19.2884 16.123C20.8488 14.9307 21.5 13.6169 21.5 11.9419ZM12.762 9.16159C12.2863 9.16159 11.9006 9.53853 11.9006 10.0037C11.9006 10.4686 12.2863 10.8457 12.762 10.8457C13.2378 10.8457 13.6235 10.4687 13.6235 10.0037C13.6235 9.53853 13.2378 9.16159 12.762 9.16159ZM17.3685 9.16159C16.8927 9.16159 16.507 9.53853 16.507 10.0037C16.507 10.4686 16.8927 10.8457 17.3685 10.8457C17.8444 10.8457 18.23 10.4687 18.23 10.0037C18.23 9.53853 17.8444 9.16159 17.3685 9.16159Z" fill="#2F4356"/>
</svg>
